<?xml version="1.0" encoding="utf-8"?>
<!-- Generator: Adobe Illustrator 17.1.0, SVG Export Plug-In . SVG Version: 6.00 Build 0)  -->
<!DOCTYPE svg PUBLIC "-//W3C//DTD SVG 1.1//EN" "http://www.w3.org/Graphics/SVG/1.1/DTD/svg11.dtd">
<svg version="1.1" id="logo-metro" xmlns="http://www.w3.org/2000/svg" xmlns:xlink="http://www.w3.org/1999/xlink" x="0px" y="0px"
	 viewBox="0 0 159 50" enable-background="new 0 0 159 50" xml:space="preserve">
<path d="M78.2,32.6c1.8-3.7,3.3-7.3,4.8-10.9c0.8-2,1.7-3.9,2.6-5.9c0.8-1.8,1.5-3.7,2.3-5.6c0,0,0,0,0,0c1.1,0,2.2,0.1,3.3,0.1
	c1.2,0,2.4-0.1,3.5-0.1v1c-1.4,0-2.3,0.1-2.8,0.5c-0.5,0.4-0.8,1.1-0.8,2.4c0,6.3,0.4,13,0.5,19.1c0.1,3,0.4,3.9,4.4,3.9v1
	c-2.2,0-4.4-0.1-6.6-0.1c-2,0-3.9,0-5.8,0.1v-1c1.4,0,2.4,0,3.1-0.4c0.7-0.4,1-1.2,1-2.7l-0.1-19h-0.1L79,34.5c-0.4,1-1.3,2.9-1.6,4
	h-0.8c-3.4-7.6-6-15.1-9.8-22.7h-0.1l-0.3,14.5c0,0.5,0,2,0,2.5c0,2,0.2,3,0.8,3.6c0.6,0.6,1.6,0.7,3.2,0.7v1c-1.6,0-3.3-0.1-5-0.1
	c-1.8,0-3.6,0-5.3,0.1v-1c2.8,0,4.6-0.7,4.8-6c0.2-5.5,0.4-10.9,0.4-16.4c0-1.4-0.2-2.3-0.8-2.8c-0.6-0.5-1.4-0.6-2.8-0.6v-1
	c1.4,0,2.8,0.1,4.2,0.1c0.8,0,1.7-0.1,2.6-0.1L78.2,32.6z M99.1,27c-0.1,0.4-0.1,1,0,2.3c0.2,3.8,2.7,6.9,5.9,6.9
	c2.2,0,3.9-1.2,5.4-2.7l0.6,0.6c-1.8,2.4-4.1,4.5-7.4,4.5c-6.3,0-7.6-6.1-7.6-8.7c0-7.8,5.3-10.1,8-10.1c3.2,0,6.7,2,6.7,6.2
	c0,0.2,0,0.5,0,0.7l-0.4,0.2H99.1z M106.2,25.8c1,0,1.1-0.5,1.1-1c0-2-1.2-3.7-3.5-3.7c-2.4,0-4.1,1.8-4.6,4.7H106.2z M118.3,33.1
	c0,2.6,1.4,3.3,2.5,3.3c1.1,0,1.9-0.4,2.8-1.2l0.6,0.6c-1.4,1.4-3.1,2.7-5.3,2.7c-2.5,0-3.8-1.4-3.8-3.7V22.6h-2.6V22
	c2.1-1.6,3.3-2.3,5.3-5.6h0.5v4.1h5.9v2.2h-5.9V33.1z M125.9,37h1.1c1.1,0,1.9,0,1.9-1.3V24.5c0-1.2-1.5-1.5-2.1-1.8v-0.6
	c2.9-1.2,4.5-2.3,4.9-2.3c0.2,0,0.4,0.1,0.4,0.5v3.6h0.1c1-1.6,2.7-4.1,5.1-4.1c1,0,2.3,0.7,2.3,2.1c0,1.1-0.8,2-1.9,2
	c-1.2,0-1.2-1-2.6-1c-0.7,0-2.9,0.9-2.9,3.3v9.3c0,1.3,0.8,1.3,1.9,1.3h2.2v1c-2.2,0-3.9-0.1-5.6-0.1c-1.6,0-3.3,0-4.7,0.1V37z
	 M149.3,19.8c5.5,0,9.7,3.7,9.7,9.3c0,5.1-4.1,9.5-9.2,9.5c-5.3,0-9.6-3.7-9.6-9.3C140.2,24.2,144,19.8,149.3,19.8z M149.8,37.6
	c4,0,5.5-4.6,5.5-8c0-3.3-1.8-8.7-6-8.7c-3.9,0-5.5,4.6-5.5,8C143.9,32.2,145.6,37.6,149.8,37.6z M17.4,33.2l1.3,2.4
	c-0.3,0.2-0.7,0.4-1.2,0.5c-2.4,0.7-5,1.6-7.5,2.7l2.1-4c1.3-0.5,2.7-1,3.9-1.3C16.6,33.2,17,33.2,17.4,33.2z M16.9,32.4l-1.8-3.5
	l-2.9,5.4c0.9-0.4,2-0.9,3.5-1.3C16.3,32.8,16.7,32.6,16.9,32.4z M50,25c0,13.8-11.2,25-25,25C11.2,50,0,38.8,0,25
	C0,11.2,11.2,0,25,0C38.8,0,50,11.2,50,25z M18.1,2.8c0.6,0.9,1.2,1.8,1.7,2.7c2.8,4.5,5.2,9.3,7.1,14c0.1,0.3,0.3,0.8,0.4,1.2
	l0.7-1.3c-0.2-0.2-0.4-0.5-0.5-0.8C25,13.3,22,7.8,18.4,2.7C18.3,2.8,18.2,2.8,18.1,2.8z M15.1,4c0.9,1.3,1.8,2.5,2.6,3.8
	c3,4.7,5.4,9.2,7.7,14.7c0.1,0.3,0.3,0.8,0.4,1.2l0.7-1.3c-0.2-0.2-0.4-0.5-0.5-0.8c-2.8-5.9-6.6-12.3-10.6-17.6
	C15.3,3.9,15.2,4,15.1,4z M28.6,40.9l1-2c0.3,0.1,0.5,0.1,0.7,0.1c4.1,0.2,7.4,0.9,11.1,2.3l-2.1-4c-2.6-0.4-5.2-0.4-8-0.3
	c-0.3,0-0.6,0.1-0.9,0.2l0.5-0.9L15.3,6.7l-0.9,1.6c-0.1-0.1-0.4-0.3-0.6-0.7c-0.4-0.6-1-1.4-1.5-2.1c-0.1,0.1-0.2,0.1-0.2,0.2
	c0.5,0.7,1.2,1.5,1.5,2.2C13.8,8.3,13.9,8.7,14,9l-1.4,2.6c-0.2-0.1-0.4-0.3-0.6-0.7c-0.5-0.7-1.5-2.2-2.4-3.3
	C9.6,7.7,9.5,7.7,9.4,7.8c0.8,1.2,1.9,2.7,2.3,3.6c0.2,0.5,0.4,0.8,0.5,1.1L10.9,15c-0.2-0.1-0.4-0.3-0.6-0.7
	c-0.4-0.6-1.9-2.8-3-4.3c-0.1,0.1-0.1,0.2-0.2,0.2c1.1,1.6,2.5,3.8,2.9,4.6c0.2,0.5,0.4,0.8,0.4,1.1L9,18.5
	c-0.2-0.1-0.4-0.4-0.6-0.8c-0.5-0.8-2.1-3-3.3-4.7C5.1,13.1,5,13.2,5,13.3c1.2,1.7,2.7,4.1,3.1,5c0.2,0.6,0.4,0.9,0.5,1.2l-1.3,2.4
	c-0.2-0.2-0.4-0.4-0.6-0.7c-0.6-1-2-3.1-3.2-4.7c0,0.1-0.1,0.2-0.1,0.3c1.1,1.7,2.4,3.9,2.9,5c0.3,0.7,0.4,1,0.5,1.1l-1.3,2.5
	C5.2,25.3,5,25,4.7,24.7c-0.9-1.4-1.9-2.8-2.6-3.7c0,0.1-0.1,0.3-0.1,0.4c0.9,1.4,1.9,3.2,2.2,4.1c0.3,0.7,0.4,0.9,0.4,1.1l-1.2,2.2
	c-0.1-0.2-0.3-0.4-0.6-0.8c-0.3-0.5-0.8-1.1-1.2-1.6c0,0.2,0,0.4,0,0.6c0.2,0.3,0.5,0.8,0.7,1.3C2.9,28.7,3,29,3.1,29.6l-0.6,1.2
	c1,4.1,3.1,7.7,6,10.6l1.1-2.2c2.4-0.8,5.5-1.9,7.9-2.4c0.8-0.2,1.2-0.2,1.5-0.2l1.2,2.4c-0.3,0.2-0.6,0.3-1.1,0.5
	c-3.2,0.9-6.3,1.9-9.5,3.1c0.1,0.1,0.2,0.2,0.3,0.2c3.3-1.2,6.3-2.1,9.6-2.7c0.8-0.1,1.1-0.1,1.3-0.1l1.2,2.2
	c-0.2,0.2-0.7,0.4-1.2,0.5c-2.6,0.6-5.2,1.4-7.8,2.3c0.1,0.1,0.2,0.1,0.3,0.2c2.8-0.8,5.1-1.5,7.7-1.7c0.7-0.1,1.2-0.1,1.5-0.1
	l1.1,2.1c-0.2,0.1-0.6,0.3-1.2,0.5c-1.6,0.3-2.8,0.7-4.4,1.3c0.2,0.1,0.3,0.1,0.5,0.1c1.7-0.5,2.8-0.7,4-0.8c0.8-0.1,1.3,0,1.6,0
	l0.6,1.2l0.7-1.4c0.3,0.1,0.5,0.1,0.8,0.1c1.5,0,3.8,0.1,5.8,0.6c1.8-0.6,3.5-1.4,5-2.4c-3.2-0.4-6.7-0.4-9.9,0
	c-0.3,0-0.6,0.1-0.9,0.2l1.2-2.2c0.3,0,0.6,0,0.8,0c3.4,0,6.3,0.6,9.5,1.5c1-0.7,2.1-1.6,3-2.4c-4.1-1.2-7.5-1.5-11.5-1.1
	C29.2,40.7,28.9,40.8,28.6,40.9z M32.7,33.2l-1.1,2.1c0.3,0.1,0.5,0.2,0.8,0.2c1.6,0.1,4.1,0.5,6.7,1.2l-1.9-3.5
	C36,33,34.8,32.9,33.6,33C33.3,33,33,33.1,32.7,33.2z M34.1,31.9c0.9,0.1,1.7,0.3,2.6,0.5L35,28.9l-1.5,2.8
	C33.7,31.8,33.9,31.9,34.1,31.9z M47.5,30.7c0.5-1.8,0.7-3.8,0.7-5.7C48.2,12.2,37.8,1.8,25,1.8c-1.5,0-2.9,0.1-4.2,0.4L29,17.6
	l5.7-10.9L47.5,30.7z"/>
</svg>
