<?xml version="1.0" encoding="UTF-8"?>
<svg width="110px" height="79px" viewBox="0 0 110 79" version="1.1" xmlns="http://www.w3.org/2000/svg" xmlns:xlink="http://www.w3.org/1999/xlink">
    <!-- Generator: Sketch 47.1 (45422) - http://www.bohemiancoding.com/sketch -->
    <title>path16</title>
    <desc>Created with Sketch.</desc>
    <defs></defs>
    <g id="Symbols" stroke="none" stroke-width="1" fill="none" fill-rule="evenodd">
        <g id="logo-Car-Talk" transform="translate(-25.000000, -41.000000)" fill-rule="nonzero" fill="#435E74">
            <path d="M46.1994084,42.6426414 C43.2481721,43.8547563 40.5650218,45.8757116 38.8556877,48.5978146 C37.0821963,51.3680356 36.4543712,54.8119084 37.0134564,58.0426872 C37.5473368,61.376576 39.4743475,64.4332136 42.1689545,66.4518775 C45.4707647,69.0021306 49.6891078,70.1248836 53.8135064,70.2417415 C57.6194097,70.3769301 61.4367696,69.7857663 65.0547837,68.5965648 C64.1153373,64.7562915 63.1598517,60.9160182 62.1745787,57.0872016 C60.0092695,57.8914593 57.669819,58.2282851 55.3647385,58.0335219 C54.2557335,57.9029159 53.1054846,57.5752554 52.2737309,56.793911 C51.6734018,56.2302432 51.3732372,55.2312222 51.8612911,54.5048698 C52.6609661,53.1369443 54.3496782,52.6695125 55.829879,52.5411978 C57.9172829,52.4793319 60.0459308,52.6718038 62.0302248,53.3569122 C63.107151,49.8236775 64.2803133,46.3110647 65.2518383,42.750334 C62.2066574,41.4901011 58.9094299,40.9081027 55.6167851,41.013504 C52.4112109,40.9081027 49.1712667,41.4167785 46.1994084,42.6426414 L46.1994084,42.6426414 Z M109.373737,47.401739 C107.774387,48.318272 106.724957,49.9176221 105.948195,51.5444682 C105.994022,49.9199135 105.975691,48.2953587 105.961943,46.6708039 C101.800883,47.2596764 97.6192014,47.7477302 93.4695982,48.4053427 C93.4535589,55.4305681 93.5154248,62.458085 93.4237715,69.4833105 C97.6054534,69.4833105 101.789427,69.4856018 105.9734,69.4810191 C105.977982,66.4266729 105.968817,63.3723266 105.977982,60.3179804 C106.014644,58.6040637 106.376674,56.732045 107.721686,55.5428434 C109.974066,57.8822939 113.919741,58.3497258 116.570813,56.4250065 C119.423522,54.3467679 119.226467,49.4433163 116.321057,47.5002663 C114.297811,46.1140101 111.456558,46.1735848 109.373737,47.401739 L109.373737,47.401739 Z M68.881309,48.1510048 C68.5880184,48.2999414 68.2443185,48.40076 68.0312246,48.6619719 C67.6004541,51.1320284 67.2315496,53.6158328 66.8099444,56.0881806 C68.6682151,55.1533169 70.755619,54.816491 72.7994876,54.5598618 C73.6724853,54.4086338 74.4859083,54.8141997 75.283292,55.1006163 C76.4885329,55.6184574 77.8518758,56.3127312 78.218489,57.6921133 C75.4918033,57.0230442 72.5566063,56.8993123 69.8940779,57.8937506 C68.6613411,58.3565998 67.5225488,59.1241962 66.7480784,60.2011224 C65.3916096,62.0571018 65.3228696,64.7035908 66.4410398,66.6878848 C67.4148562,68.3193135 69.2181349,69.3435392 71.0809882,69.5772551 C73.567084,69.9232463 76.0875497,69.1144059 78.1955756,67.8289684 C78.184119,68.3788882 78.177245,68.9310993 78.1795363,69.4833105 C82.3589268,69.4856018 86.5383173,69.4833105 90.7199992,69.4833105 C90.6925032,64.8937714 90.8093611,60.3019411 90.6329285,55.7146934 C90.5504406,53.5104315 89.8034662,51.2763823 88.1834941,49.7251502 C86.0846335,47.6331636 83.0119566,46.9870078 80.1569563,46.8128666 C76.3625096,46.5928986 72.4764097,46.8380712 68.881309,48.1510048 L68.881309,48.1510048 Z M27.0782386,70.4548354 C26.3931302,74.5150767 25.6736518,78.5684439 25,82.6309764 C27.3577812,82.6813857 29.7155623,82.6378504 32.0710521,82.6584724 C32.0733435,88.8954795 32.0733435,95.1324866 32.0710521,101.369494 C36.5551899,101.51843 41.0462016,101.403864 45.5303393,101.442816 C45.528048,95.1622739 45.521174,88.8817315 45.5944966,82.6034804 C47.4527673,82.5714018 49.311038,82.6011891 51.1716,82.5897324 C51.895661,78.5386566 52.6105568,74.4875807 53.3277439,70.4365048 C44.5794363,70.4777488 35.8265461,70.4548354 27.0782386,70.4548354 L27.0782386,70.4548354 Z M78.245985,70.3998435 C78.252859,80.6764698 78.2368196,90.9530961 78.2551503,101.229722 C82.4116275,101.188478 86.5681047,101.218266 90.7268732,101.215974 C90.7497865,90.9462221 90.6512592,80.6718871 90.7818651,70.4021348 C86.604766,70.3975521 82.4253755,70.4021348 78.245985,70.3998435 L78.245985,70.3998435 Z M93.3687796,70.3998435 C93.3710709,80.6718871 93.3619056,90.9439308 93.3756536,101.218266 C97.4748474,101.204518 101.574041,101.227431 105.673235,101.206809 C105.680109,98.0699749 105.684692,94.9308494 105.668652,91.7940151 C108.693211,96.7135061 111.69944,101.642162 114.744621,106.550197 C113.894536,108.2412 113.168184,110.129258 113.475222,112.056269 C113.667694,113.566257 114.746912,114.936474 116.195034,115.424527 C118.154123,116.13484 120.319433,115.830093 122.230404,115.115197 C121.130564,113.160691 120.060512,111.192436 118.949216,109.244804 C121.148895,107.370494 123.419605,105.585546 125.616993,103.708944 C127.346949,105.255594 129.150228,106.719755 130.891641,108.254948 C131.902118,106.529575 132.639928,104.524659 132.43829,102.501412 C132.289354,100.714173 130.905389,99.1766885 129.196055,98.7138393 C127.33091,98.1845415 125.323703,98.4526274 123.51355,99.0575392 C119.858875,95.7580204 116.195034,92.4607929 112.622847,89.0764948 C117.102402,87.7475219 120.782282,83.9393273 121.744641,79.3360403 C117.888329,79.3360403 114.034307,79.3360403 110.177995,79.3360403 C109.841169,81.9412853 107.88208,83.9828626 105.737392,85.3210008 C105.735101,80.3465179 105.735101,75.3743264 105.737392,70.4021348 C101.615285,70.3975521 97.4931781,70.3998435 93.3687796,70.3998435 L93.3687796,70.3998435 Z M56.3431375,79.2054343 C55.3372425,79.4895595 54.2786469,79.6957795 53.4010665,80.2983999 C52.9473827,82.800535 52.6013915,85.3255835 52.1614556,87.8323012 C53.9945216,86.8539022 56.0887996,86.535407 58.1257942,86.2696125 C59.0102485,86.0954712 59.8259629,86.5858163 60.6348033,86.8676502 C61.7850522,87.3877827 63.0956944,88.0820565 63.4004416,89.4247773 C60.9280938,88.7900782 58.2724394,88.6503069 55.8115483,89.4110293 C54.3336388,89.8784612 52.9130127,90.7216715 52.0377237,92.0300224 C50.7224988,93.9891117 50.6972941,96.7455847 52.0010623,98.7138393 C52.853438,100.068017 54.3473868,100.904353 55.877997,101.248053 C58.4740767,101.738398 61.1549357,100.982259 63.3591976,99.6028764 C63.3569063,100.145922 63.354615,100.686677 63.3591976,101.229722 C67.4767221,101.188478 71.596538,101.236596 75.7163539,101.204518 C75.7232279,97.4238191 75.7163539,93.6431205 75.7186452,89.8624218 C75.7415585,88.3730557 75.6728185,86.8745242 75.3886933,85.4126541 C74.8983482,82.9288496 73.1156915,80.7658318 70.810611,79.7416061 C68.4322078,78.6440578 65.7559314,78.4286726 63.1713084,78.4790819 C60.8776845,78.4355466 58.5634387,78.6005225 56.3431375,79.2054343 L56.3431375,79.2054343 Z M126.205866,107.061164 C129.134189,108.096846 132.062512,109.123363 135,110.131549 C134.042223,113.135486 132.956131,116.10047 132.00752,119.10899 C129.049409,118.114552 126.10963,117.060539 123.165268,116.03173 C124.173454,113.041542 125.165601,110.042187 126.205866,107.061164 Z M74.5546483,61.4063633 C75.6521966,60.7624989 76.9765867,61.0076715 78.1382923,61.307836 C78.225363,62.3458097 78.156623,63.3906573 78.1864103,64.4332136 C77.3546566,65.0083381 76.2800217,65.2053927 75.303914,64.9235588 C74.3003104,64.7035908 73.4868873,63.6656172 73.6816506,62.6230609 C73.6999813,62.0845978 74.1559564,61.7019452 74.5546483,61.4063633 Z M59.0514925,95.3570372 C58.5771867,94.3007329 59.3424917,93.088618 60.4308747,92.8732328 C61.397817,92.5661942 62.424334,92.7838708 63.3614889,93.095492 C63.354615,94.1311743 63.347741,95.1668566 63.3591976,96.2048302 C62.0416814,97.1855206 59.7503489,96.988466 59.0514925,95.3570372 Z M128.325348,111.288672 C127.521091,111.64612 126.966588,112.569527 127.161351,113.45169 C127.321745,114.537782 128.549899,115.380992 129.610786,114.986883 C130.637303,114.682136 131.315537,113.428777 130.859562,112.425173 C130.52961,111.423861 129.294582,110.848736 128.325348,111.288672 Z" id="path16"></path>
        </g>
    </g>
</svg>