<svg width="31px" height="23px" viewBox="0 0 31 23" version="1.1" xmlns="http://www.w3.org/2000/svg" xmlns:xlink="http://www.w3.org/1999/xlink">
  <g id="Symbols" stroke="none" stroke-width="1" fill="none" fill-rule="evenodd">
    <g id="icon_quotemark" fill="#435E74">
        <path d="M15.4559187,0.46 C13.9335513,0.46 11.1574696,0.997306136 10.1724084,1.2659592 C6.94857158,5.83306136 3.09787761,12.9971432 0.68,19.5343678 C2.47102045,20.8776332 5.4262042,22.0417964 8.29183692,22.4000005 C9.54555124,21.0567352 11.5156737,18.0120004 12.1425309,16.400082 L9.0082451,15.5045718 C10.1724084,11.7434288 13.3066942,4.66889806 15.4559187,0.46 Z M30.6795926,0.46 C29.1572252,0.46 26.4706945,0.997306136 25.4856333,1.2659592 C22.2617964,5.83306136 18.4111025,12.9971432 15.9932249,19.5343678 C17.7842453,20.8776332 20.649878,22.0417964 23.5155108,22.4000005 C24.7692251,21.0567352 26.7393476,18.0120004 27.3662047,16.400082 L24.2319189,15.5045718 C25.3960822,11.7434288 28.530368,4.66889806 30.6795926,0.46 Z" id="“"></path>
    </g>
  </g>
</svg>