<?xml version="1.0" encoding="UTF-8"?>
<svg width="200px" height="200px" viewBox="0 0 200 200" version="1.1" xmlns="http://www.w3.org/2000/svg" xmlns:xlink="http://www.w3.org/1999/xlink">
    <!-- Generator: Sketch 53 (72520) - https://sketchapp.com -->
    <title>logo/autodesk</title>
    <desc>Created with Sketch.</desc>
    <defs>
        <linearGradient x1="12.9171776%" y1="51.5119195%" x2="99.6841138%" y2="43.3449685%">
            <stop stop-color="#657B8D" offset="0%"></stop>
            <stop stop-color="#ADB9C3" offset="51.048726%"></stop>
            <stop stop-color="#D5DBE0" offset="100%"></stop>
        </linearGradient>
        <linearGradient x1="61.3751097%" y1="10.3816293%" x2="34.8308792%" y2="100.102528%">
            <stop stop-color="#4A6379" offset="0%"></stop>
            <stop stop-color="#9DABB7" offset="49.279997%"></stop>
            <stop stop-color="#CFD5DB" offset="100%"></stop>
        </linearGradient>
        <linearGradient x1="36.6743007%" y1="0.30973165%" x2="69.2086231%" y2="99.6597275%">
            <stop stop-color="#A4B0BB" offset="0%"></stop>
            <stop stop-color="#61788A" offset="50%"></stop>
            <stop stop-color="#435E74" offset="100%"></stop>
        </linearGradient>
    </defs>
    <g stroke="none" stroke-width="1" fill="none" fill-rule="evenodd">
        <g transform="translate(5.000000, 83.000000)">
            <g transform="translate(40.342466, 5.205479)" fill="#435E74" fill-rule="nonzero">
                <path d="M9.77998856,15.311356 L6.59525451,7.87592322 L12.9926877,7.87592322 L9.77998856,15.311356 Z M19.5217215,0.498065678 L16.0721413,0.498065678 L14.186963,4.98235546 L5.39933424,4.98235546 L3.48783581,0.498065678 L0.143536059,0.498065678 L8.32086712,19.2133132 L11.3443905,19.2133132 L19.5217215,0.498065678 Z" transform="translate(9.832629, 9.855689) scale(-1, 1) rotate(-180.000000) translate(-9.832629, -9.855689) "></path>
                <polygon transform="translate(48.135471, 9.921983) scale(-1, 1) rotate(-180.000000) translate(-48.135471, -9.921983) " points="49.6505229 0.63015976 46.3572184 0.63015976 46.3572184 16.1869934 40.4631574 16.1869934 40.4631574 19.2138067 55.8077851 19.2138067 54.5427745 16.1869934 49.6505229 16.1869934"></polygon>
                <polygon transform="translate(105.548856, 9.921654) scale(-1, 1) rotate(-180.000000) translate(-105.548856, -9.921654) " points="112.165898 16.1866644 102.213604 16.1866644 102.213604 11.4605585 108.588007 11.4605585 108.588007 8.53738064 102.213604 8.53738064 102.213604 3.59906885 112.170833 3.59906885 112.170833 0.629830759 98.9268797 0.629830759 98.9268797 19.2134777 112.165898 19.2134777"></polygon>
                <polygon transform="translate(133.942504, 9.922970) scale(-1, 1) rotate(-180.000000) translate(-133.942504, -9.922970) " points="135.499504 0.631146765 132.385505 0.631146765 132.385505 19.2147937 135.499504 19.2147937"></polygon>
                <path d="M122.259005,16.5426727 C120.360666,16.5426727 118.746914,15.9685651 118.738689,14.7084896 C118.728819,13.2329181 119.654958,12.7213208 123.150599,11.5846208 C127.013076,10.3146752 129.0644,9.02334451 129.043015,5.88138065 C129.023274,2.33968003 126.285982,0.319611122 122.288615,0.319611122 C119.459202,0.319611122 116.922601,1.23752517 114.988073,2.93846267 L116.192218,5.85341553 C117.947441,4.38277904 120.074435,3.33984444 122.37251,3.3299744 C124.384354,3.32010436 125.81551,4.29888367 125.81551,5.74813506 C125.81551,6.96050541 125.114737,7.76655897 121.724377,8.8407487 C117.83558,10.1156293 115.48651,11.4447952 115.50625,14.6114342 C115.52928,17.7616231 118.483713,19.553036 122.198139,19.5349409 C125.914211,19.5168458 128.00666,18.1580698 128.324146,17.973829 L127.156191,15.3237223 C126.397843,15.7333291 124.734741,16.5426727 122.259005,16.5426727" transform="translate(122.015626, 9.927344) scale(-1, 1) rotate(-180.000000) translate(-122.015626, -9.927344) "></path>
                <polygon transform="translate(142.105688, 9.923299) scale(-1, 1) rotate(-180.000000) translate(-142.105688, -9.923299) " points="139.513157 10.2202231 147.831958 19.2167677 143.846106 19.2167677 135.499339 10.2202231 144.6719 0.629830759 148.712037 0.629830759"></polygon>
                <path d="M65.8735845,3.30987658 C62.2216684,3.30987658 59.5551116,6.26924463 59.5551116,9.92116074 C59.5551116,13.5730768 62.2216684,16.5340899 65.8735845,16.5340899 C69.5255006,16.5340899 72.1937023,13.5730768 72.1937023,9.92116074 C72.1937023,6.26924463 69.5255006,3.30987658 65.8735845,3.30987658 M65.8735845,19.5345831 C60.565146,19.5345831 56.2634521,15.2295992 56.2634521,9.92116074 C56.2634521,4.61272233 60.565146,0.311028353 65.8735845,0.311028353 C71.1803779,0.311028353 75.4853619,4.61272233 75.4853619,9.92116074 C75.4853619,15.2295992 71.1803779,19.5345831 65.8735845,19.5345831" transform="translate(65.874407, 9.922806) scale(-1, 1) rotate(-180.000000) translate(-65.874407, -9.922806) "></path>
                <path d="M85.9745861,3.60564888 L82.2206796,3.60235887 L82.2206796,16.1866644 L85.9893912,16.1866644 C89.6396623,16.1866644 92.293059,13.599068 92.293059,9.94879686 C92.293059,6.29852576 89.6232122,3.60564888 85.9745861,3.60564888 M85.9745861,19.2151227 L78.924085,19.2151227 L78.924085,0.631475766 L85.9745861,0.633120773 C91.2797345,0.633120773 95.5830735,4.64200345 95.5830735,9.94879686 C95.5830735,15.2572353 91.2797345,19.2151227 85.9745861,19.2151227" transform="translate(87.253579, 9.923299) scale(-1, 1) rotate(-180.000000) translate(-87.253579, -9.923299) "></path>
                <path d="M36.8739161,9.15919338 C36.8739161,3.61880894 33.6233817,0.631475766 28.9087909,0.631475766 C24.1958451,0.631475766 20.9453108,3.61880894 20.9453108,9.15919338 L20.9453108,19.507934 L24.2369703,19.507934 L24.2369703,8.76768165 C24.2369703,5.51714731 26.1451787,3.6089389 28.9087909,3.6089389 C31.6756931,3.6089389 33.5839015,5.51714731 33.5839015,8.76768165 L33.5839015,19.507934 L36.8739161,19.507934 L36.8739161,9.15919338 Z" transform="translate(28.909613, 10.069705) scale(-1, 1) rotate(-180.000000) translate(-28.909613, -10.069705) "></path>
            </g>
            <g>
                <path d="M6.82991361,32.6802187 C5.91474234,32.6802187 5.43916258,32.3350099 4.98262479,31.5331091 L0.812410752,23.8026509 C0.525030637,23.2486548 0.520449898,23.0641403 0.520449898,22.6649809 L7.07449117,22.9539022 L8.57454925,24.4539602 L21.7211256,24.4539602 L10.8054151,31.216007 C10.2733559,31.5306753 8.24975836,32.6802187 6.82991361,32.6802187 Z" fill="url(#linearGradient-1)" fill-rule="nonzero" transform="translate(11.120788, 27.672600) rotate(-360.000000) translate(-11.120788, -27.672600) "></path>
                <path d="M8.58056869,24.4539602 L2.91140865,24.4539602 C1.1991264,24.4539602 0.520449898,23.5583703 0.520449898,22.6649809 C0.520449898,22.0996683 0.70235739,21.7913831 0.953868925,21.1631025 L9.21562924,1.44023778 L9.30441312,1.26716782 L9.41878362,1.08959263 L9.65655361,0.857842089 L10.0056842,0.671237561 L10.5113218,0.559876957 L11.3811387,0.582450303 L17.1222307,2.71636112 L15.1809449,8.83818712 L8.58056869,24.4539602 Z" fill="url(#linearGradient-2)" fill-rule="nonzero" transform="translate(8.821340, 12.506919) rotate(-360.000000) translate(-8.821340, -12.506919) "></path>
                <path d="M25.2268794,32.6789985 L12.1862462,1.80741728 C11.9616305,1.2817521 11.6015036,0.603518535 10.6693335,0.603518535 C9.83645406,0.603518535 9.43969005,1.00680325 9.21562924,1.44023778 C9.33148698,1.12766512 9.68208325,0.520449363 10.698227,0.520449363 L19.6985754,0.520449363 C20.5280064,0.520449363 20.9258994,1.00882546 21.1072277,1.45597019 L34.2946461,32.6789985 L25.2268794,32.6789985 Z" fill="url(#linearGradient-3)" transform="translate(21.755138, 16.599724) rotate(-360.000000) translate(-21.755138, -16.599724) "></path>
            </g>
        </g>
    </g>
</svg>
