<?xml version="1.0" encoding="UTF-8"?>
<svg width="200px" height="200px" viewBox="0 0 200 200" version="1.1" xmlns="http://www.w3.org/2000/svg" xmlns:xlink="http://www.w3.org/1999/xlink">
    <!-- Generator: Sketch 53 (72520) - https://sketchapp.com -->
    <title>logo/caltf</title>
    <desc>Created with Sketch.</desc>
    <g id="logo/caltf" stroke="none" stroke-width="1" fill="none" fill-rule="evenodd">
        <g id="Group" transform="translate(40.000000, 41.000000)" fill="#435E74">
            <path d="M17.0833333,6.24962076 L23.3329167,6.24962076 L23.3329167,0 L17.0833333,0 L17.0833333,6.24962076 Z M32.9166667,22.0834656 L39.1666667,22.0834656 L39.1666667,15.8334281 L32.9166667,15.8334281 L32.9166667,22.0834656 Z M1.25,22.0834656 L7.49958333,22.0834656 L7.49958333,15.8334281 L1.25,15.8334281 L1.25,22.0834656 Z M32.9166667,37.9168937 L39.1666667,37.9168937 L39.1666667,31.6668563 L32.9166667,31.6668563 L32.9166667,37.9168937 Z M17.0833333,37.9168937 L23.3329167,37.9168937 L23.3329167,31.6668563 L17.0833333,31.6668563 L17.0833333,37.9168937 Z M17.0833333,53.7499052 L23.3329167,53.7499052 L23.3329167,47.4998678 L17.0833333,47.4998678 L17.0833333,53.7499052 Z M1.25,53.7499052 L7.49958333,53.7499052 L7.49958333,47.4998678 L1.25,47.4998678 L1.25,53.7499052 Z M32.9166667,69.5833333 L39.1666667,69.5833333 L39.1666667,63.3337126 L32.9166667,63.3337126 L32.9166667,69.5833333 Z M17.0833333,69.5833333 L23.3329167,69.5833333 L23.3329167,63.3337126 L17.0833333,63.3337126 L17.0833333,69.5833333 Z M1.25,69.5833333 L7.49958333,69.5833333 L7.49958333,63.3337126 L1.25,63.3337126 L1.25,69.5833333 Z" id="nodes-brown"></path>
            <path d="M115.066487,91.4911395 L113.421662,85.3942351 L111.698117,91.4911395 L115.066487,91.4911395 Z M111.896573,82.3255944 C112.174163,82.2852176 112.437667,82.255141 112.689155,82.2349525 C112.939401,82.2143521 113.216991,82.2044639 113.521097,82.2044639 C113.785015,82.2044639 114.042303,82.2143521 114.293792,82.2349525 C114.544451,82.255141 114.821627,82.2852176 115.125733,82.3255944 L119.583333,96.8410722 C119.041825,96.9222379 118.513576,96.9622028 117.998584,96.9622028 C117.496436,96.9622028 117.00796,96.9222379 116.532328,96.8410722 L115.739746,93.934351 L111.024443,93.934351 L110.212388,96.8410722 C109.737171,96.9222379 109.281011,96.9622028 108.845154,96.9622028 C108.356678,96.9622028 107.874831,96.9222379 107.399199,96.8410722 L111.896573,82.3255944 Z M101.515117,82.3255944 C102.003593,82.2452527 102.485854,82.2044639 102.961072,82.2044639 C103.436704,82.2044639 103.92518,82.2452527 104.427328,82.3255944 L104.427328,96.8410722 C103.92518,96.9222379 103.442919,96.9622028 102.980959,96.9622028 C102.492069,96.9622028 102.003593,96.9222379 101.515117,96.8410722 L101.515117,82.3255944 Z M86.8939906,82.3255944 C87.3029181,82.2452527 87.6927872,82.2044639 88.0627692,82.2044639 C88.458853,82.2044639 88.8681949,82.2452527 89.291209,82.3255944 L94.7986797,91.5718932 L94.7986797,82.3255944 C95.2743117,82.2452527 95.7300566,82.2044639 96.1659146,82.2044639 C96.5748421,82.2044639 96.9713402,82.2452527 97.3545803,82.3255944 L97.3545803,96.8410722 C96.9315661,96.9222379 96.5487403,96.9622028 96.2056887,96.9622028 C95.8352923,96.9622028 95.4325795,96.9222379 94.9971359,96.8410722 L89.4494768,87.6153739 L89.4494768,96.8410722 C89.0264627,96.9222379 88.5976481,96.9622028 88.1617902,96.9622028 C87.7259323,96.9622028 87.3029181,96.9222379 86.8939906,96.8410722 L86.8939906,82.3255944 Z M73.5406634,82.3255944 C74.1219453,82.258437 74.6667677,82.2015798 75.1755448,82.1541988 C75.6834933,82.1072298 76.248617,82.0833333 76.8696731,82.0833333 C77.5959648,82.0833333 78.3123131,82.1509028 79.019132,82.2852176 C79.7251224,82.4199444 80.362751,82.6589095 80.930775,83.0021127 C81.4983846,83.3453159 81.9578584,83.8092377 82.3079534,84.394702 C82.6572197,84.9805784 82.8328887,85.724254 82.8328887,86.625729 C82.8328887,87.1642244 82.7665985,87.6384464 82.6348468,88.049219 C82.5022665,88.4599917 82.3340551,88.8200873 82.1293842,89.1295058 C81.9247133,89.4393363 81.7034698,89.7046699 81.4656538,89.9267426 C81.2278378,90.1488152 81.0032799,90.327215 80.7919799,90.4615298 L80.4555573,90.6836025 L83.9225335,96.8212958 C83.6577871,96.8476644 83.3806113,96.8744449 83.0901774,96.9020495 C82.7997436,96.9284181 82.5022665,96.9420144 82.1989889,96.9420144 C81.6968408,96.9420144 81.2013218,96.9020495 80.712846,96.8212958 L76.9885811,90.0779498 L77.4637988,89.8356886 C77.6485827,89.7417507 77.8731406,89.6206201 78.1374727,89.472709 C78.4013905,89.3243859 78.6553647,89.139394 78.900224,88.9173213 C79.1442548,88.6952486 79.3526545,88.426207 79.5241803,88.1097843 C79.6957062,87.7933616 79.7818834,87.4200818 79.7818834,86.9891207 C79.7818834,86.1416188 79.5440674,85.5190737 79.0684354,85.1218973 C78.5932177,84.725133 77.9787906,84.5265448 77.2259828,84.5265448 C76.935549,84.5265448 76.6712169,84.5467332 76.4334009,84.5866981 L76.4334009,96.8410722 C76.1959992,96.8682648 75.9577689,96.8913373 75.7203672,96.9119377 C75.4825512,96.9321261 75.2513642,96.9420144 75.0268062,96.9420144 C74.801834,96.9420144 74.5644323,96.9354222 74.3137725,96.9222379 C74.0626985,96.9082296 73.8049954,96.8814491 73.5406634,96.8410722 L73.5406634,82.3255944 Z M63.437212,94.6207575 C65.4839212,94.6207575 66.5076901,92.9517103 66.5076901,89.613616 C66.5076901,87.9453928 66.2599305,86.6932984 65.7648258,85.8585689 C65.269721,85.0246633 64.4999264,84.6068865 63.4570991,84.6068865 C61.3830452,84.6068865 60.3464326,86.2759337 60.3464326,89.613616 C60.3464326,92.9517103 61.3764162,94.6207575 63.437212,94.6207575 L63.437212,94.6207575 Z M63.437212,97.0833333 C62.3674543,97.0833333 61.442292,96.8946334 60.6629682,96.5180574 C59.8840586,96.1414815 59.2435298,95.6198785 58.741796,94.9536605 C58.2396479,94.2874424 57.8663514,93.5000938 57.6223207,92.5916147 C57.3778757,91.6831356 57.2556531,90.6910187 57.2556531,89.613616 C57.2556531,88.5370373 57.3778757,87.5375042 57.6223207,86.6158408 C57.8663514,85.6941774 58.2396479,84.8965286 58.741796,84.2233064 C59.2435298,83.5509083 59.8840586,83.0255972 60.6629682,82.6486092 C61.442292,82.2720333 62.3674543,82.0833333 63.437212,82.0833333 C64.5069697,82.0833333 65.430889,82.2720333 66.2106272,82.6486092 C66.9899511,83.0255972 67.6304799,83.5509083 68.132628,84.2233064 C68.6343618,84.8965286 69.007244,85.6941774 69.251689,86.6158408 C69.496134,87.5375042 69.6183565,88.5370373 69.6183565,89.613616 C69.6183565,90.6910187 69.496134,91.6831356 69.251689,92.5916147 C69.007244,93.5000938 68.6343618,94.2874424 68.132628,94.9536605 C67.6304799,95.6198785 66.9899511,96.1414815 66.2106272,96.5180574 C65.430889,96.8946334 64.5069697,97.0833333 63.437212,97.0833333 L63.437212,97.0833333 Z M46.2013521,82.3255944 L54.2846103,82.3255944 C54.3637442,82.7293629 54.4035183,83.1401356 54.4035183,83.5570884 C54.4035183,84.0012337 54.3637442,84.4256027 54.2846103,84.8289592 L49.0940896,84.8289592 L49.0940896,88.2408031 L53.2148526,88.2408031 C53.2939865,88.6717641 53.3333463,89.0887169 53.3333463,89.4924854 C53.3333463,89.9234465 53.2939865,90.3478154 53.2148526,90.7643562 L49.0940896,90.7643562 L49.0940896,96.8410722 C48.5919415,96.9222379 48.1163095,96.9622028 47.6671936,96.9622028 C47.1787179,96.9622028 46.6898278,96.9222379 46.2013521,96.8410722 L46.2013521,82.3255944 Z M39.1286047,82.3255944 C39.6170804,82.2452527 40.0993414,82.2044639 40.5745591,82.2044639 C41.0501911,82.2044639 41.5386669,82.2452527 42.0408149,82.3255944 L42.0408149,96.8410722 C41.5386669,96.9222379 41.0564058,96.9622028 40.5944462,96.9622028 C40.1055561,96.9622028 39.6170804,96.9222379 39.1286047,96.8410722 L39.1286047,82.3255944 Z M27.974454,82.3255944 C28.4629298,82.2452527 28.9319328,82.2044639 29.3810487,82.2044639 C29.8434227,82.2044639 30.3252694,82.2452527 30.8274175,82.3255944 L30.8274175,94.2977427 L35.7602351,94.2977427 C35.8000092,94.5264075 35.826111,94.7447721 35.839369,94.9536605 C35.8526271,95.1625489 35.8592561,95.3611371 35.8592561,95.549425 C35.8592561,95.7644935 35.8526271,95.976678 35.839369,96.1851544 C35.826111,96.3936308 35.8000092,96.6128194 35.7602351,96.8410722 L27.974454,96.8410722 L27.974454,82.3255944 Z M20.466263,91.4911395 L18.8214381,85.3942351 L17.0978935,91.4911395 L20.466263,91.4911395 Z M17.2963497,82.3255944 C17.5735255,82.2852176 17.8374433,82.255141 18.0889316,82.2349525 C18.339177,82.2143521 18.6167671,82.2044639 18.920459,82.2044639 C19.1847911,82.2044639 19.4420798,82.2143521 19.6935682,82.2349525 C19.9442279,82.255141 20.2214037,82.2852176 20.5255099,82.3255944 L24.9831099,96.8410722 C24.441602,96.9222379 23.9133522,96.9622028 23.3983604,96.9622028 C22.8962123,96.9622028 22.4073222,96.9222379 21.9321045,96.8410722 L21.1395226,93.934351 L16.4242196,93.934351 L15.6121649,96.8410722 C15.1369472,96.9222379 14.680788,96.9622028 14.2449301,96.9622028 C13.7564543,96.9622028 13.2746076,96.9222379 12.7989756,96.8410722 L17.2963497,82.3255944 Z M9.76785735,94.0954464 C9.93938318,94.4724343 10.0810784,94.8597225 10.1937717,95.2564868 C10.3056364,95.6536632 10.3884991,96.0537236 10.4415313,96.4579042 C9.754185,96.7133495 9.13685774,96.8814491 8.58872085,96.9622028 C8.04058397,97.0433685 7.44977278,97.0833333 6.81587297,97.0833333 C5.69308313,97.0833333 4.70908834,96.8983414 3.8638886,96.5283576 C3.01827455,96.1583738 2.30855536,95.6400669 1.7339024,94.9738489 C1.15924944,94.3076309 0.726291735,93.5169862 0.436272217,92.6015029 C0.145424072,91.6868436 0,90.6910187 0,89.613616 C0,88.5370373 0.15205309,87.5375042 0.45615927,86.6158408 C0.759436822,85.6941774 1.19902355,84.8965286 1.77367651,84.2233064 C2.34791515,83.5509083 3.05473415,83.0255972 3.89330487,82.6486092 C4.73187558,82.2720333 5.68645411,82.0833333 6.75621182,82.0833333 C7.39011162,82.0833333 7.9747081,82.1241222 8.50958696,82.2044639 C9.04488012,82.2852176 9.62201896,82.4537291 10.243075,82.7095865 C10.216559,83.112943 10.1370108,83.5068233 10.005259,83.8904034 C9.87350732,84.2735715 9.72808324,84.6608596 9.56940114,85.0510319 C9.10702716,84.8899365 8.69809964,84.775398 8.34096132,84.7078286 C7.98465163,84.6406712 7.56163745,84.6068865 7.07316172,84.6068865 C5.80536211,84.6068865 4.83131085,85.0275474 4.15100792,85.8688691 C3.47029068,86.7101908 3.13055353,87.9585771 3.13055353,89.613616 C3.13055353,92.8977372 4.4977884,94.5395917 7.23184383,94.5395917 C7.71990524,94.5395917 8.14954844,94.506219 8.51953048,94.4386496 C8.88909821,94.3714922 9.30506906,94.2569538 9.76785735,94.0954464 L9.76785735,94.0954464 Z" id="california"></path>
            <path d="M111.868969,108.06672 C111.966775,108.050419 112.078793,108.037879 112.205439,108.029102 C112.331667,108.02116 112.452044,108.016563 112.56657,108.016563 C112.680259,108.016563 112.804815,108.02116 112.939821,108.029102 C113.074409,108.037879 113.186009,108.050419 113.275873,108.06672 L115.552584,113.709385 L117.84058,108.06672 C117.921668,108.050419 118.024072,108.037879 118.146538,108.029102 C118.269005,108.02116 118.386874,108.016563 118.501399,108.016563 C118.607147,108.016563 118.725434,108.02116 118.85626,108.029102 C118.98625,108.037879 119.096596,108.050419 119.186461,108.06672 L119.602764,117.082445 C119.504958,117.099164 119.404644,117.112121 119.302658,117.120062 C119.200672,117.128422 119.096596,117.132602 118.990848,117.132602 C118.884682,117.132602 118.780607,117.128422 118.678621,117.120062 C118.576635,117.112121 118.4805,117.099164 118.391054,117.082445 L118.109756,110.073419 L115.95593,115.214513 C115.79292,115.239174 115.625312,115.251713 115.45436,115.251713 C115.299291,115.251713 115.144223,115.239174 114.989154,115.214513 L112.908891,110.035383 L112.627176,117.082445 C112.537729,117.099164 112.444103,117.112121 112.346297,117.120062 C112.248072,117.128422 112.154446,117.132602 112.064581,117.132602 C111.958416,117.132602 111.856848,117.128422 111.758624,117.120062 C111.660817,117.112121 111.566773,117.099164 111.477326,117.082445 L111.868969,108.06672 Z M102.1895,108.06672 C102.38553,108.041641 102.597025,108.029102 102.825658,108.029102 C103.046349,108.029102 103.249903,108.041641 103.437573,108.06672 L103.437573,113.182736 C103.437573,113.701025 103.470176,114.144079 103.535798,114.511897 C103.601002,114.880133 103.707167,115.178986 103.853877,115.408454 C104.000586,115.63834 104.194527,115.808038 104.43528,115.916294 C104.675616,116.024967 104.971124,116.079304 105.322224,116.079304 C105.672905,116.079304 105.966741,116.024967 106.203315,115.916294 C106.439889,115.808038 106.63174,115.63834 106.778449,115.408454 C106.925158,115.178986 107.031324,114.880133 107.096528,114.511897 C107.161732,114.144079 107.194334,113.701025 107.194334,113.182736 L107.194334,108.06672 C107.398306,108.041641 107.606458,108.029102 107.818789,108.029102 C108.046586,108.029102 108.258917,108.041641 108.454948,108.06672 L108.454948,113.408443 C108.454948,114.010745 108.399775,114.549933 108.289847,115.026007 C108.179502,115.502498 107.999773,115.903755 107.751077,116.229775 C107.502382,116.556214 107.178033,116.804491 106.778449,116.975861 C106.378447,117.147231 105.893178,117.233334 105.322224,117.233334 C104.751269,117.233334 104.265582,117.147231 103.865998,116.975861 C103.465996,116.804491 103.142065,116.556214 102.892952,116.229775 C102.644257,115.903755 102.464945,115.502498 102.3546,115.026007 C102.244672,114.549933 102.1895,114.010745 102.1895,113.408443 L102.1895,108.06672 Z M93.8931101,108.054598 C94.0728394,108.037879 94.2358497,108.02116 94.382559,108.004441 C94.5296863,107.987722 94.6743057,107.972675 94.8172532,107.960136 C94.9597828,107.947597 95.1085819,107.937147 95.2636507,107.928788 C95.4187195,107.920428 95.5900893,107.916667 95.7777602,107.916667 C96.1936455,107.916667 96.6053511,107.958046 97.0137128,108.041641 C97.4216566,108.125654 97.7848771,108.271528 98.1025382,108.480515 C98.4206173,108.689503 98.6797619,108.971636 98.879972,109.327333 C99.0793462,109.682194 99.1796603,110.131517 99.1796603,110.674885 C99.1796603,111.001324 99.1265774,111.297668 99.0204117,111.565172 C98.914246,111.833094 98.780076,112.07134 98.6166477,112.27991 C98.4532194,112.488897 98.2680564,112.671134 98.0599047,112.825785 C97.8517531,112.980436 97.6498711,113.107918 97.4542587,113.208233 L97.3071314,113.28305 L99.8647216,117.082445 C99.6444487,117.107523 99.3957534,117.120062 99.1182179,117.120062 C98.898363,117.120062 98.6776721,117.107523 98.4573991,117.082445 L95.6431722,112.906872 L95.6431722,112.856715 L95.7409784,112.831637 C95.9612513,112.773538 96.1936455,112.693705 96.438579,112.593391 C96.6830945,112.493077 96.909637,112.361415 97.1177887,112.198822 C97.3255223,112.035394 97.498982,111.838946 97.6377498,111.609477 C97.7760996,111.379591 97.8454835,111.101638 97.8454835,110.775199 C97.8454835,110.173315 97.6724417,109.726499 97.3255223,109.433917 C96.9790209,109.140916 96.5121426,108.995043 95.9248875,108.995043 C95.7857017,108.995043 95.6573833,108.998804 95.5390964,109.007164 C95.4203914,109.015941 95.2883113,109.028481 95.141184,109.044782 L95.141184,117.082445 C95.0517373,117.090804 94.9514233,117.099164 94.8419138,117.107523 C94.7315683,117.115883 94.6274925,117.120062 94.5296863,117.120062 C94.4314621,117.120062 94.3252964,117.117972 94.2116072,117.114211 C94.096664,117.109613 93.9913343,117.099164 93.8931101,117.082445 L93.8931101,108.054598 Z M87.2360193,116.129461 C87.644381,116.129461 87.9971521,116.048374 88.2951684,115.884946 C88.5927667,115.721935 88.8393721,115.485779 89.0349845,115.176896 C89.2310148,114.867594 89.3777241,114.495596 89.4759483,114.060484 C89.5733365,113.626208 89.6222396,113.132579 89.6222396,112.58127 C89.6222396,112.037484 89.5733365,111.546363 89.4759483,111.107489 C89.3777241,110.669033 89.2310148,110.297035 89.0349845,109.991495 C88.8393721,109.686374 88.5927667,109.452308 88.2951684,109.289715 C87.9971521,109.126287 87.644381,109.044782 87.2360193,109.044782 C86.8284935,109.044782 86.4757224,109.126287 86.1777061,109.289715 C85.8796898,109.452308 85.6330844,109.686374 85.437472,109.991495 C85.2418597,110.297035 85.0947324,110.669033 84.9969262,111.107489 C84.89912,111.546363 84.8497989,112.037484 84.8497989,112.58127 C84.8497989,113.132579 84.89912,113.626208 84.9969262,114.060484 C85.0947324,114.495596 85.2418597,114.867594 85.437472,115.176896 C85.6330844,115.485779 85.8796898,115.721935 86.1777061,115.884946 C86.4757224,116.048374 86.8284935,116.129461 87.2360193,116.129461 L87.2360193,116.129461 Z M87.2360193,117.233334 C86.600279,117.233334 86.0493877,117.117972 85.5841813,116.888086 C85.1193929,116.658618 84.7340198,116.336359 84.428062,115.922563 C84.1221041,115.509186 83.8934717,115.018065 83.7425827,114.449619 C83.5916936,113.880755 83.5164581,113.257972 83.5164581,112.58127 C83.5164581,111.90415 83.5916936,111.280949 83.7425827,110.712503 C83.8934717,110.144474 84.1221041,109.652936 84.428062,109.239558 C84.7340198,108.825345 85.1193929,108.501414 85.5841813,108.267348 C86.0493877,108.0337 86.600279,107.916667 87.2360193,107.916667 C87.8725955,107.916667 88.4230688,108.0337 88.8886932,108.267348 C89.3534816,108.501414 89.7388547,108.825345 90.0448125,109.239558 C90.3507704,109.652936 90.5773129,110.144474 90.7240222,110.712503 C90.8707315,111.280949 90.9438772,111.90415 90.9438772,112.58127 C90.9438772,113.257972 90.8707315,113.880755 90.7240222,114.449619 C90.5773129,115.018065 90.3507704,115.509186 90.0448125,115.922563 C89.7388547,116.336359 89.3534816,116.658618 88.8886932,116.888086 C88.4230688,117.117972 87.8725955,117.233334 87.2360193,117.233334 L87.2360193,117.233334 Z M76.577652,108.06672 L81.1787229,108.06672 C81.1950239,108.150315 81.2075632,108.240597 81.2155047,108.336732 C81.2238642,108.432448 81.227626,108.52691 81.227626,108.618447 C81.227626,108.71082 81.2238642,108.806954 81.2155047,108.907268 C81.2075632,109.007164 81.1950239,109.099536 81.1787229,109.182714 L77.8261439,109.182714 L77.8261439,111.828496 L80.6282495,111.828496 C80.6445506,111.920869 80.6566719,112.014495 80.6650314,112.111048 C80.6729729,112.206764 80.6771526,112.301226 80.6771526,112.393181 C80.6771526,112.484717 80.6729729,112.57918 80.6650314,112.674896 C80.6566719,112.771448 80.6445506,112.865075 80.6282495,112.957029 L77.8261439,112.957029 L77.8261439,117.082445 C77.7279197,117.099164 77.6280237,117.112121 77.5264557,117.120062 C77.4240518,117.128422 77.3162142,117.132602 77.2021069,117.132602 C77.0959412,117.132602 76.9876857,117.128422 76.8777582,117.120062 C76.7678307,117.112121 76.6675167,117.099164 76.577652,117.082445 L76.577652,108.06672 Z M65.4177145,108.06672 C65.5075792,108.050419 65.6037135,108.037879 65.7056994,108.029102 C65.8072674,108.02116 65.915523,108.016563 66.0296302,108.016563 C66.1357959,108.016563 66.2419616,108.02116 66.3481273,108.029102 C66.453875,108.037879 66.5558609,108.050419 66.6536671,108.06672 L66.6536671,115.953912 L70.1044703,115.953912 C70.1207713,116.046284 70.1312207,116.142 70.1349825,116.242732 C70.1391622,116.343046 70.1412521,116.435001 70.1412521,116.518596 C70.1412521,116.718806 70.1291308,116.906895 70.1044703,117.082445 L65.4177145,117.082445 L65.4177145,108.06672 Z M58.0881016,113.884934 L60.7677406,113.884934 L59.4218605,109.283028 L58.0881016,113.884934 Z M61.0983589,115.000928 L57.7579012,115.000928 L57.1581068,117.082445 C57.0523591,117.099164 56.9461934,117.112121 56.8400277,117.120062 C56.733862,117.128422 56.6276963,117.132602 56.5219486,117.132602 C56.4074234,117.132602 56.2954061,117.128422 56.1850606,117.120062 C56.0751331,117.112121 55.9748191,117.099164 55.8857904,117.082445 L58.7489204,108.06672 C58.8546681,108.050419 58.9687753,108.037879 59.0912421,108.029102 C59.2137088,108.02116 59.3403553,108.016563 59.4711815,108.016563 C59.5848708,108.016563 59.7031578,108.02116 59.8256245,108.029102 C59.9480912,108.037879 60.0659602,108.050419 60.1804854,108.06672 L63.0319121,117.082445 C62.9341059,117.099164 62.8237605,117.112121 62.7012938,117.120062 C62.578827,117.128422 62.4605401,117.132602 62.3468508,117.132602 C62.2406851,117.132602 62.1324295,117.128422 62.0220841,117.120062 C61.9121566,117.112121 61.8080808,117.099164 61.7102746,117.082445 L61.0983589,115.000928 Z M53.7198429,115.765823 C53.8991543,116.125281 54.0132615,116.472201 54.0621646,116.806581 C53.7198429,116.95747 53.3687438,117.065726 53.0101211,117.132602 C52.6506624,117.199896 52.2636174,117.233334 51.8473141,117.233334 C51.2111559,117.233334 50.6381119,117.12675 50.1281822,116.913165 C49.6178345,116.699997 49.187738,116.395293 48.8370568,115.998217 C48.4859577,115.600723 48.2171996,115.118379 48.0295288,114.549933 C47.8414399,113.981069 47.7482315,113.341567 47.7482315,112.631009 C47.7482315,111.912091 47.8414399,111.262558 48.0295288,110.681155 C48.2171996,110.100169 48.4859577,109.605286 48.8370568,109.195253 C49.187738,108.786055 49.6161626,108.470484 50.1219125,108.248957 C50.6276625,108.027012 51.1948548,107.916667 51.8230716,107.916667 C52.28786,107.916667 52.6874442,107.950105 53.0222424,108.016563 C53.3566225,108.083857 53.6542208,108.162854 53.9154553,108.254809 C53.8991543,108.447077 53.8644624,108.624717 53.8117975,108.788145 C53.7582967,108.950737 53.6951824,109.124197 53.6220368,109.308524 C53.49957,109.266309 53.3808651,109.228691 53.2667578,109.195253 C53.1522326,109.162233 53.0301839,109.132974 52.8997756,109.107478 C52.7689494,109.082817 52.624748,109.064009 52.4654994,109.051051 C52.3062509,109.038512 52.1248496,109.03266 51.9208777,109.03266 C51.0314265,109.03266 50.3400956,109.341962 49.8464669,109.960147 C49.3532562,110.579169 49.1062328,111.469456 49.1062328,112.631009 C49.1062328,113.224952 49.1756167,113.738643 49.3143845,114.173337 C49.4531522,114.608031 49.6487646,114.967908 49.9016396,115.251713 C50.1545146,115.535936 50.4583826,115.749522 50.8136615,115.891633 C51.1681044,116.033745 51.5660168,116.104383 52.0065627,116.104383 C52.3493023,116.104383 52.6590219,116.075124 52.9365574,116.017026 C53.213675,115.958509 53.4749095,115.874914 53.7198429,115.765823 L53.7198429,115.765823 Z M43.5998277,108.06672 C43.6976339,108.050419 43.8000378,108.037879 43.9057856,108.029102 C44.0115333,108.02116 44.117699,108.016563 44.2238647,108.016563 C44.3300304,108.016563 44.4361961,108.02116 44.5423618,108.029102 C44.6481095,108.037879 44.7500954,108.050419 44.8479016,108.06672 L44.8479016,117.082445 C44.7500954,117.099164 44.6501994,117.112121 44.5486314,117.120062 C44.4458095,117.128422 44.3383899,117.132602 44.2238647,117.132602 C44.117699,117.132602 44.0094434,117.128422 43.8999339,117.120062 C43.7895885,117.112121 43.6896924,117.099164 43.5998277,117.082445 L43.5998277,108.06672 Z M34.1774131,108.06672 C34.2672777,108.050419 34.3629941,108.037879 34.465398,108.029102 C34.566966,108.02116 34.6626823,108.016563 34.7525469,108.016563 C34.8424116,108.016563 34.9381279,108.02116 35.0401139,108.029102 C35.1420998,108.037879 35.2378161,108.050419 35.3276808,108.06672 L39.1580054,114.837918 L39.1580054,108.06672 C39.2558116,108.050419 39.3577975,108.037879 39.4635453,108.029102 C39.569711,108.02116 39.6758767,108.016563 39.7820424,108.016563 C39.8714891,108.016563 39.9655335,108.02116 40.0633397,108.029102 C40.1611459,108.037879 40.2551903,108.050419 40.3450549,108.06672 L40.3450549,117.082445 C40.2551903,117.099164 40.159474,117.112121 40.05707,117.120062 C39.9550841,117.128422 39.8593678,117.132602 39.7699211,117.132602 C39.6800564,117.132602 39.5843401,117.128422 39.4819362,117.120062 C39.3799502,117.112121 39.2842339,117.099164 39.1947872,117.082445 L35.3523413,110.348864 L35.3523413,117.082445 C35.2624767,117.099164 35.1663424,117.112121 35.0647744,117.120062 C34.9627885,117.128422 34.8628924,117.132602 34.7646682,117.132602 C34.6585025,117.132602 34.5544267,117.128422 34.4528587,117.120062 C34.3508728,117.112121 34.2589182,117.099164 34.1774131,117.082445 L34.1774131,108.06672 Z M24.6814348,108.06672 C24.779659,108.050419 24.8816449,108.037879 24.9878106,108.029102 C25.0935583,108.02116 25.199724,108.016563 25.3054718,108.016563 C25.4116375,108.016563 25.5178031,108.02116 25.6239688,108.029102 C25.7297166,108.037879 25.8317025,108.050419 25.9299267,108.06672 L25.9299267,111.778339 L29.6745664,111.778339 L29.6745664,108.06672 C29.7635951,108.050419 29.8618193,108.037879 29.967985,108.029102 C30.0741507,108.02116 30.1803164,108.016563 30.2860641,108.016563 C30.3918118,108.016563 30.5000674,108.02116 30.6104128,108.029102 C30.7207583,108.037879 30.8248341,108.050419 30.9226403,108.06672 L30.9226403,117.082445 C30.8323577,117.099164 30.7349694,117.112121 30.6288037,117.120062 C30.522638,117.128422 30.4122926,117.132602 30.2986033,117.132602 C30.1924376,117.132602 30.0841821,117.128422 29.9738366,117.120062 C29.8639091,117.112121 29.7635951,117.099164 29.6745664,117.082445 L29.6745664,112.906872 L25.9299267,112.906872 L25.9299267,117.082445 C25.8317025,117.099164 25.7318064,117.112121 25.6302385,117.120062 C25.5278346,117.128422 25.419997,117.132602 25.3054718,117.132602 C25.199724,117.132602 25.0914685,117.128422 24.981541,117.120062 C24.8711955,117.112121 24.7712995,117.099164 24.6814348,117.082445 L24.6814348,108.06672 Z M21.6348137,115.765823 C21.814125,116.125281 21.9282322,116.472201 21.9775533,116.806581 C21.6348137,116.95747 21.2837145,117.065726 20.9250918,117.132602 C20.5660511,117.199896 20.1785881,117.233334 19.7627028,117.233334 C19.1261266,117.233334 18.5530826,117.12675 18.0431529,116.913165 C17.5332231,116.699997 17.1027087,116.395293 16.7524455,115.998217 C16.4013463,115.600723 16.1321703,115.118379 15.9444995,114.549933 C15.7568286,113.981069 15.6632022,113.341567 15.6632022,112.631009 C15.6632022,111.912091 15.7568286,111.262558 15.9444995,110.681155 C16.1321703,110.100169 16.4013463,109.605286 16.7524455,109.195253 C17.1027087,108.786055 17.5311333,108.470484 18.0373012,108.248957 C18.5430512,108.027012 19.1098256,107.916667 19.7380423,107.916667 C20.2028307,107.916667 20.6024149,107.950105 20.9372131,108.016563 C21.2715932,108.083857 21.5691916,108.162854 21.830426,108.254809 C21.814125,108.447077 21.7794331,108.624717 21.7267682,108.788145 C21.6732674,108.950737 21.6105711,109.124197 21.5370075,109.308524 C21.4145407,109.266309 21.2962538,109.228691 21.1817286,109.195253 C21.0676213,109.162233 20.9455726,109.132974 20.8147463,109.107478 C20.6843381,109.082817 20.5397187,109.064009 20.3804701,109.051051 C20.2212216,109.038512 20.0398203,109.03266 19.8362664,109.03266 C18.9468152,109.03266 18.2550663,109.341962 17.7618556,109.960147 C17.2682269,110.579169 17.0212035,111.469456 17.0212035,112.631009 C17.0212035,113.224952 17.0905874,113.738643 17.2293552,114.173337 C17.368123,114.608031 17.5637353,114.967908 17.8166103,115.251713 C18.0694853,115.535936 18.3733533,115.749522 18.7286322,115.891633 C19.0834931,116.033745 19.4809875,116.104383 19.9219513,116.104383 C20.264273,116.104383 20.5739926,116.075124 20.8515282,116.017026 C21.1286457,115.958509 21.3898802,115.874914 21.6348137,115.765823 L21.6348137,115.765823 Z M8.35783184,108.06672 L13.1912969,108.06672 C13.2159574,108.23391 13.2280787,108.417819 13.2280787,108.618447 C13.2280787,108.71082 13.2259888,108.806954 13.2218091,108.907268 C13.2180473,109.007164 13.2075979,109.099536 13.1912969,109.182714 L9.60590575,109.182714 L9.60590575,111.766218 L12.4694538,111.766218 C12.4857548,111.849813 12.4978761,111.939678 12.5058176,112.035394 C12.5141771,112.131946 12.5183569,112.225573 12.5183569,112.317527 C12.5183569,112.4099 12.5141771,112.505616 12.5058176,112.60593 C12.4978761,112.706662 12.4857548,112.798199 12.4694538,112.882212 L9.60590575,112.882212 L9.60590575,115.966451 L13.2891031,115.966451 C13.3137636,116.134059 13.3258849,116.31755 13.3258849,116.518596 C13.3258849,116.610133 13.323795,116.706267 13.3200333,116.806581 C13.3154355,116.906895 13.3054041,116.999267 13.2891031,117.082445 L8.35783184,117.082445 L8.35783184,108.06672 Z M2.33731725,109.182714 L0.0493210721,109.182714 C0.0326020646,109.099536 0.020062809,109.007164 0.0125392556,108.907268 C0.00417975187,108.806954 0,108.71082 0,108.618447 C0,108.52691 0.00417975187,108.432448 0.0125392556,108.336732 C0.020062809,108.240597 0.0326020646,108.150315 0.0493210721,108.06672 L5.8738053,108.06672 C5.89010634,108.150315 5.90264559,108.23809 5.91058712,108.330044 C5.91852865,108.422417 5.9227084,108.513953 5.9227084,108.605908 C5.9227084,108.69828 5.91852865,108.796086 5.91058712,108.90058 C5.90264559,109.005492 5.89010634,109.099536 5.8738053,109.182714 L3.58580913,109.182714 L3.58580913,117.082445 C3.3977203,117.107523 3.1937484,117.120062 2.97389346,117.120062 C2.74526103,117.120062 2.53334761,117.107523 2.33731725,117.082445 L2.33731725,109.182714 Z" id="technical-forum"></path>
            <path d="M112.083333,6.24962076 L118.333333,6.24962076 L118.333333,0 L112.083333,0 L112.083333,6.24962076 Z M96.25,6.24962076 L102.5,6.24962076 L102.5,0 L96.25,0 L96.25,6.24962076 Z M96.25,22.0834656 L102.5,22.0834656 L102.5,15.8334281 L96.25,15.8334281 L96.25,22.0834656 Z M112.083333,37.9168937 L118.333333,37.9168937 L118.333333,31.6668563 L112.083333,31.6668563 L112.083333,37.9168937 Z M112.083333,53.7499052 L118.333333,53.7499052 L118.333333,47.4998678 L112.083333,47.4998678 L112.083333,53.7499052 Z M96.25,53.7499052 L102.5,53.7499052 L102.5,47.4998678 L96.25,47.4998678 L96.25,53.7499052 Z M112.083333,69.5833333 L118.333333,69.5833333 L118.333333,63.3337126 L112.083333,63.3337126 L112.083333,69.5833333 Z M96.25,69.5833333 L102.5,69.5833333 L102.5,63.3337126 L96.25,63.3337126 L96.25,69.5833333 Z" id="nodes-green"></path>
            <path d="M48.75,6.24962076 L55.0000687,6.24962076 L55.0000687,0 L48.75,0 L48.75,6.24962076 Z M64.5835073,22.0834656 L70.833576,22.0834656 L70.833576,15.8334281 L64.5835073,15.8334281 L64.5835073,22.0834656 Z M64.5835073,37.9168937 L70.833576,37.9168937 L70.833576,31.6668563 L64.5835073,31.6668563 L64.5835073,37.9168937 Z M80.4170147,53.7499052 L86.6666667,53.7499052 L86.6666667,47.4998678 L80.4170147,47.4998678 L80.4170147,53.7499052 Z M48.75,53.7499052 L55.0000687,53.7499052 L55.0000687,47.4998678 L48.75,47.4998678 L48.75,53.7499052 Z M80.4170147,69.5833333 L86.6666667,69.5833333 L86.6666667,63.3337126 L80.4170147,63.3337126 L80.4170147,69.5833333 Z M64.5835073,69.5833333 L70.833576,69.5833333 L70.833576,63.3337126 L64.5835073,63.3337126 L64.5835073,69.5833333 Z M48.75,69.5833333 L55.0000687,69.5833333 L55.0000687,63.3337126 L48.75,63.3337126 L48.75,69.5833333 Z" id="nodes-yellow"></path>
        </g>
    </g>
</svg>