<?xml version="1.0" encoding="UTF-8"?>
<svg width="200px" height="200px" viewBox="0 0 200 200" version="1.1" xmlns="http://www.w3.org/2000/svg" xmlns:xlink="http://www.w3.org/1999/xlink">
    <!-- Generator: Sketch 53 (72520) - https://sketchapp.com -->
    <title>logo/car-talk</title>
    <desc>Created with Sketch.</desc>
    <g stroke="none" stroke-width="1" fill="none" fill-rule="evenodd">
        <path d="M69.2721895,65.4933104 C66.5892474,66.595233 64.1500198,68.4324651 62.5960797,70.9071042 C60.9838149,73.4254869 60.4130648,76.5562803 60.921324,79.493352 C61.4066699,82.52416 63.1584977,85.3029215 65.6081405,87.1380705 C68.6097861,89.4564824 72.4446435,90.4771669 76.1940967,90.5834014 C79.6540088,90.7063001 83.124336,90.1688785 86.4134397,89.0877862 C85.5593976,85.5966286 84.6907743,82.1054711 83.7950716,78.6247287 C81.8266086,79.3558721 79.6998354,79.6620774 77.6043077,79.4850199 C76.5961214,79.3662872 75.5504406,79.068414 74.7943008,78.3581009 C74.2485471,77.8456756 73.9756702,76.9374747 74.4193555,76.2771544 C75.1463328,75.0335857 76.6815256,74.6086477 78.0271627,74.491998 C79.9248026,74.4357562 81.8599371,74.6107307 83.6638407,75.2335566 C84.6428646,72.021525 85.7093757,68.8282407 86.5925802,65.5912127 C83.824234,64.4455465 80.8267544,63.916457 77.833441,64.0122763 C74.9192826,63.916457 71.9738788,64.3788895 69.2721895,65.4933104 L69.2721895,65.4933104 Z M126.703397,69.8197627 C125.249443,70.6529746 124.295415,72.1069292 123.589268,73.5858802 C123.630929,72.1090122 123.614265,70.6321443 123.601766,69.1552763 C119.818985,69.6906149 116.017456,70.1343002 112.245089,70.7321297 C112.230508,77.1186983 112.28675,83.50735 112.203429,89.8939186 C116.004958,89.8939186 119.80857,89.8960016 123.612182,89.8918356 C123.616348,87.1151572 123.608015,84.3384788 123.616348,81.5618004 C123.649676,80.0036943 123.978795,78.3018591 125.201533,77.2207668 C127.249151,79.3475399 130.836128,79.772478 133.246193,78.0227331 C135.839565,76.1334253 135.660425,71.6757421 133.019143,69.909333 C131.179828,68.6491001 128.596871,68.7032589 126.703397,69.8197627 L126.703397,69.8197627 Z M89.8920991,70.5009134 C89.6254713,70.6363103 89.3130169,70.7279636 89.1192951,70.965429 C88.7276855,73.2109349 88.3923178,75.4689389 88.0090403,77.7165278 C89.6983773,76.8666517 91.5960172,76.5604464 93.4540796,76.3271471 C94.2477139,76.1896671 94.9871894,76.5583634 95.7120837,76.8187421 C96.8077572,77.2895067 98.0471598,77.9206647 98.3804445,79.1746485 C95.9016393,78.5664039 93.2332785,78.4539203 90.8127981,79.3579551 C89.6921282,79.7787271 88.6568625,80.476542 87.9527986,81.4555659 C86.7196451,83.1428198 86.6571542,85.5487189 87.6736726,87.3526225 C88.5589602,88.8357396 90.1983044,89.7668538 91.8918074,89.9793228 C94.1518945,90.2938603 96.443227,89.5585508 98.3596142,88.3899713 C98.3491991,88.8898983 98.34295,89.3919085 98.345033,89.8939186 C102.144479,89.8960016 105.943925,89.8939186 109.745454,89.8939186 C109.720457,85.7216104 109.826692,81.5472192 109.666299,77.376994 C109.59131,75.3731195 108.912242,73.3421657 107.43954,71.9319547 C105.531485,70.0301487 102.738142,69.4427344 100.142688,69.2844241 C96.6931906,69.0844533 93.1603724,69.3073375 89.8920991,70.5009134 L89.8920991,70.5009134 Z M51.8893078,90.7771231 C51.266482,94.4682515 50.6124107,98.1531308 50,101.846342 C52.1434374,101.892169 54.2868748,101.852591 56.4282292,101.871339 C56.4303122,107.541345 56.4303122,113.211351 56.4282292,118.881358 C60.5047181,119.016755 64.587456,118.912603 68.6639448,118.948015 C68.6618618,113.238431 68.6556127,107.528847 68.7222697,101.821346 C70.4116066,101.792183 72.1009436,101.819263 73.7923636,101.808848 C74.450601,98.1260514 75.1005062,94.4432552 75.7524944,90.7604589 C67.7994876,90.7979534 59.8423147,90.7771231 51.8893078,90.7771231 L51.8893078,90.7771231 Z M98.4054409,90.7271304 C98.41169,100.069518 98.3971088,109.411906 98.413773,118.754293 C102.192389,118.716799 105.971004,118.743878 109.751703,118.741795 C109.772533,109.405656 109.682963,100.065352 109.801696,90.7292134 C106.004333,90.7250474 102.204887,90.7292134 98.4054409,90.7271304 L98.4054409,90.7271304 Z M112.153436,90.7271304 C112.155519,100.065352 112.147187,109.403573 112.159685,118.743878 C115.886225,118.73138 119.612765,118.75221 123.339305,118.733463 C123.345554,115.881795 123.34972,113.028045 123.335139,110.176377 C126.084738,114.648642 128.817672,119.129238 131.586019,123.591088 C130.813215,125.128364 130.152894,126.84478 130.43202,128.596608 C130.606995,129.969324 131.588102,131.214976 132.904576,131.658661 C134.685567,132.3044 136.65403,132.027357 138.391276,131.377452 C137.391422,129.600628 136.418647,127.811306 135.408378,126.040731 C137.408086,124.336812 139.472369,122.714132 141.469994,121.008131 C143.042681,122.414176 144.682026,123.745232 146.265128,125.140862 C147.183744,123.57234 147.85448,121.74969 147.671173,119.910375 C147.535776,118.285611 146.277626,116.887899 144.723686,116.467127 C143.0281,115.985947 141.203366,116.229661 139.557773,116.779581 C136.235341,113.780019 132.904576,110.782539 129.657133,107.705904 C133.729456,106.497747 137.074802,103.035752 137.949674,98.8509457 C134.443935,98.8509457 130.94028,98.8509457 127.434541,98.8509457 C127.128335,101.21935 125.347345,103.07533 123.39763,104.291819 C123.395546,99.7695617 123.395546,95.2493876 123.39763,90.7292134 C119.650259,90.7250474 115.902889,90.7271304 112.153436,90.7271304 L112.153436,90.7271304 Z M78.4937613,98.732213 C77.5793114,98.9905087 76.6169517,99.1779813 75.8191514,99.7258181 C75.4067115,102.000486 75.0921741,104.295985 74.6922324,106.574819 C76.358656,105.685366 78.262545,105.395825 80.1143583,105.154193 C80.9184077,104.995883 81.6599663,105.441651 82.3952757,105.697864 C83.4409565,106.170712 84.6324494,106.80187 84.9094924,108.022525 C82.6619035,107.445526 80.2476722,107.318461 78.0104985,108.010027 C76.6669444,108.434965 75.3754661,109.20152 74.5797488,110.390929 C73.3840898,112.17192 73.3611765,114.677804 74.5464203,116.467127 C75.3213073,117.698197 76.6794426,118.458503 78.0709063,118.770957 C80.4309788,119.216726 82.8681234,118.529326 84.8719978,117.275342 C84.8699148,117.76902 84.8678318,118.260615 84.8719978,118.754293 C88.6152019,118.716799 92.3604891,118.760542 96.1057762,118.73138 C96.1120253,115.294381 96.1057762,111.857382 96.1078593,108.420383 C96.1286896,107.066414 96.0661987,105.704113 95.807903,104.37514 C95.3621347,102.117136 93.7415377,100.150756 91.64601,99.2196419 C89.4838253,98.2218708 87.0508468,98.026066 84.7011894,98.0718926 C82.6160768,98.0323151 80.512217,98.1822932 78.4937613,98.732213 L78.4937613,98.732213 Z M142.005333,124.055603 C144.667444,124.997133 147.329556,125.93033 150,126.846863 C149.129294,129.577715 148.141938,132.273155 147.279563,135.008173 C144.590372,134.104138 141.917845,133.145944 139.241152,132.210664 C140.157685,129.49231 141.059637,126.765625 142.005333,124.055603 Z M95.0496803,82.5512394 C96.0474514,81.9659081 97.2514425,82.1887923 98.3075385,82.4616691 C98.3866936,83.4052815 98.3242027,84.355143 98.3512821,85.3029215 C97.5951424,85.8257619 96.6182015,86.0049024 95.7308309,85.7486898 C94.818464,85.5487189 94.0789885,84.6051065 94.256046,83.6573281 C94.2727102,83.1678162 94.6872331,82.8199502 95.0496803,82.5512394 Z M80.9559023,113.415488 C80.5247151,112.455212 81.220447,111.353289 82.2098861,111.157484 C83.0889245,110.878358 84.0221218,111.076246 84.8740809,111.359538 C84.8678318,112.301068 84.8615827,113.242597 84.8719978,114.186209 C83.6742558,115.077746 81.5912263,114.898605 80.9559023,113.415488 Z M143.932135,127.898793 C143.200992,128.223745 142.696898,129.063206 142.873956,129.865173 C143.019768,130.852529 144.136272,131.619084 145.100714,131.260803 C146.033912,130.98376 146.650488,129.844342 146.235966,128.931976 C145.936009,128.021692 144.813256,127.498851 143.932135,127.898793 Z" fill="#435E74" fill-rule="nonzero"></path>
    </g>
</svg>
