<?xml version="1.0" encoding="UTF-8"?>
<svg width="200px" height="200px" viewBox="0 0 200 200" version="1.1" xmlns="http://www.w3.org/2000/svg" xmlns:xlink="http://www.w3.org/1999/xlink">
    <!-- Generator: Sketch 53 (72520) - https://sketchapp.com -->
    <title>logo/cherriots</title>
    <desc>Created with Sketch.</desc>
    <g stroke="none" stroke-width="1" fill="none" fill-rule="evenodd">
        <path d="M51.7025805,80 C30.4117577,80 11.3496269,93.5124473 6.25810788,113.953882 C2.3651121,129.584789 7.76688425,144.844114 18.8678547,155.872932 L36.999226,140.608797 C23.0550699,128.723776 21.226821,107.803734 32.9803653,93.6804008 C43.4195425,81.1335865 61.0875383,78.1472996 74.873361,85.7392827 L75.1523484,85.8539241 C74.3626859,85.3905485 73.5638041,84.9544304 72.7597113,84.5335443 C70.0147324,83.299346 67.1166311,82.285211 64.0814412,81.5292194 C59.9278969,80.4950422 55.7747535,80 51.7025805,80" fill="#435E74"></path>
        <path d="M53.8502619,89.8349852 C59.0985108,83.5265042 67.9796079,82.0269473 74.9085952,85.8421793 L75.0488906,85.8995 C63.8689539,79.3436983 49.667456,81.2164409 41.5639961,90.9505338 C32.4892914,101.855492 34.5075404,118.494521 46.0682788,128.115977 C47.0651775,128.945323 48.1009581,129.693698 49.1664011,130.365112 L64.2581733,117.659563 C59.1654518,116.515555 56.0240383,113.556124 56.0240383,113.556124 C48.8733843,107.605998 47.8981311,96.983635 53.8502619,89.8349852" fill="#435E74"></path>
        <path d="M57.0143632,100.334409 L57.0143632,100.273481 C57.0143632,94.1349578 61.6421058,89.1079747 68.273667,89.1079747 C72.3442366,89.1079747 74.7817682,90.4656329 76.7855868,92.4377848 L73.7624222,95.9227215 C72.0985193,94.4119409 70.4033505,93.4867932 68.2407978,93.4867932 C64.6007345,93.4867932 61.9800172,96.5099578 61.9800172,100.210549 L61.9800172,100.273481 C61.9800172,103.974473 64.5398062,107.058565 68.2407978,107.058565 C70.7095952,107.058565 72.2203758,106.070485 73.9175488,104.528439 L76.9387091,107.582869 C74.7188357,109.957869 72.2516416,111.438987 68.0892788,111.438987 C61.7347007,111.438987 57.0143632,106.533861 57.0143632,100.334409" fill="#435E74"></path>
        <polygon fill="#435E74" points="79.7580847 92.5905063 83.0838864 92.5905063 83.0838864 98.5718987 89.2171986 98.5718987 89.2171986 92.5905063 92.5430003 92.5905063 92.5430003 107.707932 89.2171986 107.707932 89.2171986 101.639557 83.0838864 101.639557 83.0838864 107.707932 79.7580847 107.707932"></polygon>
        <polygon fill="#435E74" points="96.7091311 92.5905063 108.112739 92.5905063 108.112739 95.549135 100.012886 95.549135 100.012886 98.6143882 107.13949 98.6143882 107.13949 101.575021 100.012886 101.575021 100.012886 104.749304 108.219764 104.749304 108.219764 107.707932 96.7091311 107.707932"></polygon>
        <path d="M111.717488,92.5906667 L118.628036,92.5906667 C120.548479,92.5906667 122.040821,93.1298017 123.034112,94.1254979 C123.874281,94.9656667 124.328838,96.1529662 124.328838,97.5803713 L124.328838,97.6228608 C124.328838,100.062397 123.010061,101.595224 121.089618,102.308325 L124.782994,107.708093 L120.89561,107.708093 L117.654787,102.869506 L117.612298,102.869506 L115.043289,102.869506 L115.043289,107.708093 L111.717488,107.708093 L111.717488,92.5906667 Z M118.411981,99.9333249 C120.031391,99.9333249 120.960547,99.0707089 120.960547,97.7964262 L120.960547,97.7523333 C120.960547,96.3265316 119.96485,95.5917848 118.347445,95.5917848 L115.043289,95.5917848 L115.043289,99.9333249 L118.411981,99.9333249 Z" fill="#435E74"></path>
        <path d="M127.869051,92.5906667 L134.779599,92.5906667 C136.700042,92.5906667 138.192384,93.1298017 139.185675,94.1254979 C140.025844,94.9656667 140.480401,96.1529662 140.480401,97.5803713 L140.480401,97.6228608 C140.480401,100.062397 139.161625,101.595224 137.241182,102.308325 L140.936561,107.708093 L137.047173,107.708093 L133.80635,102.869506 L133.763861,102.869506 L131.194853,102.869506 L131.194853,107.708093 L127.869051,107.708093 L127.869051,92.5906667 Z M134.563545,99.9333249 C136.182954,99.9333249 137.113713,99.0707089 137.113713,97.7964262 L137.113713,97.7523333 C137.113713,96.3265316 136.118418,95.5917848 134.498608,95.5917848 L131.194853,95.5917848 L131.194853,99.9333249 L134.563545,99.9333249 Z" fill="#435E74"></path>
        <polygon fill="#435E74" points="144.172294 107.708333 147.498095 107.708333 147.498095 92.5909072 144.172294 92.5909072"></polygon>
        <path d="M151.145334,100.192511 L151.145334,100.150021 C151.145334,95.8509705 154.536072,92.3311603 159.200692,92.3311603 C163.865713,92.3311603 167.213962,95.808481 167.213962,100.105928 L167.213962,100.150021 C167.213962,104.447468 163.823224,107.967278 159.158203,107.967278 C154.493583,107.967278 151.145334,104.489958 151.145334,100.192511 M163.736241,100.192511 L163.736241,100.150021 C163.736241,97.5573629 161.836241,95.3984177 159.158203,95.3984177 C156.480566,95.3984177 154.621051,97.5148734 154.621051,100.105928 L154.621051,100.150021 C154.621051,102.741076 156.523055,104.901624 159.200692,104.901624 C161.880334,104.901624 163.736241,102.783565 163.736241,100.192511" fill="#435E74"></path>
        <polygon fill="#435E74" points="173.041711 95.6572025 168.441627 95.6572025 168.441627 92.5915485 180.967998 92.5915485 180.967998 95.6572025 176.367513 95.6572025 176.367513 107.708975 173.041711 107.708975"></polygon>
        <path d="M182.695355,105.505255 L184.660291,103.150698 C186.021156,104.273462 187.446958,104.986162 189.173794,104.986162 C190.534659,104.986162 191.356388,104.449032 191.356388,103.562365 L191.356388,103.518272 C191.356388,102.676099 190.837696,102.243989 188.311178,101.595825 C185.263962,100.818188 183.30103,99.9760148 183.30103,96.9752975 L183.30103,96.932808 C183.30103,94.1886308 185.502464,92.3748122 188.591768,92.3748122 C190.795207,92.3748122 192.675165,93.0654662 194.203983,94.2956561 L192.479152,96.8017321 C191.140334,95.8745802 189.821958,95.3113945 188.549279,95.3113945 C187.273393,95.3113945 186.604785,95.8950232 186.604785,96.6281667 L186.604785,96.6722595 C186.604785,97.6659515 187.25295,97.9890316 189.866051,98.6592426 C192.931705,99.4573228 194.660144,100.559643 194.660144,103.193188 L194.660144,103.237281 C194.660144,106.240403 192.370123,107.924348 189.108857,107.924348 C186.82084,107.924348 184.508772,107.124665 182.695355,105.505255" fill="#435E74"></path>
    </g>
</svg>
