<?xml version="1.0" encoding="UTF-8"?>
<svg width="200px" height="200px" viewBox="0 0 200 200" version="1.1" xmlns="http://www.w3.org/2000/svg" xmlns:xlink="http://www.w3.org/1999/xlink">
    <!-- Generator: Sketch 53 (72520) - https://sketchapp.com -->
    <title>logo/energy-trust</title>
    <desc>Created with Sketch.</desc>
    <g id="logo/energy-trust" stroke="none" stroke-width="1" fill="none" fill-rule="evenodd">
        <g id="Group" transform="translate(15.000000, 56.000000)" fill="#435E74">
            <path d="M152.776384,32.6147525 L155.997304,31.0477228 L155.743198,18.2808911 L152.776384,32.6147525 Z M164.155622,28.39 L165.321817,25.0034653 L156.118467,16.1550495 L164.155622,28.39 Z M169.480069,16.7071287 L167.915045,13.4872277 L155.149162,13.7447525 L169.480069,16.7071287 Z M164.805191,5.17910891 L161.419355,4.00930693 L152.576129,13.219604 L164.805191,5.17910891 Z M153.712033,-3.55271368e-14 L150.491113,1.56871287 L150.745219,14.3355446 L153.712033,-3.55271368e-14 Z M142.011376,4.54960396 L140.841816,7.93445545 L150.050214,16.7828713 L142.011376,4.54960396 Z M136.826604,15.8621782 L138.391628,19.0837624 L151.159193,18.8279208 L136.826604,15.8621782 Z M141.25579,27.3380198 L144.63826,28.5061386 L153.486535,19.2941584 L141.25579,27.3380198 Z" id="Burst"></path>
            <path d="M148.766663,72.5714851 C147.714683,72.5714851 147.086861,71.7046535 147.086861,70.2520792 C147.086861,68.8853465 147.71805,68.0016832 148.699337,68.0016832 C149.761416,68.0016832 150.419535,68.880297 150.419535,70.2924752 C150.419535,71.6137624 149.724386,72.5714851 148.766663,72.5714851 L148.766663,72.5714851 Z M148.753198,66.5726733 C146.958941,66.5726733 145.573693,67.9579208 145.573693,70.2924752 C145.573693,72.5209901 146.918545,74.0021782 148.712802,74.0021782 C150.545772,74.0021782 151.93102,72.6152475 151.93102,70.2520792 C151.93102,68.0252475 150.574386,66.5726733 148.753198,66.5726733 L148.753198,66.5726733 Z M157.254881,66.4733663 C156.583297,66.4733663 155.957158,66.7393069 155.559931,67.1516832 L155.559931,66.6214851 L153.964287,66.6214851 L153.964287,73.95 L155.559931,73.95 L155.559931,69.6814851 C155.559931,68.5722772 156.046366,67.959604 156.928347,67.959604 C157.874287,67.959604 158.296762,68.5335644 158.296762,69.8178218 L158.296762,73.95 L159.894089,73.95 L159.894089,69.7622772 C159.894089,67.6111881 158.981812,66.4733663 157.254881,66.4733663 L157.254881,66.4733663 Z M141.991911,71.7383168 C141.559337,72.2853465 140.985376,72.6118812 140.455178,72.6118812 C139.441911,72.6118812 138.948743,71.8005941 138.948743,70.1308911 C138.948743,68.690099 139.436861,67.959604 140.399634,67.959604 C141.035871,67.959604 141.670426,68.4258416 141.991911,68.8584158 L141.991911,71.7383168 Z M141.944782,67.1516832 L141.941416,67.1567327 C141.566069,66.8133663 140.970228,66.4733663 140.263297,66.4733663 C138.814089,66.4733663 137.353099,67.6162376 137.353099,70.1712871 C137.353099,72.6691089 138.389931,74.099802 140.194287,74.099802 C141.177257,74.099802 141.944782,73.2952475 141.944782,73.2952475 C141.944782,74.7040594 141.589634,75.2191089 139.593396,75.3133663 L139.448644,75.3217822 L140.010822,76.5740594 L140.076465,76.5723762 C142.569238,76.4932673 143.540426,75.5389109 143.540426,73.1723762 L143.540426,66.6214851 L141.944782,66.6214851 L141.944782,67.1516832 Z M130.990723,69.53 C131.108545,68.4308911 131.650525,67.9343564 132.520723,67.9343564 C133.734287,67.9343564 134.052406,68.7540594 134.10795,69.53 L130.990723,69.53 Z M132.616663,66.4733663 C130.628842,66.4733663 129.393396,67.9377228 129.393396,70.2924752 C129.393396,72.5344554 130.702901,74.099802 132.576267,74.099802 C133.613099,74.099802 134.414287,73.7951485 135.102703,73.1336634 L135.173396,73.0680198 L134.21904,72.0345545 L134.146663,72.0884158 C133.624881,72.4738614 133.180525,72.6388119 132.657059,72.6388119 C131.756564,72.6388119 131.145574,71.9773267 130.98904,70.879901 L135.666564,70.879901 C135.666564,70.879901 135.718743,70.3648515 135.718743,70.1426733 C135.718743,67.9141584 134.501812,66.4733663 132.616663,66.4733663 L132.616663,66.4733663 Z M127.116069,66.4733663 C126.523594,66.4733663 125.966465,66.7308911 125.582703,67.1432673 L125.582703,66.6214851 L123.988743,66.6214851 L123.988743,73.95 L125.582703,73.95 L125.582703,69.7774257 C125.582703,68.9846535 125.808248,68.0420792 126.885475,68.0420792 C127.286069,68.0420792 127.590723,68.1144554 127.912208,68.2878218 L128.019931,68.3467327 L128.43904,66.8285149 L128.378446,66.7881188 C128.051911,66.5709901 127.661416,66.4733663 127.116069,66.4733663 L127.116069,66.4733663 Z M117.826663,72.4755446 C116.25795,72.4755446 115.357455,71.2434653 115.357455,69.0974257 C115.357455,66.9513861 116.25795,65.7209901 117.826663,65.7209901 C119.403792,65.7209901 120.307653,66.9513861 120.307653,69.0974257 C120.307653,71.2434653 119.403792,72.4755446 117.826663,72.4755446 L117.826663,72.4755446 Z M117.826663,64.0950495 C115.362505,64.0950495 113.706267,66.1047525 113.706267,69.0974257 C113.706267,72.090099 115.362505,74.099802 117.826663,74.099802 C120.297554,74.099802 121.958842,72.090099 121.958842,69.0974257 C121.958842,66.1047525 120.297554,64.0950495 117.826663,64.0950495 L117.826663,64.0950495 Z M99.8285446,72.5714851 C98.7765644,72.5714851 98.1487426,71.7046535 98.1487426,70.2520792 C98.1487426,68.8651485 98.7664653,68.0016832 99.7612178,68.0016832 C100.821614,68.0016832 101.481416,68.880297 101.481416,70.2924752 C101.481416,71.6137624 100.786267,72.5714851 99.8285446,72.5714851 L99.8285446,72.5714851 Z M99.8150792,66.4733663 C97.8558713,66.4733663 96.5379505,68.0084158 96.5379505,70.2924752 C96.5379505,72.5344554 97.8693366,74.099802 99.773,74.099802 C101.759139,74.099802 103.092208,72.5546535 103.092208,70.2520792 C103.092208,68.0286139 101.74399,66.4733663 99.8150792,66.4733663 L99.8150792,66.4733663 Z M107.204188,63.8913861 C105.992307,63.8913861 105.298842,64.5814851 105.298842,65.7832673 L105.298842,66.6214851 L104.376465,66.6214851 L104.376465,68.1245545 L105.298842,68.1245545 L105.298842,73.95 L106.896168,73.95 L106.896168,68.1245545 L108.214089,68.1245545 L108.214089,66.6214851 L106.896168,66.6214851 L106.896168,65.9061386 C106.896168,65.4567327 107.030822,65.3119802 107.449931,65.3119802 C107.682208,65.3119802 107.917851,65.3506931 108.23597,65.4432673 L108.362208,65.480297 L108.362208,64.0512871 L108.289832,64.0310891 C107.966663,63.9435644 107.56102,63.8913861 107.204188,63.8913861 L107.204188,63.8913861 Z" id="of-Oregon"></path>
            <path d="M119.786545,51.5461881 C119.786545,51.5461881 118.488822,52.6469802 117.073277,52.6469802 C115.368228,52.6469802 114.297733,51.2920297 114.297733,49.2116337 L114.297733,41.2637129 L109.864267,41.2637129 L109.864267,49.9943069 C109.864267,53.8706436 112.840109,55.4107426 115.501198,55.7019307 C117.706149,55.9392574 119.786545,54.6465842 119.786545,54.6465842 L120.476644,55.4141089 L124.225059,55.4141089 L124.225059,41.2637129 L119.786545,41.2637129 L119.786545,51.5461881 Z M100.733079,42.3358911 L99.8780297,41.2637129 L96.2339703,41.2637129 L96.2339703,55.4141089 L100.670802,55.4141089 L100.670802,48.0216337 C100.670802,45.9563861 102.18397,44.8892574 104.104465,44.8892574 C104.767634,44.8892574 105.743871,45.0222277 106.593871,45.8419307 L108.20298,42.6169802 C107.036545,41.5161881 106.080505,41.0937129 104.831594,40.9792574 C103.513673,40.8580693 102.340505,41.0213366 100.733079,42.3358911 L100.733079,42.3358911 Z M149.622386,52.1487624 C149.151099,52.2733168 148.710109,52.3288614 148.255653,52.3288614 C146.836743,52.3288614 146.01704,51.4132178 146.01704,49.9943069 L146.01704,44.0055941 L149.17803,44.0055941 L149.17803,41.1576733 L146.01704,41.1576733 L146.01704,36.3118317 L141.73001,38.4864851 C141.73001,38.4864851 141.721594,38.6329208 141.721594,39.7488614 C141.721594,40.8681683 140.925455,41.1576733 140.120901,41.1576733 C139.878525,41.1576733 139.686644,41.1543069 139.686644,41.1543069 L139.686644,44.0055941 L141.447238,44.0055941 L141.447238,50.245099 C141.447238,54.3133168 144.062881,55.7019307 147.089218,55.7019307 C148.306149,55.7019307 149.376644,55.4965842 150.664267,55.025297 L149.622386,52.1487624 Z M130.609317,44.614901 C130.464564,43.7514356 131.523277,43.4265842 132.114069,43.3441089 C133.031396,43.2229208 134.802089,43.3525248 137.099614,44.5812376 L137.099614,41.3310396 C135.588129,40.5769802 133.253574,40.1494554 131.609119,40.3295545 C128.037436,40.7217327 126.386248,42.3981683 126.386248,45.0744059 C126.386248,49.3109406 133.928525,49.0517327 133.605356,51.5714356 C133.519515,52.2261881 132.753673,52.465198 131.39704,52.465198 C129.665059,52.465198 128.180505,52.0157921 126.701,51.3879703 L126.701,54.7829208 C127.330505,55.1296535 129.569119,55.7019307 131.90199,55.7019307 C135.684069,55.7019307 137.825059,53.9985644 137.825059,50.9705446 C137.825059,46.5286634 130.932485,46.5286634 130.609317,44.614901 L130.609317,44.614901 Z M99.1020891,33.9183663 L78.1718911,33.9183663 L78.1718911,37.8603465 L85.9565446,37.8603465 L85.9565446,55.4141089 L91.3140693,55.4141089 L91.3140693,37.8603465 L99.1020891,37.8603465 L99.1020891,33.9183663 Z" id="Trust"></path>
            <path d="M31.8034653,47.2334059 C32.0424752,44.4730099 33.6364356,43.224099 35.6040594,43.4058812 C37.8477228,43.6112277 38.940099,45.3667723 39.0865347,47.2334059 L31.8034653,47.2334059 Z M35.5417822,40.9787525 C31.6368317,40.8154851 28.9218812,43.8788515 28.9218812,48.164198 C28.9218812,52.0758812 31.3809901,55.7014257 35.7942574,55.7014257 C37.780396,55.7014257 39.1807921,55.3075644 40.5710891,54.5366733 L39.7379208,52.2425149 C38.6724752,52.7272673 37.600297,53.0218218 36.4877228,53.0218218 C34.2272277,53.0218218 32.4649505,51.8217228 31.9364356,49.4720198 L41.8570297,49.4720198 C41.8570297,44.2373663 40.0055446,41.163901 35.5417822,40.9787525 L35.5417822,40.9787525 Z M51.3181188,40.9787525 C50.000198,40.8575644 48.8270297,41.0225149 47.2212871,42.3353861 L46.3645545,41.2632079 L44.3531683,41.2632079 L44.3531683,55.413604 L47.1590099,55.413604 L47.1590099,46.7907327 C47.1590099,44.7221188 48.670495,43.6600396 50.5926733,43.6600396 C51.2558416,43.6600396 52.3583168,44.0791485 53.2083168,44.8988515 L54.6911881,42.6181584 C53.5247525,41.5173663 52.5670297,41.0932079 51.3181188,40.9787525 L51.3181188,40.9787525 Z M22.0545545,40.9787525 C19.8529703,40.7414257 17.7692079,42.0324158 17.7692079,42.0324158 L17.0824752,41.2632079 L14.9633663,41.2632079 L14.9633663,55.413604 L17.7692079,55.413604 L17.7692079,44.3181584 C17.7692079,44.3181584 19.1039604,42.9665743 21.2988119,43.2173663 C22.990396,43.4092475 24.0726733,44.574 24.0726733,46.6527129 L24.0726733,55.413604 L26.8785149,55.413604 L26.8785149,46.6863762 C26.8785149,42.8100396 24.7190099,41.2665743 22.0545545,40.9787525 L22.0545545,40.9787525 Z M3.08861386,45.9592475 L9.97613861,45.9592475 L9.97613861,43.1870693 L3.08861386,43.1870693 L3.08861386,36.6934059 L12.199604,36.6934059 L12.199604,33.9178614 L0,33.9178614 L0,55.413604 L12.4823762,55.413604 L12.4823762,52.6431089 L3.08861386,52.6431089 L3.08861386,45.9592475 Z M60.380297,48.7583564 C58.6769307,48.7583564 57.5424752,47.7181584 57.5424752,46.1730099 C57.5424752,44.7877624 58.8014851,43.6196436 60.3483168,43.6196436 C61.829505,43.6196436 63.090198,44.754099 63.090198,46.1107327 C63.090198,47.654198 61.9557426,48.7583564 60.380297,48.7583564 L60.380297,48.7583564 Z M59.6228713,56.0380594 C61.3565347,56.0380594 64.2549505,56.5110297 64.2549505,58.3086535 C64.2549505,59.5996436 62.8057426,60.3570693 60.3483168,60.3570693 C57.7949505,60.3570693 56.4080198,59.5996436 56.4080198,58.184099 C56.4080198,56.9234059 57.7309901,56.0380594 59.6228713,56.0380594 L59.6228713,56.0380594 Z M78.3733663,41.3153861 L74.7175248,49.2919208 L71.8140594,43.3318218 C71.8140594,43.3284554 71.8174257,43.3166733 71.8174257,43.3166733 C71.4269307,42.6080594 71.0684158,42.0610297 70.2840594,41.4247921 C69.2707921,40.6050891 67.2341584,40.2398416 65.5610891,40.8457822 C64.7127723,41.1521188 63.9452475,41.7311287 63.4621782,42.1451881 C62.7215842,41.5527129 61.9136634,41.2918218 61.1983168,41.1925149 C57.9279208,40.7414257 55.0194059,43.054099 55.0194059,46.0770693 C55.0194059,47.1189505 55.3459406,47.953802 55.7768317,48.7263762 C56.3137624,49.6824158 57.5475248,50.5223168 57.5475248,50.5223168 C57.5475248,50.5223168 56.0528713,50.9767723 56.0528713,52.4529109 C56.0528713,53.0824158 56.3440594,53.7994455 57.320297,54.403703 C54.8628713,54.9995446 53.7587129,56.2265743 53.7587129,58.3086535 C53.7587129,60.7997426 56.470297,62.5923168 60.2843564,62.5923168 C64.4771287,62.5923168 66.9665347,60.8923168 66.9665347,58.0881584 C66.9665347,56.5362772 65.9044554,54.8985545 62.869703,54.2724158 C60.3146535,53.743901 58.6718812,53.2288515 58.6718812,52.4394455 C58.6718812,50.7697426 62.3967327,51.6584554 64.2869307,49.6420198 C64.950099,48.9805347 65.6115842,47.6222178 65.6115842,46.4574653 C65.6115842,45.3448911 65.1840594,44.3585545 64.5326733,43.3604356 C65.1453465,42.8857822 65.939802,42.6215248 66.9564356,42.7107327 C68.0454455,42.8066733 68.7641584,43.4092475 69.1529703,44.2070693 C69.1563366,44.2121188 69.1613861,44.2154851 69.1647525,44.2222178 L73.2043564,52.4428119 L68.51,62.4324158 L71.6289109,62.4324158 L81.5259406,41.3153861 L78.3733663,41.3153861 Z" id="Energy"></path>
        </g>
    </g>
</svg>