<?xml version="1.0" encoding="UTF-8"?>
<svg width="200px" height="200px" viewBox="0 0 200 200" version="1.1" xmlns="http://www.w3.org/2000/svg" xmlns:xlink="http://www.w3.org/1999/xlink">
    <!-- Generator: Sketch 53 (72520) - https://sketchapp.com -->
    <title>logo/intel</title>
    <desc>Created with Sketch.</desc>
    <g stroke="none" stroke-width="1" fill="none" fill-rule="evenodd">
        <path d="M75.3551161,93.5652414 L75.3551161,112.943288 L69.1865404,112.943316 L69.1865404,88.5859864 L81.9216207,88.5986307 C87.3307253,88.5986307 89.1733535,92.4130682 89.1733535,95.8778346 L89.1733535,112.943316 L83.015912,112.943316 L83.015912,95.9097594 C83.015912,94.4583715 82.2646073,93.5652695 80.452414,93.5652695 L75.3551161,93.5652695 L75.3551161,93.5652414 Z M117.300548,93.2742212 C115.19214,93.2742212 113.560353,94.3581232 112.87883,95.8295527 C112.474965,96.7130064 112.33614,97.3900722 112.288627,98.4717433 L121.778686,98.4717433 C121.656934,95.8295527 120.458706,93.2742212 117.300548,93.2742212 L117.300548,93.2742212 Z M112.288627,102.67 C112.288627,105.825186 114.250039,108.147404 117.751925,108.147404 C120.476521,108.147404 121.830652,107.392386 123.406019,105.825186 L127.216002,109.46293 C124.776487,111.871269 122.216702,113.333791 117.706639,113.333791 C111.801612,113.333791 106.150486,110.114014 106.150486,100.730115 C106.150486,92.7122266 111.084459,88.1732146 117.567809,88.1732146 C124.139509,88.1732146 127.936127,93.4872897 127.936127,100.448006 L127.936127,102.67 L112.288627,102.67 L112.288627,102.67 Z M100.943316,112.912849 C95.9180299,112.912849 93.7858634,109.414676 93.7858634,105.959562 L93.7858634,81.9497006 L99.9447909,81.9497006 L99.9447909,88.5859864 L104.58774,88.5859864 L104.58774,93.5652414 L99.9447909,93.5652414 L99.9447909,105.573512 C99.9447909,106.988522 100.612949,107.773978 102.082152,107.773978 L104.58774,107.773978 L104.58774,112.912849 L100.943316,112.912849 L100.943316,112.912849 Z M63.6979982,85.2199583 L57.4871084,85.2199583 L57.4871084,79.3201302 L63.6979982,79.3201302 L63.6979982,85.2199583 Z M63.7136707,113.199416 C59.062507,112.752492 57.48046,109.931385 57.48046,106.675974 L57.4871849,88.5859864 L63.7136707,88.5859864 L63.7136707,113.199416 L63.7136707,113.199416 Z M137.73877,112.678994 C133.097303,112.23133 131.522682,109.414676 131.522682,106.163719 L131.522682,78.4804765 L137.73877,78.4804765 L137.73877,112.678994 L137.73877,112.678994 Z M159.469473,82.4812563 C153.836162,55.0162769 100.522406,53.2775857 66.1583324,74.197588 L66.1583324,76.5071853 C100.487513,58.8648661 149.174649,58.968799 153.610473,84.2652335 C155.094523,92.6298212 150.381044,101.350761 141.963004,106.363422 L141.963004,112.92176 C152.09524,109.214973 162.486571,97.1948225 159.469469,82.4812563 L159.469473,82.4812563 Z M97.0034419,130.534378 C73.2868276,132.726677 48.5724333,129.284183 45.1143475,110.751734 C43.4216831,101.615796 47.5835609,91.931228 53.1047688,85.9155838 L53.1047688,82.6987785 C43.1655556,91.4145193 37.771298,102.448765 40.8767449,115.48674 C44.8404052,132.205515 66.0514277,141.679986 98.4266177,138.533706 C111.235937,137.283512 128.001487,133.164693 139.657119,126.767457 L139.657119,117.67904 C129.080931,123.976788 111.579664,129.1847 97.0034419,130.534378 L97.0034419,130.534378 Z" fill="#435E74" fill-rule="nonzero"></path>
    </g>
</svg>
