<?xml version="1.0" encoding="UTF-8"?>
<svg width="149px" height="31px" viewBox="0 0 149 31" version="1.1" xmlns="http://www.w3.org/2000/svg" xmlns:xlink="http://www.w3.org/1999/xlink">
    <!-- Generator: Sketch 47.1 (45422) - http://www.bohemiancoding.com/sketch -->
    <title>logo_uo</title>
    <desc>Created with Sketch.</desc>
    <defs>
        <polygon id="path-1" points="1.86132952e-20 0.360490207 1.86132952e-20 30.7129457 148.180898 30.7129457 148.180898 0.360490207 0 0.360490207"></polygon>
    </defs>
    <g id="Symbols" stroke="none" stroke-width="1" fill="none" fill-rule="evenodd">
        <g id="logo_bar" transform="translate(-1010.000000, -30.000000)">
            <g id="logo_uo" transform="translate(1010.000000, 30.000000)">
                <g id="Group-12" transform="translate(0.623742, 0.225000)">
                    <polygon id="Fill-1" fill="#435E74" points="46.7923777 30.7827103 47.2510995 30.7827103 47.2510995 0.336557632 46.7923777 0.336557632"></polygon>
                    <path d="M145.255516,17.5440927 L145.255516,24.1103868 L136.807618,13.7325091 L132.997067,13.7325091 L132.997067,14.402204 L134.081381,14.651886 C134.729635,14.7907503 134.799679,14.7907503 134.799679,15.1587747 L134.799679,24.2006828 C134.799679,24.8457516 134.729635,26.0161786 134.685686,26.543589 C134.638989,26.9560774 134.54491,27.0484255 134.266793,27.0908372 L132.864532,27.3247858 L132.864532,27.9664343 L138.307391,27.9664343 L138.307391,27.3247858 L136.415507,27.0484255 C136.162111,26.9984891 136.04743,26.8650974 135.997301,26.543589 C135.93069,25.8779984 135.886054,24.8457516 135.886054,24.180845 L135.886054,16.0760994 L145.809004,28.2448468 L146.319916,28.2448468 L146.319916,17.5242549 C146.319916,16.6917536 146.363865,15.7320171 146.3879,15.1320963 C146.411935,14.6963499 146.641296,14.651886 146.870657,14.606054 L148.25781,14.3782619 L148.25781,13.7325091 L142.810831,13.7325091 L142.810831,14.3782619 L144.750785,14.651886 C145.026156,14.6963499 145.120921,14.7907503 145.162811,15.2039226 C145.208134,15.707391 145.255516,16.673284 145.255516,17.5440927 M132.325465,20.6675117 C132.325465,16.6014577 129.187204,13.3651687 124.821105,13.3651687 C120.485909,13.3651687 117.3449,16.6253998 117.3449,20.6675117 C117.3449,24.7780296 120.485909,28.2626324 124.821105,28.2626324 C129.211238,28.2626324 132.325465,24.7540875 132.325465,20.6675117 M129.623264,20.6675117 C129.623264,24.1548507 128.239545,27.4164499 124.821105,27.4164499 C121.408846,27.4164499 120.067703,24.3422832 120.067703,20.6675117 C120.067703,17.2225844 121.431508,14.1942497 124.821105,14.1942497 C128.285554,14.1942497 129.623264,17.2684164 129.623264,20.6675117 M114.591195,18.4833074 L115.214728,18.4833074 L114.941417,13.5286591 L114.453854,13.5286591 L114.015046,14.1251597 C113.393574,13.8248572 112.30926,13.3651687 110.092562,13.3651687 C105.102932,13.3651687 101.779258,16.4448079 101.779258,20.5751636 C101.779258,24.7294613 104.666185,28.1955945 109.190226,28.1955945 C111.704956,28.1955945 114.108439,27.5532619 115.172152,26.9779673 L115.055411,26.543589 L115.055411,22.294891 C115.055411,21.8379387 115.214728,21.7223326 115.654908,21.5369522 L116.045646,21.3768821 L116.045646,20.8515239 L110.504588,20.8515239 L110.504588,21.4685462 L112.14651,21.8598287 C112.629267,21.9740667 112.724033,22.0862526 112.724033,22.409129 L112.724033,26.4950208 C112.14651,27.0484255 110.80674,27.4369717 109.63178,27.4369717 C106.838247,27.4369717 104.503435,24.9360475 104.503435,20.4369834 C104.503435,16.8538759 106.352743,14.1477336 110.021831,14.1477336 C111.822383,14.1477336 112.906011,14.7223442 113.462245,15.2039226 C113.874958,15.8448871 114.407844,17.4729504 114.591195,18.4833074 M97.7578883,13.7325091 L88.5449951,13.7325091 L88.5449951,14.402204 L89.9088,14.6751441 C90.4389396,14.7668082 90.5048637,14.8345301 90.5048637,15.1587747 L90.5048637,26.5675312 C90.5048637,26.8883554 90.4389396,26.9321353 89.8847652,27.0237993 L88.5449951,27.3015278 L88.5449951,27.9664343 L99.9491779,27.9664343 L100.616659,23.4892601 L99.9951875,23.4892601 C99.6950955,24.5235592 99.1175729,25.8779984 98.6286358,26.4505569 C97.9851891,26.9321353 96.5087639,27.1626636 95.6091746,27.1626636 L95.0762881,27.1626636 C94.110088,27.1626636 93.4405464,27.0703154 92.9282612,26.9984891 L92.9282612,21.012278 L95.6998202,21.012278 C96.3707353,21.4685462 96.7621597,22.2750532 96.9709193,23.214952 L97.4337614,23.214952 L97.4337614,17.9777869 L96.9709193,17.9777869 C96.8576123,18.6919457 96.3467005,19.7016186 95.6998202,20.092217 L92.9282612,20.092217 L92.9282612,14.6963499 C93.4165115,14.606054 94.1725786,14.5636423 94.7308733,14.5636423 L94.9410064,14.5636423 C96.3467005,14.5636423 97.8018377,14.9261942 98.311376,15.2477025 C98.7474365,15.8448871 99.1175729,16.9920561 99.3977503,18.0502972 L100.017849,18.0502972 L99.601703,13.4800909 C99.2569749,13.5943289 98.4033951,13.7325091 97.7578883,13.7325091 M84.240014,27.9664343 L87.7511591,27.9664343 L87.7511591,27.3247858 L86.3646928,26.9560774 C85.8785026,26.6578271 85.4232143,26.1755646 84.9143626,25.3950519 L83.4818868,23.214952 C82.7416141,22.0424727 82.396886,21.5855205 81.9546451,21.3084761 C83.918634,20.8953037 85.6285404,19.3329102 85.6285404,17.4729504 C85.6285404,14.9747625 83.2703803,13.7325091 80.1554665,13.7325091 L73.4614234,13.7325091 L73.4614234,14.3529517 L74.8252283,14.651886 C75.260602,14.7408139 75.4219787,14.7907503 75.4219787,15.1587747 L75.4219787,26.5675312 C75.4219787,26.8883554 75.3526211,26.9122975 74.8011935,27.0237993 L73.4614234,27.3015278 L73.4614234,27.9664343 L79.788077,27.9664343 L79.788077,27.3247858 L78.405731,27.0484255 C77.9167939,26.9560774 77.8474363,26.9122975 77.8474363,26.5675312 L77.8474363,21.7914226 L80.0874823,21.7914226 L82.2588574,25.4169418 C82.9723485,26.5866848 83.7352826,27.644926 84.240014,27.9664343 M79.6253269,20.9192458 L77.8474363,20.9192458 L77.8474363,14.7408139 C78.1949112,14.651886 78.8644529,14.5143899 79.2579374,14.5143899 L79.788077,14.5143899 C82.0720724,14.5143899 83.1344119,15.5014888 83.1344119,17.5440927 C83.1344119,19.6551025 82.0034015,20.9192458 79.6253269,20.9192458 M57.8724336,20.6675117 C57.8724336,24.7780296 61.0134424,28.2626324 65.3506989,28.2626324 C69.7380851,28.2626324 72.8529989,24.7540875 72.8529989,20.6675117 C72.8529989,16.6014577 69.7113035,13.3651687 65.3506989,13.3651687 C61.0134424,13.3651687 57.8724336,16.6253998 57.8724336,20.6675117 M60.5945496,20.6675117 C60.5945496,17.2225844 61.9562944,14.1942497 65.3506989,14.1942497 C68.8158344,14.1942497 70.1549177,17.2684164 70.1549177,20.6675117 C70.1549177,24.1548507 68.7670781,27.4164499 65.3506989,27.4164499 C61.9377532,27.4164499 60.5945496,24.3422832 60.5945496,20.6675117" id="Fill-2" fill="#435E74"></path>
                    <g id="Group-6">
                        <mask id="mask-2" fill="white">
                            <use xlink:href="#path-1"></use>
                        </mask>
                        <g id="Clip-4"></g>
                        <path d="M148.180898,4.9621729 L147.991367,2.86758048 L147.987933,2.84705867 L147.93437,2.86279206 C147.737971,2.9223053 147.279249,2.97018951 146.870657,2.97018951 L143.060793,2.97018951 L143.060793,3.34642264 L143.746816,3.48323468 C143.976177,3.53248702 143.976177,3.5345392 143.976177,3.6412526 L143.976177,8.67525182 C143.976177,8.78196521 143.976177,8.78538551 143.736515,8.83463785 L143.155559,8.95913681 L143.143198,8.96324117 L143.143198,9.33536994 L146.313736,9.33536994 L146.313736,8.96324117 L145.452602,8.79291018 L145.391485,8.78196521 C145.233542,8.7546028 145.233542,8.7546028 145.233542,8.65336189 L145.233542,6.36723261 L146.38584,6.36723261 C146.581552,6.56013759 146.794432,7.09644081 146.867223,7.39879543 L146.876837,7.43163032 L147.190664,7.43163032 L147.190664,4.95670042 L146.870657,4.95670042 L146.867223,4.99227155 C146.828768,5.28094496 146.591166,5.72079569 146.3879,5.88565421 L145.233542,5.88565421 L145.233542,3.50580867 C145.438868,3.45655633 145.708058,3.4244055 145.892096,3.4244055 L145.993729,3.4244055 C146.528676,3.4244055 147.085597,3.57216251 147.317705,3.71649922 C147.499683,3.95455218 147.696082,4.43134216 147.814196,4.92796989 L147.822436,4.9621729 L148.180898,4.9621729 Z M141.256121,6.07308671 C141.256121,4.22475597 139.828452,2.82722092 137.932448,2.81148754 L137.932448,2.81080348 L137.885751,2.81148754 C135.99112,2.82722092 134.564825,4.22475597 134.564825,6.07308671 C134.564825,7.734669 135.812576,9.45713266 137.904292,9.46876168 L137.91528,9.46876168 C140.00837,9.45713266 141.256121,7.734669 141.256121,6.07308671 L141.256121,6.07308671 Z M137.910473,9.00496885 C136.461516,8.99881231 135.946484,7.4234216 135.946484,6.07308671 C135.946484,5.30967549 136.102367,4.62287902 136.389412,4.14130062 C136.733453,3.55984943 137.244365,3.26365135 137.910473,3.26159917 C138.575894,3.26365135 139.087493,3.55984943 139.429474,4.14130062 C139.715145,4.62561526 139.873775,5.31172767 139.873775,6.07308671 C139.873775,7.4234216 139.358743,8.99881231 137.910473,9.00496885 L137.910473,9.00496885 Z M129.398023,3.43193017 L129.72627,3.34505452 L129.72627,2.97018951 L127.670949,2.97018951 L127.670949,3.34642264 L128.155079,3.44424325 C128.274567,3.46681724 128.385814,3.49349559 128.406415,3.5311189 C128.412595,3.54548416 128.412595,3.57626687 128.372079,3.63851636 L126.991794,5.97800234 L125.443264,3.60636552 C125.406182,3.55437695 125.406868,3.5345392 125.406868,3.52906672 C125.416482,3.50991303 125.493394,3.49349559 125.551077,3.48049844 L126.07023,3.35531542 L126.081904,3.35326324 L126.081904,2.97018951 L123.459361,2.97018951 L123.459361,3.34915888 L123.773187,3.4606607 C123.907782,3.50991303 123.940057,3.54548416 124.036883,3.68640057 L126.013919,6.70379024 L126.013919,8.65336189 C126.013919,8.73613318 125.989885,8.77238837 125.773571,8.81411604 L125.069007,8.95913681 L125.057333,8.96324117 L125.057333,9.33536994 L128.229244,9.33536994 L128.229244,8.96324117 L127.502705,8.81411604 C127.273344,8.76486371 127.273344,8.76486371 127.273344,8.65336189 L127.273344,6.51156931 L129.067716,3.6651947 C129.163855,3.50580867 129.241454,3.47365784 129.398023,3.43193017 L129.398023,3.43193017 Z M121.423267,4.95054387 L121.78997,4.95054387 L121.713059,2.84911085 L121.713059,2.82722092 L121.653315,2.85321521 C121.518033,2.91751687 121.061371,2.97018951 120.837504,2.97018951 L116.797593,2.97018951 C116.427456,2.97018951 116.073801,2.92162124 115.874655,2.84363837 L115.817658,2.82106438 L115.74212,4.92318146 L115.741434,4.94165109 L116.099896,4.94165109 L116.106076,4.90813214 C116.204276,4.497696 116.395868,3.92855789 116.583339,3.64262072 C116.768064,3.53248702 117.22816,3.41277648 117.813236,3.41277648 L118.127749,3.41277648 L118.127749,8.67525182 C118.127749,8.77444055 118.127749,8.77444055 117.918302,8.81753634 L117.212365,8.95913681 L117.200004,8.96324117 L117.200004,9.33536994 L120.332086,9.33536994 L120.332086,8.96324117 L119.624775,8.82164071 L119.59662,8.8148001 C119.395414,8.77444055 119.395414,8.77444055 119.395414,8.67525182 L119.395414,3.41277648 L119.8095,3.41277648 C120.294317,3.41277648 120.588229,3.45039979 120.93845,3.65561786 C121.115621,3.94018692 121.328501,4.5045366 121.415027,4.9156568 L121.423267,4.95054387 Z M110.941335,9.33536994 L113.880451,9.33536994 L113.880451,8.96324117 L113.2734,8.83463785 C113.044039,8.78538551 113.044039,8.78196521 113.044039,8.67525182 L113.044039,3.6412526 C113.044039,3.54001168 113.044039,3.5345392 113.286448,3.48323468 L113.866717,3.34642264 L113.880451,3.34505452 L113.880451,2.97018951 L110.941335,2.97018951 L110.941335,3.34505452 L111.547013,3.48323468 C111.777747,3.53248702 111.777747,3.5345392 111.777747,3.6412526 L111.777747,8.67525182 C111.777747,8.78196521 111.777747,8.78538551 111.536712,8.83463785 L110.955756,8.95913681 L110.941335,8.96324117 L110.941335,9.33536994 Z M105.812989,4.21996755 C105.812989,3.63783229 106.225702,3.22876428 106.817645,3.22876428 C107.32787,3.22876428 107.645817,3.47639408 107.911573,3.73838915 C108.078444,3.99559579 108.259735,4.48264668 108.3442,4.89445093 L108.349694,4.93344237 L108.728071,4.93344237 L108.662147,2.87647326 L108.662147,2.86005582 L108.382656,2.86005582 L108.17939,3.13983645 C107.770798,2.91751687 107.32787,2.81080348 106.829319,2.81080348 C105.55204,2.81080348 104.626356,3.5345392 104.626356,4.53326713 C104.626356,5.37397715 105.085077,5.93832684 106.108961,6.35628764 L106.748974,6.61759865 C107.247525,6.82623702 107.711054,7.1190148 107.711054,7.83385774 C107.711054,8.56922248 107.227611,9.02412253 106.450942,9.02412253 C105.849385,9.02412253 105.533499,8.72929258 105.332293,8.47208593 C105.131774,8.0890122 105.010226,7.53081906 104.926448,7.08686397 L104.922327,7.04924065 L104.521976,7.04924065 L104.52953,7.24077752 C104.53365,7.43573468 104.53983,7.64163681 104.547384,7.84548676 C104.565925,8.44882788 104.5879,9.13425623 104.565925,9.4099325 L104.561805,9.45713266 L104.857777,9.45713266 L105.023274,9.16709112 C105.449033,9.36136423 105.952391,9.45713266 106.563563,9.45713266 C108.003592,9.45713266 108.969106,8.68824896 108.969106,7.54176402 C108.969106,6.53893172 108.286517,6.07787513 107.549677,5.72832035 L106.621933,5.29531023 C106.04029,5.0189499 105.812989,4.71933152 105.812989,4.21996755 L105.812989,4.21996755 Z M100.970315,9.33331776 L102.660993,9.33536994 L102.660993,8.96529335 L102.076604,8.80659138 C101.855483,8.66499091 101.663205,8.45840472 101.463372,8.13484424 L100.874175,7.19220924 C100.594685,6.75851506 100.401719,6.51977804 100.218368,6.37612539 C101.008771,6.17227544 101.793679,5.52789071 101.793679,4.66529076 C101.793679,3.61936267 100.854261,2.97018951 99.3380066,2.97018951 L96.3535676,2.97018951 L96.3535676,3.33205737 L96.9585586,3.47365784 C97.1886062,3.52222612 97.1886062,3.53590732 97.1886062,3.6412526 L97.1886062,8.67525182 C97.1886062,8.78196521 97.1886062,8.78538551 96.9468845,8.83463785 L96.3645549,8.95913681 L96.3535676,8.96324117 L96.3535676,9.33536994 L99.2810097,9.33536994 L99.2810097,8.96324117 L98.6650314,8.83463785 C98.4576451,8.79496236 98.4576451,8.77991303 98.4576451,8.66499091 L98.4576451,6.61417835 L99.1601488,6.61417835 L100.094074,8.1923053 C100.465583,8.8148001 100.759495,9.19924195 100.962761,9.3292134 L100.970315,9.33331776 Z M99.0118196,6.14080867 L98.4576451,6.14080867 L98.4576451,3.49486371 C98.5544712,3.46886942 98.8016865,3.4038837 98.9747373,3.4038837 L99.145728,3.4038837 C100.065919,3.4038837 100.517773,3.82594886 100.517773,4.69402129 C100.517773,5.64007658 99.9972476,6.14080867 99.0118196,6.14080867 L99.0118196,6.14080867 Z M91.0803262,8.82848131 L91.0803262,6.26804387 L92.1509061,6.26804387 C92.4173494,6.45616044 92.6089413,6.78108904 92.7023338,7.20520639 L92.7098876,7.24077752 L92.9934985,7.24077752 L92.9934985,4.83562175 L92.706454,4.83562175 L92.7023338,4.87187695 C92.6535774,5.17149533 92.4207829,5.60587357 92.1529663,5.77620457 L91.0803262,5.77620457 L91.0803262,3.47707814 C91.2774118,3.44355919 91.5047126,3.4244055 91.7402539,3.4244055 L91.8308996,3.4244055 C92.42765,3.4244055 93.0237138,3.57216251 93.2565082,3.71649922 C93.4281856,3.94360722 93.6094769,4.38277388 93.7523124,4.93070613 L93.7646732,4.9621729 L94.1183285,4.9621729 L93.9287967,2.86621236 L93.9287967,2.84363837 L93.87386,2.86279206 C93.717977,2.91204439 93.3416602,2.97018951 93.0731568,2.97018951 L88.9762486,2.97018951 L88.9762486,3.34505452 L89.5805529,3.47365784 C89.8126607,3.52222612 89.8126607,3.53590732 89.8126607,3.6412526 L89.8126607,8.67525182 C89.8126607,8.78196521 89.8126607,8.78538551 89.570939,8.83463785 L88.9899828,8.95913681 L88.9762486,8.96324117 L88.9762486,9.33536994 L94.0784994,9.33536994 L94.3840851,7.2927661 L94.3882053,7.27429647 L94.0256228,7.27429647 L94.018069,7.30781542 C93.8779802,7.78186916 93.6053566,8.35716381 93.4123913,8.58769211 C93.1287803,8.79838266 92.4887671,8.89483515 92.1268713,8.89483515 L91.89133,8.89483515 C91.5294341,8.89483515 91.3323485,8.86405244 91.1407566,8.83874221 L91.0803262,8.82848131 Z M87.1798169,3.34642264 L87.1894308,3.34300234 L87.1894308,2.97018951 L85.1876729,2.97018951 L85.1876729,3.34505452 L85.7006449,3.46271288 C85.7816766,3.48049844 85.8771292,3.50580867 85.8942969,3.53590732 C85.9018507,3.55232477 85.8956703,3.5844756 85.8730089,3.63509605 L84.2152924,7.87558541 L82.5754304,3.6651947 C82.5500222,3.60568146 82.5445285,3.56805815 82.557576,3.5482204 C82.5754304,3.51333333 82.633114,3.49486371 82.7251331,3.47365784 L83.2779341,3.35668354 L83.2909816,3.35326324 L83.2909816,2.97018951 L80.6691252,2.97018951 L80.6691252,3.350527 L80.9712773,3.45176791 L80.988445,3.45929258 C81.1141129,3.50238837 81.1985781,3.52975078 81.250768,3.67135125 L83.5285831,9.43729491 L83.5327033,9.44823988 L84.079324,9.44823988 L86.5542246,3.67135125 C86.6180886,3.52017394 86.6929399,3.49623183 86.7945729,3.46681724 L87.1798169,3.34642264 Z M75.941131,9.33536994 L78.8788738,9.33536994 L78.8788738,8.96324117 L78.2752562,8.83463785 C78.0458953,8.78538551 78.0458953,8.78196521 78.0458953,8.67525182 L78.0458953,3.6412526 C78.0458953,3.54411604 78.0458953,3.5345392 78.2869303,3.48323468 L78.8685732,3.34642264 L78.8788738,3.34505452 L78.8788738,2.97018951 L75.941131,2.97018951 L75.941131,3.34505452 L76.5474954,3.48323468 C76.7761697,3.53248702 76.7761697,3.5345392 76.7761697,3.6412526 L76.7761697,8.67525182 C76.7761697,8.78196521 76.7761697,8.78538551 76.5371948,8.83463785 L75.9555519,8.95913681 L75.941131,8.96324117 L75.941131,9.33536994 Z M73.3165278,3.45450415 L73.9537941,3.34642264 L73.9537941,2.97018951 L71.4431845,2.97018951 L71.4431845,3.34642264 L72.3043181,3.47365784 C72.4045777,3.48939123 72.4499005,3.5482204 72.4595144,3.68024403 C72.4862961,3.87793744 72.5199449,4.26921989 72.5199449,4.71454309 L72.5199449,7.38374611 L68.9861384,2.98660696 L68.9710308,2.97018951 L67.1354566,2.97018951 L67.1354566,3.35326324 L67.6690298,3.47365784 L67.7116057,3.48323468 C67.9258591,3.5345392 67.9313527,3.5345392 67.9313527,3.65424974 L67.9313527,7.62043094 C67.9313527,7.88858255 67.9045711,8.20461838 67.8874033,8.43377856 L67.8702356,8.68961708 C67.850321,8.80659138 67.8317799,8.83874221 67.7239665,8.8544756 L67.0757128,8.96324117 L67.0757128,9.33536994 L69.5856357,9.33536994 L69.5856357,8.96050493 L68.7231287,8.83463785 C68.6153153,8.8148001 68.594714,8.78538551 68.5754861,8.66704309 C68.5555716,8.47140187 68.5171158,7.99187565 68.5171158,7.6108541 L68.5171158,4.26511552 L72.6847551,9.44139927 L72.6984893,9.45713266 L73.0981542,9.45713266 L73.0981542,4.69402129 C73.0981542,4.3773014 73.1194422,4.08999611 73.1338631,3.87793744 L73.1345498,3.85399533 C73.1379833,3.79653427 73.1421036,3.74659787 73.1441637,3.70008178 L73.1503441,3.6412526 C73.1503441,3.50238837 73.1997872,3.47365784 73.3165278,3.45450415 L73.3165278,3.45450415 Z M65.1240848,3.34642264 L65.1357588,3.34505452 L65.1357588,2.97018951 L62.942409,2.97018951 L62.942409,3.34642264 L63.6160709,3.48323468 C63.8179635,3.52359424 63.8179635,3.55574507 63.8179635,3.6412526 L63.8179635,6.85223131 C63.8179635,8.14305296 63.1806972,8.88457425 62.0702881,8.88457425 C61.108895,8.88457425 60.5375528,8.15673416 60.5375528,6.94321132 L60.5375528,3.65424974 C60.5375528,3.5413798 60.5444199,3.50991303 60.7250244,3.47365784 L61.3485566,3.34915888 L61.3609173,3.34642264 L61.3609173,2.97018951 L58.5557095,2.97018951 L58.5557095,3.34505452 L59.0782953,3.46271288 C59.2582132,3.50102025 59.2671404,3.53590732 59.2671404,3.6412526 L59.2671404,6.94321132 C59.2671404,8.52475857 60.2601222,9.46876168 61.9274526,9.46876168 C63.5103177,9.46876168 64.4538564,8.48850337 64.4538564,6.85223131 L64.4538564,3.6412526 C64.4538564,3.5482204 64.4538564,3.50991303 64.6564357,3.46271288 L65.1240848,3.34642264 L65.1240848,3.34642264 Z" id="Fill-3" fill="#435E74" mask="url(#mask-2)"></path>
                        <path d="M27.9573126,11.2281646 C27.8646068,9.53101116 27.6826288,7.7244081 26.7301629,6.35833982 C24.8554463,3.67613967 21.6794154,2.5748027 18.6015839,2.60011293 C15.5196322,2.62747534 12.3422278,3.67613967 10.4757517,6.35833982 C9.5239725,7.7244081 9.33856096,9.53101116 9.24585519,11.2281646 C9.17718425,12.4752064 9.12980131,13.9958723 9.12568105,15.5363759 C9.11881396,17.0761955 9.16276336,18.5982295 9.22662733,19.842535 C9.32482677,21.545845 9.5239725,23.3428712 10.4757517,24.7137279 C12.3422278,27.3972962 15.5120784,28.4473287 18.6015839,28.4712708 C21.6876559,28.4993172 24.8554463,27.3972962 26.7301629,24.7137279 C27.6826288,23.3428712 27.8769676,21.545845 27.9682999,19.842535 C28.0383443,18.5982295 28.0170563,17.1035579 28.0184297,15.5616861 C28.0204898,14.0184463 28.0252968,12.4752064 27.9573126,11.2281646 M36.793889,20.557378 C36.1682967,24.5256114 32.8466834,27.4527051 29.0155318,28.9159099 C25.8463679,30.1308009 22.2287829,30.7156724 18.6015839,30.7129361 C14.9888058,30.7060955 11.3574866,30.1308009 8.18488919,28.9159099 C4.34961726,27.4527051 1.03006408,24.5256114 0.407218667,20.557378 C0.162063415,19.0100337 -0.00618038449,17.3183528 8.13151629e-20,15.5363759 C0.00824051265,13.7557671 0.162063415,12.0627181 0.407218667,10.5099013 C1.03006408,6.54440421 4.34961726,3.62209891 8.18488919,2.1534216 C11.3574866,0.944003115 14.9888058,0.368708463 18.6015839,0.36049974 C22.2287829,0.357763499 25.8463679,0.944003115 29.0155318,2.1534216 C32.8466834,3.62209891 36.1682967,6.54440421 36.793889,10.5099013 C37.0342373,12.0627181 37.1983608,13.7557671 37.1983608,15.5363759 C37.1983608,17.321089 37.0342373,19.0100337 36.793889,20.557378" id="Fill-5" fill="#435E74" mask="url(#mask-2)"></path>
                    </g>
                </g>
            </g>
        </g>
    </g>
</svg>