<?xml version="1.0" encoding="UTF-8"?>
<svg width="200px" height="200px" viewBox="0 0 200 200" version="1.1" xmlns="http://www.w3.org/2000/svg" xmlns:xlink="http://www.w3.org/1999/xlink">
    <!-- Generator: Sketch 53 (72520) - https://sketchapp.com -->
    <title>logo/mentor</title>
    <desc>Created with Sketch.</desc>
    <g stroke="none" stroke-width="1" fill="none" fill-rule="evenodd">
        <g transform="translate(25.000000, 79.000000)" fill="#435E74" fill-rule="nonzero">
            <path d="M66.8537647,39.619145 L67.7323009,42.0847141 L68.610837,42.0847141 L66.0885881,35.0280853 L65.0683526,35.0280853 L62.5461038,42.0847141 L63.3679601,42.0847141 L64.2464963,39.619145 L66.8537647,39.619145 L66.8537647,39.619145 Z M66.5987059,38.9673279 L64.4448754,38.9673279 L65.0966925,37.0968962 C65.2667318,36.5867784 65.2950716,36.5017588 65.3517514,36.3600594 C65.4084311,36.1900202 65.436771,36.1333404 65.5501305,35.7365822 C65.6918299,36.2466999 65.8051894,36.5584385 65.9752286,37.0968962 L66.5987059,38.9673279 L66.5987059,38.9673279 Z M71.8982625,41.886335 C72.5784195,42.113054 73.145217,42.1980736 73.6836746,42.1980736 C75.1006683,42.1980736 76.0075443,41.432897 76.0075443,40.1859425 C76.0075443,39.6474849 75.8091652,39.165707 75.4407468,38.8256285 C75.1290082,38.5422298 74.8172696,38.3438507 74.0237531,38.032112 C73.0035176,37.6070139 72.6634391,37.2669354 72.6634391,36.671798 C72.6634391,36.0483208 73.2018967,35.5948828 73.9954132,35.5948828 C74.4771911,35.5948828 74.9873088,35.7082423 75.4974266,35.9633012 L75.6674658,35.2264644 C74.9873088,34.9997454 74.505531,34.9147258 73.9954132,34.9147258 C72.6350992,34.9147258 71.784903,35.6515625 71.784903,36.8134974 C71.784903,37.3236152 71.9549422,37.7487133 72.3233606,38.0604519 C72.6067593,38.3155108 72.8334783,38.4288703 73.6836746,38.7972887 C74.3638316,39.1090273 74.5905506,39.2223868 74.8172696,39.4207659 C75.0156487,39.619145 75.1290082,39.9025438 75.1290082,40.2426223 C75.1290082,41.0077989 74.5622107,41.4895768 73.6836746,41.4895768 C73.1735568,41.4895768 72.6350992,41.3762173 71.9549422,41.1211584 L71.8982625,41.886335 L71.8982625,41.886335 Z M77.4812178,42.0847141 L78.2463944,42.0847141 L78.2463944,36.898517 L77.4812178,36.898517 L77.4812178,42.0847141 L77.4812178,42.0847141 Z M77.8496362,34.5463074 C77.5378976,34.5463074 77.3111786,34.7730264 77.3111786,35.0847651 C77.3111786,35.4248435 77.5378976,35.6515625 77.8496362,35.6515625 C78.1613748,35.6515625 78.3880938,35.4248435 78.3880938,35.1131049 C78.4164337,34.7730264 78.1897147,34.5463074 77.8496362,34.5463074 L77.8496362,34.5463074 Z M84.0277289,39.7325045 C84.0277289,38.8823083 83.9427093,38.4572102 83.7443302,37.9754323 C83.4325915,37.2385955 82.8091143,36.8418373 81.9022383,36.8418373 C80.5135844,36.8418373 79.6350483,37.8620728 79.6350483,39.5341254 C79.6350483,41.206178 80.5702642,42.2264135 82.1006174,42.2264135 C82.7240947,42.2264135 83.2625523,42.0563743 83.8293498,41.7162958 L83.545951,41.1211584 C83.0641732,41.4612369 82.6107352,41.6029363 82.1289573,41.6029363 C81.5904997,41.6029363 81.1370617,41.4045571 80.8536629,41.0361388 C80.6269439,40.7244001 80.5135844,40.3843216 80.4569047,39.7325045 L84.0277289,39.7325045 L84.0277289,39.7325045 Z M80.4852445,39.1090273 C80.5135844,38.0887918 81.052042,37.4653145 81.8738984,37.4653145 C82.6957548,37.4653145 83.1775327,38.0604519 83.2058725,39.1090273 L80.4852445,39.1090273 L80.4852445,39.1090273 Z M85.3880429,42.0847141 L86.1532195,42.0847141 L86.1532195,38.4005304 C86.6633373,37.7487133 87.173455,37.4369747 87.6835728,37.4369747 C88.0519911,37.4369747 88.3353899,37.6070139 88.4487494,37.9754323 C88.533769,38.1738114 88.5621089,38.48555 88.5621089,38.9956678 L88.5621089,42.0847141 L89.3272855,42.0847141 L89.3272855,38.4005304 C89.8090634,37.7487133 90.3191811,37.4369747 90.8292989,37.4369747 C91.254397,37.4369747 91.5377957,37.6353538 91.6511552,37.9754323 C91.7361749,38.2021513 91.7645147,38.5422298 91.7645147,39.0806874 L91.7645147,42.0847141 L92.5296914,42.0847141 L92.5296914,39.1090273 C92.5296914,38.2871709 92.4730116,37.8620728 92.3313122,37.5503342 C92.1045932,37.0968962 91.6511552,36.8134974 91.0560179,36.8134974 C90.3758609,36.8134974 89.894083,37.0968962 89.2422659,37.8337329 C89.0722266,37.1819158 88.5904487,36.8134974 87.8819519,36.8134974 C87.2584746,36.8134974 86.7483569,37.0685563 86.1248796,37.7203734 L86.0965398,36.898517 L85.3313631,36.898517 C85.359703,37.2385955 85.359703,37.7203734 85.359703,38.5705697 L85.359703,42.0847141 L85.3880429,42.0847141 Z M98.2543461,39.7325045 C98.2543461,38.8823083 98.1693264,38.4572102 97.9709473,37.9754323 C97.6592087,37.2385955 97.0357315,36.8418373 96.1288555,36.8418373 C94.7402016,36.8418373 93.8616655,37.8620728 93.8616655,39.5341254 C93.8616655,41.206178 94.7968813,42.2264135 96.3272346,42.2264135 C96.9507118,42.2264135 97.4891694,42.0563743 98.0559669,41.7162958 L97.7725682,41.1211584 C97.2907903,41.4612369 96.8373523,41.6029363 96.3555745,41.6029363 C95.8171168,41.6029363 95.3636788,41.4045571 95.0802801,41.0361388 C94.8535611,40.7244001 94.7402016,40.3843216 94.6835218,39.7325045 L98.2543461,39.7325045 L98.2543461,39.7325045 Z M94.7118617,39.1090273 C94.7402016,38.0887918 95.2786592,37.4653145 96.1005156,37.4653145 C96.922372,37.4653145 97.4041498,38.0604519 97.4324897,39.1090273 L94.7118617,39.1090273 L94.7118617,39.1090273 Z M99.6429999,42.0847141 L100.408177,42.0847141 L100.408177,38.4005304 C100.946634,37.7487133 101.485092,37.4369747 102.051889,37.4369747 C102.505327,37.4369747 102.817066,37.6353538 102.930425,37.9754323 C103.015445,38.2021513 103.043785,38.5422298 103.043785,39.0806874 L103.043785,42.0847141 L103.808962,42.0847141 L103.808962,39.1090273 C103.808962,38.2871709 103.752282,37.8620728 103.582243,37.5503342 C103.355524,37.0685563 102.873746,36.8134974 102.221929,36.8134974 C101.513432,36.8134974 100.974974,37.0685563 100.351497,37.7487133 L100.323157,36.9268569 L99.5579803,36.9268569 C99.5863202,37.2669354 99.5863202,37.7487133 99.5863202,38.5989095 L99.5863202,42.0847141 L99.6429999,42.0847141 L99.6429999,42.0847141 Z M105.169276,41.8296553 C105.679393,42.0847141 106.132831,42.1980736 106.642949,42.1980736 C107.748204,42.1980736 108.456701,41.5745964 108.456701,40.6393805 C108.456701,39.9025438 108.144962,39.5908052 107.039707,39.1373672 C106.189511,38.7972887 105.991132,38.6272494 105.991132,38.2021513 C105.991132,37.7203734 106.35955,37.4369747 106.926348,37.4369747 C107.351446,37.4369747 107.719864,37.5503342 108.088283,37.805393 L108.315002,37.1819158 C107.804884,36.898517 107.351446,36.7851575 106.841328,36.7851575 C105.849433,36.7851575 105.140936,37.3802949 105.140936,38.2304912 C105.140936,38.5989095 105.282635,38.9106482 105.537694,39.165707 C105.764413,39.392426 105.991132,39.5057855 106.557929,39.7325045 C107.436466,40.072583 107.578165,40.2142824 107.578165,40.6677204 C107.578165,41.1778381 107.181407,41.5462565 106.586269,41.5462565 C106.217851,41.5462565 105.821093,41.432897 105.339315,41.206178 L105.169276,41.8296553 L105.169276,41.8296553 Z M112.452623,42.0847141 L113.841277,42.0847141 C114.974872,42.0847141 115.229931,42.0563743 115.683369,41.8296553 C116.250167,41.5462565 116.590245,40.9511191 116.590245,40.2142824 C116.590245,39.1940469 116.051787,38.5989095 114.974872,38.48555 C115.966768,38.3155108 116.391866,37.805393 116.391866,36.8418373 C116.391866,36.0766607 116.051787,35.4815233 115.45665,35.2548043 C115.003212,35.0847651 114.578114,35.0280853 113.557878,35.0280853 L112.452623,35.0280853 L112.452623,42.0847141 L112.452623,42.0847141 Z M113.24614,38.2021513 L113.24614,35.7082423 L113.614558,35.7082423 C114.408075,35.7082423 114.719813,35.764922 115.031552,35.9349613 C115.343291,36.1050005 115.51333,36.4734189 115.51333,36.9835367 C115.51333,37.4653145 115.343291,37.8337329 115.003212,38.032112 C114.748153,38.1738114 114.323055,38.2304912 113.614558,38.2304912 L113.24614,38.2304912 L113.24614,38.2021513 Z M113.24614,41.432897 L113.24614,38.8256285 L113.614558,38.8256285 C114.351395,38.8256285 114.719813,38.8823083 115.031552,38.9956678 C115.48499,39.1940469 115.711709,39.5624653 115.711709,40.1292628 C115.711709,40.6677204 115.54167,41.0361388 115.173251,41.2345179 C114.861513,41.4045571 114.521434,41.432897 113.614558,41.432897 L113.24614,41.432897 L113.24614,41.432897 Z M122.116521,36.9268569 L121.351344,36.9268569 L121.351344,40.6110406 C120.841226,41.2628578 120.302769,41.5745964 119.735971,41.5745964 C119.310873,41.5745964 118.999134,41.3762173 118.885775,41.0361388 C118.800755,40.8094198 118.772415,40.4976811 118.772415,39.9308836 L118.772415,36.9268569 L118.007239,36.9268569 L118.007239,39.9025438 C118.007239,40.7244001 118.063919,41.1494983 118.233958,41.4612369 C118.460677,41.9430148 118.914115,42.1980736 119.537592,42.1980736 C120.217749,42.1980736 120.784547,41.9146749 121.379684,41.2628578 L121.408024,42.0847141 L122.1732,42.0847141 C122.144861,41.7446356 122.144861,41.2628578 122.144861,40.4126615 L122.116521,36.9268569 L122.116521,36.9268569 Z M123.505175,41.8296553 C124.015292,42.0847141 124.46873,42.1980736 124.978848,42.1980736 C126.084103,42.1980736 126.7926,41.5745964 126.7926,40.6393805 C126.7926,39.9025438 126.480861,39.5908052 125.375606,39.1373672 C124.52541,38.7972887 124.327031,38.6272494 124.327031,38.2021513 C124.327031,37.7203734 124.695449,37.4369747 125.262247,37.4369747 C125.687345,37.4369747 126.055763,37.5503342 126.424182,37.805393 L126.650901,37.1819158 C126.140783,36.898517 125.687345,36.7851575 125.177227,36.7851575 C124.185332,36.7851575 123.476835,37.3802949 123.476835,38.2304912 C123.476835,38.5989095 123.618534,38.9106482 123.873593,39.165707 C124.100312,39.392426 124.327031,39.5057855 124.893828,39.7325045 C125.772365,40.072583 125.914064,40.2142824 125.914064,40.6677204 C125.914064,41.1778381 125.517306,41.5462565 124.922168,41.5462565 C124.55375,41.5462565 124.156992,41.432897 123.675214,41.206178 L123.505175,41.8296553 L123.505175,41.8296553 Z M128.181254,42.0847141 L128.946431,42.0847141 L128.946431,36.898517 L128.181254,36.898517 L128.181254,42.0847141 L128.181254,42.0847141 Z M128.578012,34.5463074 C128.266274,34.5463074 128.039555,34.7730264 128.039555,35.0847651 C128.039555,35.4248435 128.266274,35.6515625 128.578012,35.6515625 C128.889751,35.6515625 129.11647,35.4248435 129.11647,35.1131049 C129.11647,34.7730264 128.889751,34.5463074 128.578012,34.5463074 L128.578012,34.5463074 Z M130.731843,42.0847141 L131.497019,42.0847141 L131.497019,38.4005304 C132.035477,37.7487133 132.573934,37.4369747 133.140732,37.4369747 C133.59417,37.4369747 133.905909,37.6353538 134.019268,37.9754323 C134.104288,38.2021513 134.132628,38.5422298 134.132628,39.0806874 L134.132628,42.0847141 L134.897804,42.0847141 L134.897804,39.1090273 C134.897804,38.2871709 134.841124,37.8620728 134.671085,37.5503342 C134.444366,37.0685563 133.962588,36.8134974 133.310771,36.8134974 C132.602274,36.8134974 132.063817,37.0685563 131.44034,37.7487133 L131.412,36.9268569 L130.646823,36.9268569 C130.675163,37.2669354 130.675163,37.7487133 130.675163,38.5989095 L130.675163,42.0847141 L130.731843,42.0847141 L130.731843,42.0847141 Z M140.650799,39.7325045 C140.650799,38.8823083 140.565779,38.4572102 140.3674,37.9754323 C140.055661,37.2385955 139.432184,36.8418373 138.525308,36.8418373 C137.136654,36.8418373 136.258118,37.8620728 136.258118,39.5341254 C136.258118,41.206178 137.193334,42.2264135 138.723687,42.2264135 C139.347165,42.2264135 139.885622,42.0563743 140.45242,41.7162958 L140.169021,41.1211584 C139.687243,41.4612369 139.233805,41.6029363 138.752027,41.6029363 C138.21357,41.6029363 137.760132,41.4045571 137.476733,41.0361388 C137.250014,40.7244001 137.136654,40.3843216 137.079975,39.7325045 L140.650799,39.7325045 L140.650799,39.7325045 Z M137.108314,39.1090273 C137.136654,38.0887918 137.675112,37.4653145 138.496968,37.4653145 C139.318825,37.4653145 139.800603,38.0604519 139.828942,39.1090273 L137.108314,39.1090273 L137.108314,39.1090273 Z M141.642694,41.8296553 C142.152812,42.0847141 142.60625,42.1980736 143.116368,42.1980736 C144.221623,42.1980736 144.93012,41.5745964 144.93012,40.6393805 C144.93012,39.9025438 144.618381,39.5908052 143.513126,39.1373672 C142.66293,38.7972887 142.464551,38.6272494 142.464551,38.2021513 C142.464551,37.7203734 142.832969,37.4369747 143.399767,37.4369747 C143.824865,37.4369747 144.193283,37.5503342 144.561702,37.805393 L144.788421,37.1819158 C144.278303,36.898517 143.824865,36.7851575 143.314747,36.7851575 C142.322851,36.7851575 141.614355,37.3802949 141.614355,38.2304912 C141.614355,38.5989095 141.756054,38.9106482 142.011113,39.165707 C142.237832,39.392426 142.464551,39.5057855 143.031348,39.7325045 C143.909884,40.072583 144.051584,40.2142824 144.051584,40.6677204 C144.051584,41.1778381 143.654826,41.5462565 143.059688,41.5462565 C142.69127,41.5462565 142.294512,41.432897 141.812734,41.206178 L141.642694,41.8296553 L141.642694,41.8296553 Z M145.780316,41.8296553 C146.290434,42.0847141 146.743872,42.1980736 147.25399,42.1980736 C148.359245,42.1980736 149.067742,41.5745964 149.067742,40.6393805 C149.067742,39.9025438 148.756003,39.5908052 147.650748,39.1373672 C146.800552,38.7972887 146.602173,38.6272494 146.602173,38.2021513 C146.602173,37.7203734 146.970591,37.4369747 147.537388,37.4369747 C147.962487,37.4369747 148.330905,37.5503342 148.699323,37.805393 L148.926042,37.1819158 C148.415925,36.898517 147.962487,36.7851575 147.452369,36.7851575 C146.460473,36.7851575 145.751976,37.3802949 145.751976,38.2304912 C145.751976,38.5989095 145.893676,38.9106482 146.148735,39.165707 C146.375454,39.392426 146.602173,39.5057855 147.16897,39.7325045 C148.047506,40.072583 148.189206,40.2142824 148.189206,40.6677204 C148.189206,41.1778381 147.792447,41.5462565 147.19731,41.5462565 C146.828892,41.5462565 146.432133,41.432897 145.950355,41.206178 L145.780316,41.8296553 L145.780316,41.8296553 Z"></path>
            <path d="M-1.42108547e-14,27.9997963 L-1.42108547e-14,0.0566797497 L11.0242113,0.0566797497 L18.7609971,20.603089 L25.9876652,0.0566797497 L36.6151183,0.0566797497 L36.6151183,27.9997963 L29.7852085,27.9997963 L29.7852085,10.3440543 L22.64356,27.9997963 L13.8865387,27.9997963 L7.02828896,10.3440543 L7.02828896,27.9997963 L-1.42108547e-14,27.9997963 L-1.42108547e-14,27.9997963 L-1.42108547e-14,27.9997963 Z M102.505327,12.5829044 L102.505327,12.5829044 L95.7604371,12.5829044 C94.8535611,14.3399767 94.5134826,16.4371274 94.8535611,18.562618 C95.335339,23.1253379 99.6429999,27.0079007 103.837301,28.2265153 C108.400021,29.3034306 112.906061,27.9147767 116.108467,24.3722924 C119.140834,21.1698865 120.04771,15.9270097 118.148938,11.9027474 C116.476886,7.79346558 112.622663,4.56271985 108.315002,4.56271985 L92.9547895,4.56271985 L92.9547895,-6.03961325e-14 L85.8981606,-6.03961325e-14 L85.8981606,27.9997963 L92.9547895,27.9997963 L92.9547895,10.2590347 L106.41623,10.2590347 C107.946583,10.3440543 109.420257,10.8541721 110.610531,11.9027474 C112.452623,13.5748 113.16112,16.1253888 112.367604,18.562618 C111.800806,20.4047099 109.902035,21.9917429 108.059943,22.416841 C106.132831,22.7285796 104.2624,22.2751416 102.902086,20.9148276 C101.400072,19.469494 100.691575,17.3156635 101.145013,15.2751925 C101.286713,14.254957 101.99521,13.4614405 102.505327,12.5829044 L102.505327,12.5829044 Z M127.359398,4.67607935 L127.359398,4.67607935 L120.189409,4.67607935 L120.189409,27.9997963 L127.529437,27.9997963 L127.529437,14.2832969 C127.586117,12.9513228 127.954535,11.7327082 129.14481,10.9958714 C131.32698,10.0889954 134.019268,10.4290739 136.626537,10.4290739 L136.598197,4.70441922 C133.48081,4.9594781 129.626588,3.62750398 127.784496,6.65987059 L127.614456,6.48983134 C127.586117,5.86635409 127.671136,5.21453697 127.359398,4.67607935 L127.359398,4.67607935 Z M51.6635918,9.74891694 L51.6635918,9.74891694 C52.315409,10.1740151 52.9388862,10.7691524 53.2789647,11.4209696 C53.5340236,12.0727867 53.7607426,12.7812836 53.6757229,13.5181203 L53.3639843,13.7731792 L46.1089764,13.7731792 C45.8539175,13.7731792 45.5421789,13.6881595 45.513839,13.4331007 C45.4571592,11.9310873 46.193996,10.6557929 47.4692904,9.89061632 C48.5745455,9.1254397 50.501657,9.1254397 51.6635918,9.74891694 L51.6635918,9.74891694 Z M59.5987568,9.4655182 L59.5987568,9.4655182 C57.1615276,5.01615785 51.7769513,2.66394823 46.7041137,3.99592235 C43.0766098,4.67607935 39.7325045,8.13354408 38.5989095,11.5626689 C37.0968962,15.5302514 37.8620728,20.5464093 40.3559818,23.777155 C43.5300478,27.8297571 48.6312252,28.9350122 53.5623634,28.0564761 C55.4327952,27.4613387 57.501606,26.951221 58.9469397,25.4208677 L58.9469397,20.4330498 L58.8052403,20.2913504 C56.9631484,21.4532853 55.1210566,22.5018606 52.9105463,22.7285796 C50.2182582,22.9836385 47.5826499,21.8217036 45.7688979,19.7245529 C45.740558,19.5828535 45.6838782,19.3844744 45.9105972,19.242775 L61.12911,19.1860953 L61.3841689,19.0443959 C61.3841689,15.7853103 61.1007702,12.2711658 59.5987568,9.4655182 L59.5987568,9.4655182 Z M84.2544479,27.9997963 L84.2544479,27.9997963 L84.2544479,10.0039758 C84.2544479,7.22666808 80.7119635,4.44936035 77.7362767,3.88256285 C74.5338708,3.40078498 71.6715435,4.47770022 69.4893731,6.74489021 L69.4893731,6.74489021 C69.0359351,5.29955659 69.064275,4.53437997 69.064275,4.53437997 L62.7444829,4.53437997 L62.7444829,27.9714565 L69.2626541,27.9714565 C69.2626541,27.9714565 69.2626541,14.9917938 69.2626541,13.0646823 C69.2626541,11.1092309 72.238341,9.52219795 74.0804328,9.80559669 C75.7808253,9.94729607 77.7362767,11.2792702 77.7362767,12.7529437 L77.7362767,27.9714565 L84.2544479,27.9714565 L84.2544479,27.9997963 L84.2544479,27.9997963 Z M141.784394,7.42504721 C142.209492,7.42504721 142.57791,7.39670733 142.57791,6.88658959 C142.57791,6.48983134 142.209492,6.40481171 141.869413,6.40481171 L141.189256,6.40481171 L141.189256,7.39670733 L141.784394,7.42504721 L141.784394,7.42504721 L141.784394,7.42504721 Z M141.217596,9.2387992 L140.735818,9.2387992 L140.735818,6.00805347 L141.954433,6.00805347 C142.71961,6.00805347 143.088028,6.29145221 143.088028,6.91492946 C143.088028,7.48172696 142.71961,7.73678583 142.237832,7.79346558 L143.144708,9.21045932 L142.60625,9.21045932 L141.756054,7.82180546 L141.189256,7.82180546 L141.189256,9.2387992 L141.217596,9.2387992 L141.217596,9.2387992 Z M141.812734,10.2023549 C143.201388,10.2023549 144.306643,9.1254397 144.306643,7.62342633 C144.306643,6.17809272 143.201388,5.0728376 141.812734,5.0728376 C140.39574,5.0728376 139.318825,6.17809272 139.318825,7.62342633 C139.318825,9.1254397 140.39574,10.2023549 141.812734,10.2023549 L141.812734,10.2023549 L141.812734,10.2023549 Z M138.695347,7.65176621 C138.695347,5.89469397 140.112341,4.59105972 141.812734,4.59105972 C143.484786,4.59105972 144.90178,5.89469397 144.90178,7.65176621 C144.90178,9.43717832 143.484786,10.7408126 141.812734,10.7408126 C140.112341,10.7124727 138.695347,9.40883845 138.695347,7.65176621 L138.695347,7.65176621 L138.695347,7.65176621 Z"></path>
        </g>
    </g>
</svg>
