<?xml version="1.0" encoding="UTF-8"?>
<svg width="200px" height="200px" viewBox="0 0 200 200" version="1.1" xmlns="http://www.w3.org/2000/svg" xmlns:xlink="http://www.w3.org/1999/xlink">
    <!-- Generator: Sketch 53 (72520) - https://sketchapp.com -->
    <title>logo/metro</title>
    <desc>Created with Sketch.</desc>
    <g stroke="none" stroke-width="1" fill="none" fill-rule="evenodd">
        <path d="M101.086031,86.5877342 C101.341567,86.5877342 101.53322,86.8432709 101.597104,87.0349233 L101.597104,112.077513 C101.597104,112.333049 101.405451,112.524702 101.149915,112.524702 L98.5306644,112.524702 C98.4028961,112.524702 98.2751278,112.460818 98.2112436,112.396934 C98.1473595,112.333049 98.0834753,112.205281 98.0834753,112.077513 L98.0834753,94.3816014 L90.2896082,107.350085 C90.225724,107.477853 90.0340716,107.541738 89.9063032,107.541738 L88.1175468,107.541738 C87.9258944,107.541738 87.7981261,107.477853 87.7342419,107.350085 L79.8764906,94.253833 L79.9403748,112.077513 C79.9403748,112.205281 79.8764906,112.333049 79.8126065,112.396934 C79.7487223,112.460818 79.620954,112.524702 79.4931857,112.524702 L76.8739353,112.524702 C76.6183986,112.524702 76.4267462,112.333049 76.4267462,112.077513 L76.4267462,87.0349233 C76.4267462,86.7793867 76.6183986,86.5877342 76.8739353,86.5877342 L78.9182283,86.5877342 C79.1098807,86.5877342 79.2376491,86.6516184 79.3015332,86.7793867 L89.011925,103.069847 L98.7223169,86.7793867 C98.786201,86.6516184 98.9778535,86.5877342 99.1056218,86.5877342 L101.086031,86.5877342 Z M115.715503,94.1899489 C120.698467,94.1899489 124.403748,98.1507666 124.467632,103.517036 C124.467632,103.900341 124.467632,104.283646 124.403748,104.666951 C124.339864,104.794719 124.27598,104.922487 124.148211,104.986371 C124.020443,105.050256 123.892675,105.050256 123.82879,105.050256 L109.902044,105.050256 C110.477002,108.052811 112.712947,109.969336 115.779387,109.969336 C117.887564,109.969336 119.612436,109.074957 120.315162,107.605622 C120.379046,107.477853 120.506814,107.350085 120.698467,107.350085 L123.445486,107.350085 C123.637138,107.350085 123.764906,107.413969 123.82879,107.541738 C123.892675,107.669506 123.956559,107.797274 123.892675,107.925043 C122.806644,111.055366 119.612436,113.035775 115.715503,113.035775 C110.413118,113.035775 106.4523,108.947189 106.4523,103.58092 C106.4523,98.2146508 110.413118,94.1899489 115.715503,94.1899489 Z M115.587734,97.2563884 C112.265758,97.2563884 110.349233,99.6839864 109.83816,102.175468 L120.890119,102.175468 C120.506814,99.109029 118.462521,97.2563884 115.587734,97.2563884 Z M140.11925,109.522147 C140.247019,109.586031 140.310903,109.713799 140.374787,109.841567 L140.758092,112.013629 C140.821976,112.269165 140.630324,112.460818 140.438671,112.524702 C138.841567,112.908007 137.819421,113.099659 136.605622,113.099659 C132.453152,113.099659 130.28109,110.672061 130.28109,106.008518 L130.28109,97.7035775 L126.192504,97.7035775 C125.936968,97.7035775 125.745315,97.511925 125.745315,97.2563884 L125.745315,95.0843271 C125.745315,94.8287905 125.936968,94.637138 126.192504,94.637138 L130.28109,94.637138 L130.28109,88.7597956 C130.28109,88.5042589 130.472743,88.3126065 130.728279,88.3126065 L133.219761,88.3126065 C133.475298,88.3126065 133.666951,88.5042589 133.666951,88.7597956 L133.666951,94.637138 L139.672061,94.637138 C139.927598,94.637138 140.11925,94.8287905 140.11925,95.0843271 L140.11925,97.2563884 C140.11925,97.511925 139.927598,97.7035775 139.672061,97.7035775 L133.666951,97.7035775 L133.666951,106.008518 C133.666951,108.755537 134.689097,109.905451 137.052811,109.905451 C137.819421,109.905451 138.841567,109.713799 139.79983,109.458262 C139.863714,109.458262 139.991482,109.458262 140.11925,109.522147 Z M153.982112,94.1899489 C154.173765,94.1899489 154.365417,94.3816014 154.493186,94.637138 L154.493186,97.0008518 C154.493186,97.2563884 154.301533,97.4480409 154.045997,97.4480409 C151.426746,97.511925 149.190801,98.7896082 147.785349,101.089438 L147.785349,112.077513 C147.785349,112.333049 147.593697,112.524702 147.33816,112.524702 L144.846678,112.524702 C144.591141,112.524702 144.399489,112.333049 144.399489,112.077513 L144.399489,95.0843271 C144.399489,94.8287905 144.591141,94.637138 144.846678,94.637138 L147.33816,94.637138 C147.593697,94.637138 147.785349,94.8287905 147.785349,95.0843271 L147.785349,96.8091993 C149.382453,95.0843271 151.554514,94.1899489 153.982112,94.1899489 Z M165.545145,94.1899489 C170.84753,94.1899489 175,98.3424191 175,103.58092 C175,108.947189 170.84753,113.099659 165.545145,113.099659 C160.178876,113.099659 156.026405,108.883305 156.026405,103.58092 C156.026405,98.3424191 160.24276,94.1899489 165.545145,94.1899489 Z M165.545145,109.905451 C168.931005,109.905451 171.61414,107.158433 171.61414,103.58092 C171.61414,100.131175 168.931005,97.3841567 165.545145,97.3841567 C162.159284,97.3841567 159.47615,100.131175 159.47615,103.58092 C159.47615,107.094549 162.159284,109.905451 165.545145,109.905451 Z M45.1235094,71 C56.4948893,71 65.2470187,80.3270869 65.1831346,91.0596252 L65.1831346,108.627768 C65.1831346,119.488075 56.4948893,128.751278 45.1235094,128.751278 C33.6243612,128.751278 25,119.488075 25,108.308348 L25,91.1873935 C25,79.9437819 34.1354344,71 45.1235094,71 Z M29.2163543,84.032368 C29.088586,84.3517888 29.4080068,84.7989779 29.8551959,84.5434412 C29.9829642,84.4795571 35.4131175,80.9659284 35.4131175,80.9659284 C35.7325383,80.774276 36.1797274,80.774276 36.6269165,80.9659284 C38.7350937,81.9241908 44.8040886,84.6712095 44.9957411,84.7350937 C45.1235094,84.7989779 45.1873935,84.7989779 45.3151618,84.7350937 C45.5068143,84.6712095 51.511925,81.9241908 53.5562181,80.9659284 C53.939523,80.774276 54.3867121,80.774276 54.7061329,80.9659284 L60.5195911,84.5434412 C60.9028961,84.7989779 61.2223169,84.3517888 61.0945486,84.032368 C58.6669506,78.4744463 52.5979557,73.6831346 45.1235094,73.6831346 C37.7129472,73.6831346 31.7717206,78.346678 29.2163543,84.032368 Z M38.1601363,92.0817717 L44.9318569,96.8730835 C45.0596252,96.9369676 45.2512777,96.9369676 45.379046,96.8730835 L51.9591141,92.1456559 C52.6618399,91.6345826 53.0451448,90.8679727 53.0451448,90.0374787 L53.0451448,86.076661 C53.0451448,85.1183986 52.0229983,84.4156729 51.1286201,84.7989779 L45.379046,87.6737649 C45.2512777,87.7376491 45.1235094,87.7376491 44.9957411,87.6737649 L39.0545145,84.7989779 C38.0962521,84.4156729 37.0741056,85.0545145 37.0741056,86.076661 L37.0741056,89.9735945 C37.0741056,90.8040886 37.4574106,91.5706985 38.1601363,92.0817717 Z M44.0374787,99.2367973 C44.0374787,99.0451448 43.9735945,98.9173765 43.9097104,98.8534923 L37.8407155,94.7010221 C37.5212947,94.4454855 37.1379898,94.7010221 37.1379898,95.0204429 L37.1379898,101.856048 C37.1379898,102.0477 37.1379898,102.175468 37.2657581,102.239353 L43.334753,106.519591 C43.6541738,106.775128 44.0374787,106.519591 44.0374787,106.20017 L44.0374787,99.2367973 Z M27.6831346,91.1235094 L27.6831346,95.2759796 C27.6831346,95.5954003 28.0025554,95.7870528 28.3219761,95.6592845 L34.5826235,91.6345826 C34.7103918,91.5068143 34.774276,91.379046 34.774276,91.2512777 L34.774276,84.862862 C34.774276,84.4156729 34.390971,84.2879046 34.0715503,84.4795571 L28.0664395,88.3764906 C28.0025554,88.4403748 27.8747871,88.5681431 27.8747871,88.6959114 C27.8109029,89.0792164 27.6831346,89.9735945 27.6831346,91.1235094 Z M27.7470187,105.944634 C27.7470187,106.20017 28.0025554,106.455707 28.3858603,106.327939 L34.6465077,102.303237 C34.774276,102.239353 34.8381601,102.111584 34.8381601,101.919932 L34.8381601,95.0204429 C34.8381601,94.637138 34.4548552,94.4454855 34.1993186,94.637138 L28.0025554,98.7896082 C27.8747871,98.8534923 27.7470187,98.9812606 27.7470187,99.2367973 L27.7470187,105.944634 Z M50.8730835,125.045997 C51.2563884,124.854344 51.1925043,124.343271 50.8730835,124.279387 C46.5289608,123.193356 43.4625213,121.085179 39.1183986,121.596252 C37.5212947,121.787905 36.6269165,122.107325 35.7964225,122.554514 C35.5408859,122.682283 35.4770017,123.065588 35.7325383,123.25724 C38.4795571,125.045997 42.120954,126.004259 45.1873935,126.004259 C47.4872232,126.004259 49.3398637,125.55707 50.8730835,125.045997 Z M59.4335605,118.593697 C59.5613288,118.33816 59.3057922,117.890971 58.9224872,117.890971 C57.6448041,118.274276 56.8143101,118.33816 55.5366269,118.33816 C49.1482112,118.33816 44.6763203,115.207836 38.032368,115.207836 C34.1993186,115.207836 31.8994889,116.229983 30.4301533,116.996593 C30.2385009,117.124361 30.2385009,117.443782 30.302385,117.57155 C31.132879,118.913118 31.8994889,119.87138 32.9855196,120.957411 C33.1132879,121.085179 33.3049404,121.149063 33.4965928,121.021295 C34.6465077,120.254685 36.3713799,119.424191 38.862862,119.10477 C45.1873935,118.33816 49.4037479,122.554514 54.8339012,122.618399 C55.2810903,122.618399 55.6005111,122.49063 55.983816,122.235094 C57.5170358,121.021295 58.2836457,120.190801 59.4335605,118.593697 Z M61.7333901,113.866269 C62.0528109,112.780239 62.2444634,111.694208 62.3722317,110.480409 C62.4361158,110.160988 62.2444634,109.969336 61.9250426,109.969336 L56.6865417,109.969336 C56.4948893,109.969336 56.3032368,109.841567 56.3032368,109.586031 L56.3032368,103.517036 C56.3032368,103.325383 56.1754685,103.133731 55.9199319,103.133731 L52.725724,103.133731 C52.5340716,103.133731 52.3424191,103.261499 52.3424191,103.517036 L52.3424191,109.649915 C52.3424191,109.905451 52.1507666,110.097104 51.89523,110.097104 L44.2291312,110.097104 C43.9735945,110.097104 43.7180579,109.969336 43.5902896,109.905451 L37.649063,105.43356 C37.3935264,105.178024 37.0102215,105.43356 37.0102215,105.752981 L37.0102215,109.713799 C37.0102215,109.969336 36.818569,110.160988 36.6269165,110.160988 L35.1575809,110.160988 C34.9659284,110.160988 34.774276,109.905451 34.774276,109.713799 L34.774276,105.689097 C34.774276,105.43356 34.4548552,105.178024 34.1354344,105.369676 L28.0025554,109.26661 C27.7470187,109.394378 27.6831346,109.522147 27.7470187,109.969336 C27.8747871,111.694208 28.1942078,113.099659 28.7691652,114.632879 C28.8330494,114.824532 29.088586,115.016184 29.3441227,114.888416 C31.132879,113.930153 33.8160136,112.971891 38.0962521,112.971891 C44.9957411,112.971891 49.0843271,115.910562 55.5366269,115.910562 C58.2197615,115.910562 59.6252129,115.655026 61.0945486,114.696763 C61.3500852,114.568995 61.669506,114.18569 61.7333901,113.866269 Z M62.5,107.286201 L62.5,99.2367973 C62.5,99.0451448 62.4361158,98.8534923 62.2444634,98.725724 L54.3867121,93.6149915 C54.1950596,93.4872232 54.0672913,93.4872232 53.8756388,93.6149915 L46.4650767,98.8534923 C46.3373083,98.9173765 46.3373083,99.0451448 46.3373083,99.1729131 L46.3373083,107.286201 C46.3373083,107.541738 46.5289608,107.73339 46.7844974,107.73339 L49.850937,107.73339 C50.0425894,107.73339 50.2342419,107.605622 50.2342419,107.350085 L50.2342419,101.153322 C50.2342419,100.96167 50.3620102,100.770017 50.6175468,100.770017 L58.1558773,100.770017 C58.3475298,100.770017 58.5391823,100.897785 58.5391823,101.153322 L58.5391823,107.350085 C58.5391823,107.541738 58.7308348,107.73339 58.9863714,107.73339 L62.0528109,107.73339 C62.3083475,107.73339 62.5,107.477853 62.5,107.286201 Z M62.5,95.4037479 L62.5,90.9957411 C62.5,90.2291312 62.4361158,89.4625213 62.3722317,88.7597956 C62.3722317,88.6959114 62.3083475,88.5681431 62.1805792,88.5042589 L55.983816,84.4795571 C55.6643952,84.2240204 55.2810903,84.4795571 55.2810903,84.7989779 L55.2810903,91.1235094 C55.2810903,91.3151618 55.4088586,91.5068143 55.5366269,91.5706985 L61.8611584,95.7231687 C62.1805792,95.9148211 62.5,95.6592845 62.5,95.4037479 Z" fill="#435E74" fill-rule="nonzero"></path>
    </g>
</svg>
