<?xml version="1.0" encoding="UTF-8"?>
<svg width="200px" height="200px" viewBox="0 0 200 200" version="1.1" xmlns="http://www.w3.org/2000/svg" xmlns:xlink="http://www.w3.org/1999/xlink">
    <!-- Generator: Sketch 53 (72520) - https://sketchapp.com -->
    <title>logo/navex</title>
    <desc>Created with Sketch.</desc>
    <g id="logo/navex" stroke="none" stroke-width="1" fill="none" fill-rule="evenodd">
        <g id="Page-1" transform="translate(15.000000, 79.000000)" fill="#435E74">
            <path d="M168.367056,13.8016164 C168.432717,13.7732831 168.490283,13.7350556 168.537955,13.6882831 C168.587426,13.6397116 168.626553,13.5803466 168.654437,13.511537 C168.68277,13.4422778 168.697161,13.3617751 168.697161,13.2659815 C168.697161,13.0829392 168.644542,12.9381243 168.542452,12.8360344 C168.438563,12.7348439 168.272161,12.6840238 168.046844,12.6840238 L167.27105,12.6840238 L167.27105,14.6534153 L167.659622,14.6534153 L167.659622,13.8614312 L167.860653,13.8614312 L168.3765,14.6174365 L168.399886,14.6534153 L168.7165,14.6534153 C168.625653,14.7276217 168.525362,14.7874365 168.412029,14.8369074 C168.110257,14.9655317 167.728431,14.9659815 167.429807,14.8369074 C167.275098,14.7703466 167.140177,14.6795 167.028193,14.5666164 C166.915759,14.4541825 166.824913,14.3197116 166.758352,14.1659021 C166.69359,14.0152407 166.66031,13.8501878 166.66031,13.6756905 C166.66031,13.5002937 166.69359,13.3352407 166.757902,13.1845794 C166.824463,13.0325688 166.91531,12.8971984 167.028193,12.7834153 C167.140627,12.6709815 167.275098,12.5805847 167.428907,12.5135741 C167.581368,12.4483624 167.746421,12.4155317 167.920019,12.4155317 C168.094066,12.4155317 168.260019,12.4483624 168.412029,12.5135741 C168.56359,12.5792354 168.698511,12.670082 168.813193,12.7838651 C168.924278,12.8949497 169.014675,13.0298704 169.081685,13.1845794 C169.147796,13.3374894 169.180627,13.5029921 169.180627,13.6756905 C169.180627,13.8488386 169.147347,14.0134418 169.081235,14.1659021 C169.015574,14.3201614 168.925627,14.455082 168.813193,14.5666164 C168.809146,14.570664 168.804648,14.5747116 168.80105,14.5783095 L168.2915,13.8308492 C168.318034,13.8223042 168.34322,13.8119603 168.367056,13.8016164 M168.050442,13.4917487 C167.991976,13.4957963 167.933061,13.498045 167.870098,13.498045 L167.659622,13.498045 L167.659622,13.0474101 L167.983881,13.0474101 C168.024807,13.0474101 168.067532,13.0514577 168.113405,13.0604524 C168.152082,13.0676481 168.186712,13.0811402 168.219542,13.1004788 C168.245627,13.1153201 168.266765,13.1351085 168.284754,13.1634418 C168.300045,13.1881772 168.30769,13.2223571 168.30769,13.2659815 C168.30769,13.3257963 168.298246,13.367172 168.278008,13.3928069 C168.255521,13.4224894 168.225839,13.4449762 168.19031,13.4602672 C168.148034,13.4782566 168.102161,13.4886005 168.050442,13.4917487 M169.437876,13.0343677 C169.351077,12.8364841 169.232347,12.6601878 169.083934,12.5117751 C168.932823,12.3615635 168.757876,12.2428333 168.561791,12.1573836 C168.168272,11.9873836 167.672214,11.9873836 167.278246,12.1573836 C167.079913,12.2446323 166.905415,12.3638122 166.757452,12.5117751 C166.609939,12.6583889 166.49031,12.8342354 166.402611,13.033918 C166.315812,13.2313519 166.272188,13.4472249 166.272188,13.6756905 C166.272188,13.9037063 166.315812,14.1191296 166.402611,14.3170132 C166.490759,14.5171455 166.610389,14.6925423 166.757452,14.8382566 C166.904966,14.9862196 167.079913,15.1058492 167.278246,15.1930979 C167.479278,15.2803466 167.695601,15.3239709 167.920019,15.3239709 C168.144886,15.3239709 168.36031,15.2803466 168.562241,15.1930979 C168.757426,15.1080979 168.932823,14.988918 169.083934,14.8391561 C169.232347,14.6902937 169.351077,14.5148968 169.437876,14.3165635 C169.525124,14.1164312 169.569648,13.9005582 169.569648,13.6756905 C169.569648,13.4499233 169.524675,13.2345 169.437876,13.0343677" id="Fill-1"></path>
            <path d="M165.275844,36.6906772 C164.853992,36.5413651 164.473516,36.4451217 164.130368,36.357873 C163.322643,36.1527937 162.965553,36.0448571 162.965553,35.6324497 C162.965553,35.1157037 163.49759,34.9322116 163.994997,34.9322116 C164.48431,34.9322116 165.080209,35.0612857 165.138675,35.6760741 L165.150817,35.7970529 L166.086267,35.7970529 L166.075024,35.6531376 C165.998569,34.635836 165.301029,34.0979524 164.057061,34.0979524 C163.076638,34.0979524 162.028754,34.511709 162.028754,35.6729259 C162.028754,36.7752275 163.034362,37.0171852 163.77013,37.1948307 L163.942378,37.2330582 C164.672749,37.393164 165.303278,37.5321323 165.303278,38.1140899 C165.303278,38.7324762 164.692537,39.0095132 164.087643,39.0095132 C163.522325,39.0095132 162.838278,38.8579524 162.790156,38.1356772 L162.782511,38.0106508 L161.850209,38.0106508 L161.852907,38.1473704 C161.876294,39.3998836 162.98804,39.8442222 163.932934,39.8442222 C165.081108,39.8442222 166.240526,39.280254 166.240526,38.020545 C166.240526,37.4066561 165.870844,36.8966561 165.275844,36.6906772 L165.275844,36.6906772 Z M160.545976,39.0095132 C160.348542,39.0095132 160.201029,38.9604921 160.106135,38.8637989 C160.010791,38.7662063 159.964468,38.6141958 159.968966,38.4122646 L159.968966,35.0860212 L161.143225,35.0860212 L161.143225,34.2522116 L159.968966,34.2522116 L159.968966,32.8130582 L159.082987,33.1971323 L159.082987,34.2522116 L158.053542,34.2522116 L158.053542,35.0860212 L159.082987,35.0860212 L159.082987,38.282291 C159.081188,38.707291 159.078939,39.1889577 159.397802,39.509619 C159.62177,39.7349365 159.966717,39.8442222 160.452881,39.8442222 C160.691241,39.8442222 160.944892,39.7916032 161.114892,39.7475291 L161.215183,39.7214444 L161.215183,38.901127 L161.041585,38.9541958 C160.885077,39.0027672 160.703384,39.0095132 160.545976,39.0095132 L160.545976,39.0095132 Z M157.008807,34.0979524 C156.598198,34.1145926 156.206929,34.3327143 155.945183,34.6866561 L155.927643,34.2522116 L155.018278,34.2522116 L155.026373,34.394328 C155.03177,34.481127 155.037616,34.5715238 155.044812,34.6686667 C155.06505,34.9551481 155.085738,35.2519735 155.078093,35.5496984 L155.078093,39.689963 L155.963622,39.689963 L155.963622,36.4491693 C155.98341,35.4849365 156.452034,34.9326614 157.250765,34.9326614 C157.315976,34.9326614 157.390183,34.943455 157.46214,34.9533492 C157.516108,34.9614444 157.569177,34.9681905 157.620447,34.9731376 L157.765262,34.9852804 L157.765262,34.1150423 L157.637987,34.1082963 C157.424812,34.0975026 157.212537,34.0885079 157.008807,34.0979524 L157.008807,34.0979524 Z M152.892378,36.4154392 C152.777696,35.4718942 152.221373,34.9326614 151.361029,34.9326614 C150.437272,34.9326614 149.994733,35.6909153 149.884997,36.4154392 L152.892378,36.4154392 Z M151.351135,34.0979524 C152.95759,34.0979524 153.842669,35.169672 153.842669,37.1152275 L153.842669,37.2492487 L149.852616,37.2492487 C149.945712,38.7796984 150.925235,39.0095132 151.504944,39.0095132 C152.162458,39.0095132 152.722378,38.5453862 152.868093,37.8802275 L152.891029,37.7749894 L153.819283,37.7749894 L153.776108,37.9418413 C153.446452,39.2222381 152.639177,39.844672 151.30931,39.844672 C149.652034,39.844672 148.910421,38.4019206 148.910421,36.9717619 C148.910421,35.5874762 149.674071,34.0979524 151.351135,34.0979524 L151.351135,34.0979524 Z M147.118225,36.8786667 C147.118225,35.9373704 146.739098,34.9322116 145.675923,34.9322116 C144.25296,34.9322116 144.142775,36.3983492 144.142775,36.8476349 C144.142775,37.6549101 144.354151,39.0090635 145.769468,39.0090635 C147.020632,39.0090635 147.118225,37.3783228 147.118225,36.8786667 L147.118225,36.8786667 Z M145.80005,34.0979524 C147.464521,34.0979524 148.054574,35.6346984 148.054574,36.9501746 C148.054574,38.3906772 147.366929,39.8442222 145.831082,39.8442222 C145.174918,39.8442222 144.578569,39.5847249 144.142775,39.1111534 L144.142775,41.6661005 L143.256796,41.6661005 L143.256796,35.5496984 C143.263992,35.2510741 143.242405,34.9407566 143.223516,34.6677672 L143.222616,34.6560741 C143.21587,34.5656772 143.210024,34.4784286 143.204627,34.3938783 L143.196082,34.2517619 L144.106347,34.2517619 L144.128833,34.8089841 C144.532246,34.3623968 145.150183,34.0979524 145.80005,34.0979524 L145.80005,34.0979524 Z M142.461664,34.2522116 L141.479892,34.2522116 L139.993966,36.2409418 L138.556611,34.2661534 L138.546717,34.2522116 L137.38595,34.2522116 L139.39222,36.9101481 L137.48759,39.4399101 L137.238437,39.6895132 L138.330844,39.6895132 L139.890077,37.5384286 L141.469098,39.6755714 L141.479442,39.6895132 L142.630315,39.6895132 L140.509812,36.8876614 L142.461664,34.2522116 Z M132.815738,36.1577407 L136.420368,36.1577407 L136.420368,35.2717619 L132.815738,35.2717619 L132.815738,32.8724233 L136.564283,32.8724233 L136.564283,31.9864444 L131.878489,31.9864444 L131.878489,39.6895132 L136.718992,39.6895132 L136.718992,38.8039841 L132.815738,38.8039841 L132.815738,36.1577407 Z M126.469071,36.4154392 C126.354839,35.4718942 125.798966,34.9326614 124.938172,34.9326614 C124.013516,34.9326614 123.571426,35.6909153 123.46214,36.4154392 L126.469071,36.4154392 Z M124.928278,34.0979524 C126.534733,34.0979524 127.419812,35.169672 127.419812,37.1152275 L127.419812,37.2492487 L123.429759,37.2492487 C123.523304,38.7796984 124.502378,39.0095132 125.082087,39.0095132 C125.739601,39.0095132 126.299521,38.5453862 126.444786,37.8802275 L126.467722,37.7749894 L127.396426,37.7749894 L127.353251,37.9418413 C127.023595,39.2222381 126.21632,39.844672 124.886003,39.844672 C123.229177,39.844672 122.487563,38.4019206 122.487563,36.9717619 C122.487563,35.5874762 123.251214,34.0979524 124.928278,34.0979524 L124.928278,34.0979524 Z M120.778569,37.9287989 C120.731347,38.5750688 120.217749,39.0090635 119.50087,39.0090635 C118.581611,39.0090635 118.100844,37.9787196 118.100844,36.9605185 C118.100844,35.9522116 118.581611,34.9322116 119.50087,34.9322116 C120.302749,34.9322116 120.732696,35.2848042 120.778569,35.980545 L120.786664,36.1055714 L121.721214,36.1055714 L121.714918,35.9657037 C121.663198,34.8481111 120.814098,34.0979524 119.60386,34.0979524 C117.927246,34.0979524 117.163146,35.5874762 117.163146,36.9713122 C117.163146,38.4014709 117.905209,39.8442222 119.562934,39.8442222 C120.815447,39.8442222 121.539521,39.2096455 121.714019,37.9571323 L121.734706,37.8051217 L120.787563,37.8051217 L120.778569,37.9287989 Z M114.04378,34.0979524 C113.423146,34.0979524 112.900103,34.3363122 112.525923,34.7878466 L112.504786,34.2522116 L111.594071,34.2522116 L111.61431,34.5791693 C111.633198,34.8795926 111.654786,35.2200423 111.654786,35.5496984 L111.654786,39.689963 L112.540765,39.689963 L112.540765,36.5804921 C112.540765,35.8204392 112.893807,34.9326614 113.889521,34.9326614 C114.668013,34.9326614 115.11505,35.4017354 115.11505,36.2198042 L115.11505,39.689963 L116.00013,39.689963 L116.00013,36.3227937 C116.00013,34.9088254 115.287299,34.0979524 114.04378,34.0979524 L114.04378,34.0979524 Z M108.888913,38.6402804 C109.186638,38.3250159 109.326056,37.802873 109.303119,37.0877937 C109.232061,37.0891429 109.156505,37.0895926 109.077802,37.0900423 C107.90714,37.099037 106.857008,37.1835873 106.857008,38.1140899 C106.857008,38.7743016 107.388595,39.0095132 107.886003,39.0095132 C108.320447,39.0095132 108.657749,38.8853862 108.888913,38.6402804 L108.888913,38.6402804 Z M110.216981,39.2887989 C110.222828,39.3778466 110.229124,39.4646455 110.234071,39.5478466 L110.242167,39.689963 L109.331902,39.689963 L109.31841,39.1889577 C109.004495,39.5253598 108.427034,39.844672 107.77222,39.844672 C106.681611,39.844672 105.91886,39.1327407 105.91886,38.1140899 C105.91886,37.3945132 106.338913,36.7905185 107.042749,36.4977407 C107.572987,36.2674762 108.201717,36.2647778 108.810209,36.2625291 L108.84304,36.2625291 C109.000447,36.2620794 109.150209,36.2616296 109.297272,36.2566825 L109.297272,35.9099365 C109.245553,35.2164444 108.929389,34.9326614 108.205765,34.9326614 C107.494733,34.9326614 107.134495,35.1795661 107.071532,35.7098042 L107.05804,35.8280847 L106.124839,35.8280847 L106.147325,35.6747249 C106.295738,34.657873 107.030156,34.0979524 108.215659,34.0979524 C108.886214,34.0979524 109.396214,34.2715503 109.732167,34.6128995 C110.041135,34.9272646 110.193146,35.3752011 110.183251,35.9432169 L110.183251,38.3924762 C110.175156,38.6982963 110.197193,39.0122116 110.216981,39.2887989 L110.216981,39.2887989 Z M103.91169,33.0271323 L104.900659,33.0271323 L104.900659,31.9864444 L103.91169,31.9864444 L103.91169,33.0271323 Z M103.962511,39.6895132 L104.848489,39.6895132 L104.848489,34.2522116 L103.962511,34.2522116 L103.962511,39.6895132 Z M101.543384,39.6895132 L102.429362,39.6895132 L102.429362,31.9864444 L101.543384,31.9864444 L101.543384,39.6895132 Z M97.9904735,34.9326614 C96.5675106,34.9326614 96.4564259,36.3983492 96.4564259,36.8480847 C96.4564259,37.6558095 96.6678016,39.009963 98.083119,39.009963 C99.3351825,39.009963 99.4327751,37.3787725 99.4327751,36.8791164 C99.4327751,35.9378201 99.0536481,34.9326614 97.9904735,34.9326614 L97.9904735,34.9326614 Z M98.1141508,34.0979524 C99.7786217,34.0979524 100.368675,35.6346984 100.368675,36.9506243 C100.368675,38.391127 99.6810291,39.844672 98.1456323,39.844672 C97.4885688,39.844672 96.8922196,39.5847249 96.4564259,39.1116032 L96.4564259,41.667 L95.5708968,41.667 L95.5708968,35.5501481 C95.5785423,35.252873 95.556955,34.9439048 95.5376164,34.6718148 L95.5371667,34.6565238 C95.5304206,34.566127 95.5241243,34.4788783 95.5187275,34.394328 L95.511082,34.2526614 L96.4204471,34.2526614 L96.4429339,34.8098836 C96.8467963,34.3628466 97.4651825,34.0979524 98.1141508,34.0979524 L98.1141508,34.0979524 Z M92.2248651,34.0979524 C91.5597063,34.0979524 90.9386217,34.4482963 90.4713466,35.0851217 C90.1610291,34.4748307 89.5134101,34.0979524 88.7650503,34.0979524 C88.1435159,34.0979524 87.6204735,34.3367619 87.2467434,34.7891958 L87.2247063,34.2522116 L86.315791,34.2522116 L86.3360291,34.5998571 C86.3535688,34.8777937 86.3747063,35.2240899 86.3747063,35.5496984 L86.3747063,39.689963 L87.2611349,39.689963 L87.2611349,36.5804921 C87.2611349,35.8204392 87.6141772,34.9326614 88.6098915,34.9326614 C89.3883836,34.9326614 89.8349709,35.4017354 89.8349709,36.2198042 L89.8349709,39.689963 L90.7209497,39.689963 L90.7209497,36.5804921 C90.7209497,35.8204392 91.0739921,34.9326614 92.0697063,34.9326614 C92.8481984,34.9326614 93.2952354,35.4017354 93.2952354,36.2198042 L93.2952354,39.689963 L94.1807646,39.689963 L94.1807646,36.3227937 C94.1807646,34.9088254 93.4683836,34.0979524 92.2248651,34.0979524 L92.2248651,34.0979524 Z M84.3054735,36.9713122 C84.3054735,35.9890899 83.803119,34.9322116 82.6994683,34.9322116 C81.5958175,34.9322116 81.0930132,35.9890899 81.0930132,36.9713122 C81.0930132,37.9530847 81.5958175,39.0090635 82.6994683,39.0090635 C83.803119,39.0090635 84.3054735,37.9530847 84.3054735,36.9713122 L84.3054735,36.9713122 Z M82.6994683,34.0975026 C84.4471402,34.0975026 85.243172,35.5870265 85.243172,36.9713122 C85.243172,38.3551481 84.4471402,39.8442222 82.6994683,39.8442222 C80.952246,39.8442222 80.1557646,38.3551481 80.1557646,36.9713122 C80.1557646,35.5870265 80.952246,34.0975026 82.6994683,34.0975026 L82.6994683,34.0975026 Z M78.3667169,37.7273175 C78.1845741,38.6348836 77.3683042,38.9586931 76.664918,38.9586931 C74.4863995,38.9586931 74.3172989,36.5701481 74.3172989,35.8379788 C74.3172989,35.1062593 74.4863995,32.7177143 76.664918,32.7177143 C77.5787804,32.7177143 78.1836746,33.1521587 78.2826164,33.879381 L78.2988069,33.994963 L79.2805794,33.994963 L79.2697857,33.8505979 C79.1555529,32.362873 77.8490714,31.8330847 76.664918,31.8330847 C74.2053148,31.8330847 73.3287804,33.9018677 73.3287804,35.8379788 C73.3287804,37.7749894 74.2053148,39.8442222 76.664918,39.8442222 C78.0348122,39.8442222 79.1393624,38.9942222 79.3507381,37.7763386 L79.378172,37.6198307 L78.3883042,37.6198307 L78.3667169,37.7273175 Z M68.2112407,36.8480847 C68.2112407,36.3987989 68.1006058,34.9326614 66.6771931,34.9326614 C65.358119,34.9326614 65.2560291,36.4221852 65.2560291,36.8791164 C65.2560291,37.5199894 65.3851032,39.009963 66.5845476,39.009963 C67.9998651,39.009963 68.2112407,37.6553598 68.2112407,36.8480847 L68.2112407,36.8480847 Z M69.1179074,38.3924762 C69.1179074,38.7194339 69.1385952,39.0562857 69.1570344,39.3531111 L69.1772725,39.689963 L68.2679074,39.689963 L68.2436217,39.0981111 C67.809627,39.5802275 67.2200238,39.844672 66.5746534,39.844672 C65.0163201,39.844672 64.3192302,38.391127 64.3192302,36.9510741 C64.3192302,35.6351481 64.9097328,34.0979524 66.5746534,34.0979524 C67.2159762,34.0979524 67.8280661,34.357 68.2314788,34.7950423 L68.2314788,31.9868942 L69.1179074,31.9868942 L69.1179074,38.3924762 L69.1179074,38.3924762 Z M61.1989656,34.0979524 C60.577881,34.0979524 60.0548386,34.3367619 59.6811085,34.788746 L59.6595212,34.2522116 L58.7501561,34.2522116 L58.7703942,34.5890635 C58.7888333,34.8863386 58.8099709,35.2227407 58.8099709,35.5496984 L58.8099709,39.689963 L59.6955,39.689963 L59.6955,36.5804921 C59.6955,35.8204392 60.0485423,34.9326614 61.0438069,34.9326614 C61.8227487,34.9326614 62.2702354,35.4017354 62.2702354,36.2198042 L62.2702354,39.689963 L63.1548651,39.689963 L63.1548651,36.3227937 C63.1548651,34.9088254 62.4420344,34.0979524 61.1989656,34.0979524 L61.1989656,34.0979524 Z M56.0436481,38.6407302 C56.341373,38.3254656 56.4803413,37.8033228 56.456955,37.0882434 C56.3863466,37.0891429 56.3112407,37.0895926 56.2320873,37.0904921 C55.0618757,37.099037 54.0112937,37.1835873 54.0112937,38.1140899 C54.0112937,38.7743016 54.5437804,39.009963 55.0411878,39.009963 C55.4756323,39.009963 55.8124841,38.8853862 56.0436481,38.6407302 L56.0436481,38.6407302 Z M57.3708175,39.2789048 C57.3775635,39.3746984 57.3843095,39.4632963 57.3892566,39.5482963 L57.3964524,39.689963 L56.4861878,39.689963 L56.4726958,39.1889577 C56.1596799,39.5258095 55.5826693,39.844672 54.9278545,39.844672 C53.8367963,39.844672 53.0744947,39.1327407 53.0744947,38.1140899 C53.0744947,37.394963 53.4936481,36.7909683 54.1974841,36.4977407 C54.7277222,36.2679259 55.3569021,36.2652275 55.9649444,36.2629788 L55.9977751,36.2629788 C56.1551825,36.2620794 56.3044947,36.2620794 56.4515582,36.2566825 L56.4515582,35.9103862 C56.4007381,35.2164444 56.0845741,34.9326614 55.3600503,34.9326614 C54.6494683,34.9326614 54.2892302,35.1795661 54.2262672,35.710254 L54.2132249,35.8285344 L53.2800238,35.8285344 L53.3020608,35.6751746 C53.4504735,34.657873 54.1848915,34.0979524 55.3708439,34.0979524 C56.0409497,34.0979524 56.5513995,34.2715503 56.8873519,34.6133492 C57.1958704,34.9272646 57.3474312,35.3752011 57.337537,35.9432169 L57.337537,38.3924762 C57.3298915,38.6942487 57.3514788,39.0045661 57.3708175,39.2789048 L57.3708175,39.2789048 Z M48.3203413,36.6906772 C47.8989392,36.5413651 47.5180132,36.4451217 47.1748651,36.357873 C46.3671402,36.1527937 46.0100503,36.0448571 46.0100503,35.6324497 C46.0100503,35.1157037 46.5420873,34.9322116 47.0403942,34.9322116 C47.5292566,34.9322116 48.1247063,35.0612857 48.1836217,35.6760741 L48.1953148,35.7970529 L49.1307646,35.7970529 L49.1195212,35.6531376 C49.0430661,34.635836 48.3455265,34.0979524 47.1015582,34.0979524 C46.1211349,34.0979524 45.0728016,34.511709 45.0728016,35.6729259 C45.0728016,36.7747778 46.0788598,37.0171852 46.8150767,37.1948307 L46.9877751,37.2330582 C47.7176958,37.3936138 48.3482249,37.5321323 48.3482249,38.1140899 C48.3482249,38.7324762 47.7374841,39.0095132 47.1325899,39.0095132 C46.5672725,39.0095132 45.8832249,38.8579524 45.8342037,38.1356772 L45.8265582,38.0106508 L44.8951561,38.0106508 L44.8978545,38.1473704 C44.9203413,39.3998836 46.032537,39.8442222 46.9783307,39.8442222 C48.1265053,39.8442222 49.2850238,39.280254 49.2850238,38.020545 C49.2850238,37.4066561 48.9153413,36.8966561 48.3203413,36.6906772 L48.3203413,36.6906772 Z M43.2306852,37.9292487 C43.183463,38.5755185 42.6703148,39.0090635 41.9534365,39.0090635 C41.0337275,39.0090635 40.5529603,37.9787196 40.5529603,36.9609683 C40.5529603,35.9526614 41.0337275,34.9326614 41.9534365,34.9326614 C42.7553148,34.9326614 43.1848122,35.285254 43.2306852,35.9809947 L43.2383307,36.1055714 L44.1737804,36.1055714 L44.1674841,35.9657037 C44.1153148,34.8481111 43.266664,34.0979524 42.0559762,34.0979524 C40.3793624,34.0979524 39.6157116,35.5879259 39.6157116,36.9713122 C39.6157116,38.4014709 40.3577751,39.844672 42.0150503,39.844672 C43.2680132,39.844672 43.9916376,39.2096455 44.1665847,37.9571323 L44.1872725,37.8051217 L43.2396799,37.8051217 L43.2306852,37.9292487 Z M37.5046534,33.0271323 L38.493172,33.0271323 L38.493172,31.9864444 L37.5046534,31.9864444 L37.5046534,33.0271323 Z M37.5559233,39.6895132 L38.4414524,39.6895132 L38.4414524,34.2522116 L37.5559233,34.2522116 L37.5559233,39.6895132 Z M34.0754206,34.0979524 C33.4624312,34.0979524 32.9447857,34.3304656 32.571955,34.7721058 L32.571955,31.9868942 L31.6864259,31.9868942 L31.6864259,39.689963 L32.571955,39.689963 L32.571955,36.5804921 C32.571955,35.8204392 32.9254471,34.9326614 33.9207116,34.9326614 C34.6996534,34.9326614 35.1466905,35.4017354 35.1466905,36.2198042 L35.1466905,39.689963 L36.0322196,39.689963 L36.0322196,36.3227937 C36.0322196,34.9088254 35.3189392,34.0979524 34.0754206,34.0979524 L34.0754206,34.0979524 Z M30.0291508,39.0095132 C29.8321667,39.0095132 29.6846534,38.9604921 29.590209,38.8637989 C29.4944153,38.7657566 29.4480926,38.6141958 29.4525899,38.4122646 L29.4525899,35.0860212 L30.6263995,35.0860212 L30.6263995,34.2522116 L29.4525899,34.2522116 L29.4525899,32.8130582 L28.5670608,33.1971323 L28.5670608,34.2522116 L27.5367169,34.2522116 L27.5367169,35.0860212 L28.5670608,35.0860212 L28.5666111,38.2818413 C28.5648122,38.707291 28.5625635,39.1889577 28.8814259,39.509619 C29.1053942,39.7349365 29.450791,39.8442222 29.936955,39.8442222 C30.1748651,39.8442222 30.4280661,39.7916032 30.5985159,39.7475291 L30.6983571,39.7214444 L30.6983571,38.901127 L30.5247593,38.9541958 C30.3682513,39.0027672 30.1865582,39.0095132 30.0291508,39.0095132 L30.0291508,39.0095132 Z M22.8621667,36.1577407 L26.4667963,36.1577407 L26.4667963,35.2717619 L22.8621667,35.2717619 L22.8621667,32.8724233 L26.6107116,32.8724233 L26.6107116,31.9864444 L21.9253677,31.9864444 L21.9253677,39.6895132 L26.7649709,39.6895132 L26.7649709,38.8039841 L22.8621667,38.8039841 L22.8621667,36.1577407 Z M16.5159497,36.4154392 C16.4012672,35.4718942 15.8449444,34.9326614 14.9850503,34.9326614 C14.0612937,34.9326614 13.618754,35.6909153 13.5085688,36.4154392 L16.5159497,36.4154392 L16.5159497,36.4154392 Z M14.9747063,34.0979524 C16.5816111,34.0979524 17.4662407,35.169672 17.4662407,37.1152275 L17.4662407,37.2492487 L13.4766376,37.2492487 C13.5688333,38.7796984 14.5497063,39.0095132 15.1289656,39.0095132 C15.7864788,39.0095132 16.3463995,38.5453862 16.4912143,37.8802275 L16.5141508,37.7749894 L17.443754,37.7749894 L17.4010291,37.9418413 C17.0691243,39.2222381 16.2618492,39.844672 14.9333307,39.844672 C13.2756058,39.844672 12.5335423,38.4019206 12.5335423,36.9717619 C12.5335423,35.5874762 13.2971931,34.0979524 14.9747063,34.0979524 L14.9747063,34.0979524 Z M8.72203439,34.0979524 C8.10859524,34.0979524 7.59094974,34.3304656 7.21856878,34.7721058 L7.21856878,31.9868942 L6.33303968,31.9868942 L6.33303968,39.689963 L7.21856878,39.689963 L7.21856878,36.5804921 C7.21856878,35.8204392 7.57161111,34.9326614 8.5673254,34.9326614 C9.3462672,34.9326614 9.79330423,35.4017354 9.79330423,36.2198042 L9.79330423,39.689963 L10.6788333,39.689963 L10.6788333,36.3227937 C10.6788333,34.9088254 9.96555291,34.0979524 8.72203439,34.0979524 L8.72203439,34.0979524 Z M-0.000134920635,31.9868942 L5.70475926,31.9868942 L5.70475926,32.872873 L3.3467963,32.872873 L3.33645238,39.689963 L2.40999735,39.689963 L2.40999735,39.6548836 L2.3992037,32.872873 L-0.000134920635,32.872873 L-0.000134920635,31.9868942 Z" id="Fill-4"></path>
            <path d="M91.040037,12.1682222 L99.5832116,0.00017989418 L97.1442963,0.00017989418 L89.8158571,10.5424286 L82.2998783,0.0145714286 L82.2895344,0.00017989418 L79.7008571,0.00017989418 L88.5642434,12.1079577 L79.4840847,25.1898624 L81.9544815,25.1898624 L89.7551429,13.8691217 L97.778873,25.1750212 L97.7896667,25.1898624 L100.336069,25.1898624 L91.040037,12.1682222 Z M64.899164,12.9772963 L77.1121799,12.9772963 L77.1121799,11.0920053 L64.899164,11.0920053 L64.899164,1.8854709 L77.5524709,1.8854709 L77.5524709,0.00017989418 L62.8114921,0.00017989418 L62.8114921,25.1898624 L78.0948519,25.1898624 L78.0948519,23.303672 L64.899164,23.303672 L64.899164,12.9772963 Z M49.7444286,22.436582 L41.1131058,0.0226666667 L41.1041111,0.00017989418 L38.8968095,0.00017989418 L48.7293757,25.1678254 L48.7383704,25.1903122 L50.8584233,25.1903122 L60.4715185,0.0474021164 L60.4899577,0.00017989418 L58.2858042,0.00017989418 L49.7444286,22.436582 Z M16.4945873,21.8802593 L2.67016931,0.0163703704 L2.6598254,0.00017989418 L0.278925926,0.00017989418 L0.278925926,25.1903122 L2.30048677,25.1903122 L2.30048677,3.34171429 L16.1226561,25.1741217 L16.133,25.1903122 L18.5143492,25.1903122 L18.5143492,0.00017989418 L16.4945873,0.00017989418 L16.4945873,21.8802593 Z M32.9688466,0.00107936508 L31.1019947,0.00107936508 L20.8250899,25.1885132 L23.1038995,25.1885132 L23.1871005,24.9793862 C23.2082381,24.9263175 23.704746,23.6801005 24.4567037,21.7925608 C26.6109365,16.3853915 30.8604868,5.71991534 32.0109101,2.8357619 L41.3739524,25.1669259 L41.3829471,25.1885132 L43.7701429,25.1885132 L32.978291,0.0222169312 L32.9688466,0.00107936508 Z M32.0055132,12.3134868 C32.9643492,12.3134868 33.7441905,13.0937778 33.7441905,14.0526138 C33.7441905,15.0118995 32.9643492,15.7921905 32.0055132,15.7921905 C31.0466772,15.7921905 30.266836,15.0118995 30.266836,14.0526138 C30.266836,13.0937778 31.0466772,12.3134868 32.0055132,12.3134868 L32.0055132,12.3134868 Z" id="Fill-7"></path>
            <path d="M160.054865,23.7987407 L160.054865,12.1964656 L158.443913,12.1964656 L158.443913,25.3089524 L166.305288,25.3089524 L166.305288,23.7987407 L160.054865,23.7987407 Z M151.176638,14.6493228 L148.964839,20.1684762 L153.46759,20.1684762 L151.176638,14.6493228 Z M151.847643,12.2176032 L157.461241,25.3089524 L155.648807,25.3089524 L155.639812,25.2873651 L154.13005,21.6777884 L148.368489,21.6777884 L146.932484,25.3089524 L145.177616,25.3089524 L145.196955,25.2608307 L150.529468,12.1960159 L151.838198,12.1960159 L151.847643,12.2176032 Z M137.894601,23.7479206 L139.876135,23.7479206 C141.04095,23.7479206 141.885553,23.6264921 142.384759,23.3863333 C143.073304,23.0566772 143.393516,22.4454868 143.393516,21.4632646 C143.393516,20.5116243 143.092193,19.245619 140.484627,19.245619 L137.894601,19.245619 L137.894601,23.7479206 Z M142.141902,17.2519418 C142.63931,16.9119418 142.870923,16.4122857 142.870923,15.6787672 C142.870923,15.0527354 142.667193,14.5751164 142.26513,14.2571534 C141.830235,13.9140053 141.236585,13.7395079 140.501267,13.7395079 L137.894601,13.7395079 L137.894601,17.7363069 L140.265156,17.7363069 C141.07468,17.7363069 141.705659,17.5735026 142.141902,17.2519418 L142.141902,17.2519418 Z M143.151558,18.3596402 C144.386532,18.8970741 145.039098,19.9687937 145.039098,21.4632646 C145.039098,23.2176825 144.157616,25.3094021 139.959786,25.3094021 L136.283198,25.3094021 L136.283198,12.1964656 L139.868939,12.1964656 C140.863304,12.1964656 141.610315,12.2711217 142.090632,12.4190847 C142.818754,12.6372063 143.411056,13.0397196 143.849997,13.615381 C144.291638,14.1950899 144.515606,14.8809365 144.515606,15.653582 C144.515606,16.5026825 144.272749,17.2200106 143.792431,17.7862275 C143.60669,18.0052487 143.390817,18.1977354 143.151558,18.3596402 L143.151558,18.3596402 Z M128.724495,23.9673915 C130.042669,23.9673915 131.069415,23.4218624 131.77595,22.3456455 C132.399283,21.3976032 132.715447,20.1720741 132.715447,18.7018889 C132.715447,17.1431058 132.411876,15.908582 131.813728,15.0320476 C131.139124,14.0286878 130.099336,13.5204868 128.724495,13.5204868 C127.359098,13.5204868 126.313913,14.0399312 125.617722,15.0648783 C124.985394,15.9778413 124.665183,17.2015714 124.665183,18.7018889 C124.665183,20.1702751 124.991241,21.4003016 125.636161,22.3582381 C126.343595,23.4259101 127.382484,23.9673915 128.724495,23.9673915 L128.724495,23.9673915 Z M128.71595,12.0107249 C130.633622,12.0107249 132.105606,12.6799312 133.090526,13.9990053 C133.932881,15.1341376 134.360579,16.7023651 134.360579,18.6600635 C134.360579,20.5574974 133.924336,22.1387672 133.064442,23.3611481 C132.042193,24.7665714 130.573807,25.4789524 128.69931,25.4789524 C126.826611,25.4789524 125.354627,24.7755661 124.323833,23.3876825 C123.436505,22.1751958 122.98632,20.6015714 122.98632,18.7104339 C122.98632,16.8426825 123.442352,15.2807513 124.340923,14.0678148 C125.372167,12.7028677 126.843701,12.0107249 128.71595,12.0107249 L128.71595,12.0107249 Z M116.923437,12.1964656 L115.312484,12.1964656 L115.312484,25.3094021 L123.17296,25.3094021 L123.17296,23.7987407 L116.923437,23.7987407 L116.923437,12.1964656 Z M108.223304,18.3951693 L113.061558,18.3951693 L113.061558,24.5997196 L112.743595,24.6986614 C111.284653,25.1488466 109.961082,25.3773122 108.809759,25.3773122 C106.894336,25.3773122 105.393569,24.6991111 104.350183,23.3624974 C103.40169,22.161254 102.921373,20.5790847 102.921373,18.6600635 C102.921373,16.8381852 103.369759,15.2996402 104.255288,14.0871534 C105.27214,12.6979206 106.710844,11.9936349 108.530474,11.9936349 C109.679997,11.9936349 110.653675,12.2783175 111.424521,12.8404868 C112.246638,13.4701164 112.733701,14.3641905 112.872669,15.4979735 L112.937431,16.0025767 L111.294098,16.0025767 L111.235183,15.6207513 C111.130394,14.9326561 110.844362,14.4051164 110.384733,14.0516243 C109.910262,13.6873386 109.277934,13.5029471 108.506188,13.5029471 C107.252325,13.5029471 106.25796,14.0282381 105.551426,15.0626296 C104.919997,16.0048254 104.599786,17.2033704 104.599786,18.6258836 C104.599786,20.1230529 104.941135,21.3647725 105.614839,22.3173122 C106.34341,23.3454074 107.412431,23.8671005 108.792669,23.8671005 C109.725421,23.8671005 110.619495,23.7380265 111.449706,23.4848254 L111.449706,19.9044815 L108.223304,19.9044815 L108.223304,18.3951693 Z" id="Fill-9"></path>
        </g>
    </g>
</svg>