<?xml version="1.0" encoding="UTF-8"?>
<svg width="200px" height="200px" viewBox="0 0 200 200" version="1.1" xmlns="http://www.w3.org/2000/svg" xmlns:xlink="http://www.w3.org/1999/xlink">
    <!-- Generator: Sketch 53 (72520) - https://sketchapp.com -->
    <title>logo/nike</title>
    <desc>Created with Sketch.</desc>
    <g id="logo/nike" stroke="none" stroke-width="1" fill="none" fill-rule="evenodd">
        <path d="M53.2368979,121.765218 C49.6613932,121.623127 46.7360916,120.644411 44.4487481,118.826622 C44.0122182,118.479355 42.9720157,117.438168 42.6230366,116.999032 C41.695487,115.832291 41.0648757,114.696785 40.6442641,113.436949 C39.3499804,109.558834 40.0161018,104.46988 42.5495673,98.8848313 C44.7187477,94.1033338 48.0658854,89.361034 53.9054683,82.7929824 C54.7656711,81.826516 57.3272998,79 57.3438304,79 C57.3499529,79 57.2103613,79.2419228 57.0346472,79.5365175 C55.5162822,82.0806881 54.2171005,85.0774688 53.5093465,87.6718615 C52.3724095,91.8347714 52.5095521,95.4072672 53.9109785,98.1774367 C54.8777118,100.085871 56.5350562,101.738908 58.3987268,102.652703 C61.6613749,104.251843 66.4381022,104.384135 72.2715627,103.039779 C72.6731948,102.946685 92.574797,97.661743 116.497618,91.2951917 C140.420438,84.9280279 159.996939,79.7227062 160,79.7269934 C160.006735,79.7325056 104.420493,103.526687 75.564823,115.870876 C70.9950341,117.825245 69.7729951,118.31889 67.624631,119.073444 C62.1328027,121.002702 57.2134225,121.923234 53.2368979,121.765218 Z" id="Shape" fill="#435E74" fill-rule="nonzero"></path>
    </g>
</svg>