<?xml version="1.0" encoding="UTF-8"?>
<svg width="200px" height="200px" viewBox="0 0 200 200" version="1.1" xmlns="http://www.w3.org/2000/svg" xmlns:xlink="http://www.w3.org/1999/xlink">
    <!-- Generator: Sketch 53 (72520) - https://sketchapp.com -->
    <title>logo/nwpp</title>
    <desc>Created with Sketch.</desc>
    <g id="logo/nwpp" stroke="none" stroke-width="1" fill="none" fill-rule="evenodd">
        <path d="M70.4044854,102.681508 C70.4032027,100.103018 68.9319951,99.0043573 65.4867781,99.005603 L63.7115807,99.0068486 C63.3934817,99.0068486 63.1228411,99.2410303 63.1228411,99.5163184 L63.126689,106.575402 C63.126689,106.733599 63.3460234,106.926674 63.5230301,106.926674 L65.1699618,106.925429 C68.7921854,106.922937 70.4057681,105.613762 70.4044854,102.681508 Z M66.6475828,97.3239791 C71.1381653,97.3214878 73.7150234,99.3082953 73.7175887,102.772441 C73.7188713,106.330009 70.6045799,108.541033 65.5893907,108.543525 L63.5230301,108.54477 C63.3383275,108.54477 63.1279717,108.715424 63.1279717,108.866147 L63.1638861,114.166377 C63.1638861,114.851483 63.6359039,115.297424 64.0797033,115.369672 L65.0865891,115.557765 C65.5329538,115.66489 65.7805066,115.87665 65.7817892,116.143219 C65.7817892,116.272766 65.7099604,116.576704 65.0455441,116.576704 L59.2325421,116.580441 C58.5694084,116.580441 58.4975796,116.276503 58.4975796,116.146956 C58.4975796,115.869177 58.7476977,115.656171 59.1850838,115.562747 C59.7045599,115.449393 60.0136803,114.999715 60.0136803,114.356961 L60.0418987,106.63893 L60.0059843,99.7069024 C60.0047017,98.9956378 59.562185,98.6069958 59.1222336,98.5372396 L57.8023794,98.3479012 C57.4047557,98.3067948 57.0982007,98.0676305 57.0982007,97.7935881 C57.0982007,97.6191975 57.1931173,97.3289617 57.8331632,97.3289617 L66.6475828,97.3239791 Z M82.0157388,104.394149 C79.1810666,104.395394 78.5871963,107.077273 78.588479,109.326912 C78.588479,110.734494 78.8514237,115.327195 82.1837668,115.32595 C85.2480346,115.323458 85.5776775,111.721046 85.5763949,110.172707 C85.5763949,108.014 85.112073,104.392903 82.0157388,104.394149 Z M82.078589,102.650243 C85.1864671,102.648997 88.5316368,104.863758 88.5342021,109.730502 C88.5367674,113.281842 86.3229013,116.878026 82.0862849,116.880518 C77.8522338,116.883009 75.6345197,113.289316 75.6319544,109.737976 C75.6306717,106.217776 77.8445379,102.652734 82.078589,102.650243 Z M110.291017,102.949073 C110.983651,102.949073 111.058046,103.25052 111.058046,103.380067 C111.058046,103.647881 110.869495,103.852168 110.497524,103.989189 C110.301278,104.072647 109.933155,104.28067 109.788215,104.67554 L105.791455,116.409538 C105.673451,116.808145 105.023144,116.867937 104.647325,116.867937 C104.293312,116.867937 103.658397,116.772022 103.535262,116.410784 L100.559497,107.846959 C100.555649,107.856924 100.492799,107.863152 100.473559,107.8781 L97.231002,116.420749 C97.1129976,116.82683 96.4165148,116.872919 96.1227863,116.872919 C95.8290578,116.872919 95.1312924,116.828076 95.0081573,116.405801 L91.4167174,104.707927 C91.3256488,104.440113 91.1807085,104.306829 90.842087,104.188492 L90.2264116,103.968013 C90.0032293,103.887046 89.6312587,103.752516 89.6312587,103.423665 C89.6312587,103.25052 89.727458,102.960284 90.3675039,102.960284 L94.9517204,102.957793 C95.5648305,102.956547 95.6558991,103.208168 95.6558991,103.357646 C95.6558991,103.471 95.6110061,103.68276 95.3108644,103.830992 L94.6708185,104.173545 C94.3924819,104.330496 94.3463062,104.730349 94.4232657,105.033041 L96.4396026,113.069958 L99.9784535,103.59681 C100.047717,103.314048 100.521017,103.267959 100.796789,103.267959 C101.07256,103.267959 101.545861,103.312802 101.62282,103.61674 L104.998773,113.309122 L107.206226,105.023076 C107.37682,104.355409 107.090787,104.215897 106.995871,104.169808 L106.198058,103.829746 C105.860719,103.697707 105.809413,103.473491 105.809413,103.352663 C105.80813,103.203185 105.900481,102.951565 106.512309,102.951565 L110.291017,102.949073 Z M121.171797,107.422193 C121.170514,104.985707 119.774983,104.122473 118.579547,104.122473 C116.897983,104.123719 115.658937,105.628461 115.344686,108.048753 C115.334424,108.163353 115.354947,108.256777 115.402405,108.307848 C115.44345,108.351446 115.513996,108.373867 115.611478,108.373867 C115.616609,108.373867 117.194277,108.403763 117.904869,108.403763 L118.873275,108.402517 C119.66724,108.402517 120.248284,108.351446 120.509946,108.258022 C120.985811,108.134703 121.171797,107.894293 121.171797,107.422193 Z M118.579547,102.630188 C121.341107,102.628942 124.128321,104.517343 124.130887,108.738842 C124.130887,109.273225 123.711458,109.893557 123.168894,109.893557 L115.70896,109.89854 C115.574281,109.89854 115.434472,109.959576 115.34212,110.056737 C115.294662,110.106563 115.24079,110.188776 115.251052,110.294656 C115.403688,113.761292 117.358457,114.993237 119.13622,114.991992 C120.371419,114.991992 121.832365,114.050282 122.369798,113.208225 C122.440345,113.071203 122.550653,113.013904 122.628895,112.993973 C122.728942,112.966569 122.839251,112.987745 122.936733,113.047536 L123.471601,113.468565 C123.671695,113.662886 123.64989,113.821083 123.604997,113.953122 C122.62633,115.758065 120.67156,116.859217 118.489761,116.860463 C115.633283,116.862954 112.297092,114.984518 112.293244,109.68678 C112.290679,105.66583 114.993238,102.632679 118.579547,102.630188 Z M136.499677,102.820024 C136.960151,102.968256 137.203856,103.222368 137.165376,103.518832 L136.843429,105.998916 C136.821624,106.184518 136.763905,106.686514 136.303431,106.686514 C135.903242,106.686514 135.787803,106.248046 135.703147,105.927914 C135.676211,105.82328 135.650558,105.723628 135.617209,105.650135 C135.349134,105.02482 134.902769,104.80434 133.912558,104.80434 C132.955696,104.805586 132.012943,105.344951 131.451139,106.213168 C131.249762,106.520842 131.098408,107.051488 131.098408,107.44885 L131.102256,114.130502 C131.102256,114.734641 131.440878,115.185565 132.006529,115.33878 L132.68762,115.525627 C132.962109,115.615314 133.363581,115.744861 133.363581,116.074957 C133.363581,116.249348 133.268664,116.54083 132.627336,116.54083 L126.847683,116.543321 C126.183266,116.544567 126.111437,116.240629 126.111437,116.111081 C126.111437,115.748598 126.511626,115.617805 126.777137,115.531855 L127.465923,115.341271 C128.021314,115.190548 128.33813,114.750834 128.33813,114.132993 L128.333,105.317547 C128.333,104.607528 127.8892,104.217641 127.449249,104.145393 L126.443646,103.9573 C125.999846,103.863877 125.749728,103.662082 125.748446,103.404233 C125.748446,103.231088 125.843362,102.940852 126.484691,102.940852 L129.714421,102.938361 C130.077413,102.938361 130.342923,103.131436 130.441688,103.469006 L130.92525,104.937625 C130.927815,104.933888 130.935511,104.92766 130.947055,104.915203 C131.99242,103.383057 133.434127,102.623212 135.332459,102.621966 C135.691603,102.621966 136.202101,102.722864 136.499677,102.820024 Z M151.767401,102.637911 C151.766119,100.059421 150.294911,98.9607597 146.849694,98.9620053 L145.073214,98.963251 C144.755115,98.963251 144.485757,99.1974327 144.485757,99.4727207 L144.489605,106.531804 C144.490888,106.690001 144.708939,106.883077 144.885946,106.883077 L146.530312,106.881831 C150.153819,106.87934 151.768684,105.570164 151.767401,102.637911 Z M148.011781,97.2803814 C152.502364,97.2778901 155.077939,99.2646976 155.080505,102.728843 C155.081787,106.286412 151.967496,108.497436 146.952307,108.499927 L144.885946,108.501173 C144.701243,108.501173 144.490888,108.671826 144.490888,108.82255 L144.526802,114.122779 C144.526802,114.807885 144.99882,115.253827 145.442619,115.326074 L146.448222,115.514167 C146.894587,115.621293 147.143422,115.833053 147.144705,116.099621 C147.144705,116.229169 147.072876,116.533107 146.40846,116.533107 L140.595458,116.536843 C139.931042,116.536843 139.859213,116.232906 139.859213,116.103358 C139.859213,115.825579 140.110614,115.612573 140.548,115.51915 C141.066193,115.405796 141.376596,114.954871 141.376596,114.313363 L141.404815,106.595332 L141.367618,99.6633048 C141.367618,98.9520401 140.925101,98.5633982 140.485149,98.4936419 L139.165295,98.3043035 C138.767672,98.2631972 138.461117,98.0240329 138.461117,97.7499905 C138.461117,97.5755998 138.556033,97.285364 139.196079,97.285364 L148.011781,97.2803814 Z M163.378655,104.350551 C160.543982,104.351797 159.950112,107.033675 159.951395,109.283315 C159.951395,110.690896 160.21434,115.283598 163.546683,115.282352 C166.61095,115.279861 166.940593,111.677449 166.939311,110.129109 C166.939311,107.970402 166.474989,104.349305 163.378655,104.350551 Z M163.441505,102.606645 C166.5481,102.605399 169.894553,104.82016 169.897118,109.686904 C169.899683,113.238245 167.685817,116.834429 163.449201,116.83692 C159.213867,116.839411 156.996153,113.245719 156.993588,109.694378 C156.992305,106.174179 159.206171,102.609136 163.441505,102.606645 Z M179.060549,104.342205 C176.225876,104.343451 175.632006,107.02533 175.633289,109.274969 C175.633289,110.68255 175.896233,115.275252 179.228577,115.274006 C182.292844,115.271515 182.622487,111.669103 182.621205,110.120763 C182.621205,107.962056 182.156883,104.34096 179.060549,104.342205 Z M179.123399,102.598299 C182.229994,102.597053 185.576447,104.811814 185.579012,109.678558 C185.581577,113.229899 183.367711,116.826083 179.131095,116.828574 C174.897044,116.831065 172.679329,113.237373 172.676764,109.686032 C172.675482,106.165833 174.889348,102.60079 179.123399,102.598299 Z M194.353541,115.492493 C194.638291,115.594636 195,115.726674 195,116.043069 C195,116.216214 194.905083,116.507695 194.263755,116.507695 L189.807804,116.510187 C189.280632,116.510187 189.169041,116.274759 189.169041,116.076701 C189.169041,115.845011 189.340917,115.722938 189.478161,115.625777 C189.533315,115.585916 189.594883,115.543564 189.652603,115.48751 C189.869372,115.276996 189.975832,114.802404 189.974549,114.037577 L189.965571,98.0671323 C189.965571,97.4293608 189.628232,96.9809278 189.085668,96.8974694 L187.983866,96.7093767 C187.642679,96.669516 187.2861,96.4801776 187.284818,96.1550636 C187.284818,95.9819187 187.379734,95.6916828 188.021063,95.6916828 L192.18585,95.6891915 C192.588605,95.6891915 192.857963,95.9258645 192.857963,96.2771371 L192.729697,98.3611051 L192.738676,114.098613 C192.738676,114.701507 193.07858,115.152431 193.645514,115.305646 L194.353541,115.492493 Z M67.1715482,86.229372 L67.1741135,91.6417097 L67.0471305,91.6417097 C64.6408657,88.9399006 63.2620094,87.3716306 62.4167383,86.4099909 C61.8728917,85.8070976 61.520161,85.4321577 60.9327041,84.6997171 L60.9173122,84.6997171 C60.9250081,85.1493958 60.9250081,85.5978288 60.9262908,87.4937041 C60.9275734,90.89183 60.9275734,91.4174931 60.9275734,91.5034428 L60.9275734,91.5271101 L60.3862922,91.5271101 L59.8809253,91.5271101 L59.8809253,91.5034428 C59.8809253,91.4212301 59.8809253,90.89183 59.8796426,87.409 L59.8757946,82.2258615 L60.001495,82.2258615 C62.4936978,85.0422701 63.9046206,86.6491552 64.7434783,87.5995841 C65.22704,88.1526515 65.6169678,88.5799085 66.1043775,89.1815562 L66.128748,89.1815562 C66.1261827,88.6994907 66.1261827,88.31334 66.1249,86.1608614 C66.1236173,82.9819694 66.1223347,82.4525693 66.1223347,82.3703566 L66.1223347,82.3466893 L66.6661813,82.3466893 L67.1689829,82.3466893 L67.1689829,82.3703566 C67.1689829,82.4525693 67.1702655,82.9819694 67.1715482,86.229372 Z M86.0988211,86.8743682 L86.0988211,86.885579 C86.1001038,89.5001928 84.0837668,91.6551627 81.243964,91.6564083 C78.5644933,91.6576539 76.4763276,89.5475274 76.4750449,86.9839852 C76.4737623,84.2946326 78.5798852,82.2218754 81.4094268,82.2206298 C84.1145506,82.2193841 86.0975384,84.2560175 86.0988211,86.8743682 Z M84.90595,86.9466157 L84.90595,86.9341593 C84.9046673,84.8501913 83.3526523,83.2333411 81.2747478,83.2345867 C79.2224964,83.2358324 77.6653507,84.868876 77.6666333,86.952844 C77.667916,88.969547 79.2289097,90.6598904 81.3055315,90.6586448 C83.4052412,90.6573991 84.9072327,89.0044251 84.90595,86.9466157 Z M95.3098382,87.3901908 L95.3085556,86.2142997 C95.3072729,82.9668971 95.3072729,82.4325144 95.3072729,82.3814429 L95.3072729,82.3577756 C95.4355386,82.3515473 95.6369158,82.3365995 95.8562502,82.3241431 C96.1050856,82.3129322 96.4796215,82.2992301 96.6771507,82.2992301 C97.2799995,82.2992301 97.8584779,82.3540386 98.4036072,82.5446227 C98.9474538,82.7215046 99.9928193,83.3418369 99.994102,84.8266486 C99.994102,86.107174 99.230921,86.7698584 98.7435113,87.0650768 C98.508785,87.2195371 98.20223,87.3627865 97.9405679,87.4300515 L97.9405679,87.4487362 C98.0252233,87.5496336 98.1663156,87.7290068 100.390443,90.5441698 C100.672628,90.9004249 101.074099,91.4049121 101.14208,91.4808966 L101.14208,91.5058095 L100.508447,91.5058095 L100.035147,91.5058095 L99.7811809,91.5058095 C99.0667409,90.5641002 98.2073606,89.4243329 96.8092644,87.6168986 C96.6925426,87.6168986 96.5027093,87.6168986 96.4013794,87.6181442 L96.4013794,87.9096257 C96.4039447,90.8730207 96.4039447,91.4024208 96.4039447,91.4846335 L96.4039447,91.5083008 L95.8690767,91.5083008 L95.3124036,91.5083008 L95.3124036,91.4846335 C95.3124036,91.4024208 95.3124036,90.8730207 95.3098382,87.3901908 Z M98.8538198,84.902633 L98.8538198,84.8914222 C98.8525371,83.828885 98.0418979,83.2558873 96.8913544,83.2558873 C96.7117824,83.2558873 96.4821868,83.2695894 96.3988141,83.2808002 L96.4013794,86.7461911 C96.4693603,86.7574019 96.6078872,86.7561563 96.7515448,86.7561563 C97.1094061,86.7561563 97.5083125,86.6714523 97.7917797,86.538168 C98.3125385,86.3052319 98.8538198,85.8368685 98.8538198,84.902633 Z M111.635498,87.3814712 L111.632932,83.2770633 L109.630705,83.2783089 L108.888046,83.2783089 L108.827761,83.2783089 L108.827761,82.3241431 C109.623009,82.3241431 110.915927,82.3228974 111.698348,82.3228974 L112.653927,82.3228974 C113.481241,82.3216518 114.757485,82.3216518 115.573255,82.3204061 L115.573255,83.274572 L115.515535,83.274572 C115.360334,83.274572 115.087128,83.2758176 114.736963,83.2758176 L112.759105,83.2770633 L112.761671,87.3814712 C112.764236,90.8643012 112.764236,91.4173686 112.764236,91.4746684 L112.764236,91.4995813 L112.211411,91.4995813 L111.638063,91.4995813 L111.638063,91.4684401 C111.638063,91.3725253 111.638063,90.8643012 111.635498,87.3814712 Z M131.560934,86.1948676 L131.562217,87.3707587 C131.5635,90.8535886 131.5635,91.3829887 131.5635,91.4652014 L131.5635,91.4888687 L131.026066,91.4888687 L130.437327,91.4888687 L130.437327,91.4652014 C130.437327,91.3829887 130.437327,90.8535886 130.436044,87.5912382 L130.434761,87.2910372 L125.674821,87.2935285 L125.676104,87.5949752 C125.677386,90.8573255 125.677386,91.3867257 125.677386,91.4676927 L125.677386,91.4926057 L125.136105,91.4926057 L124.551213,91.4926057 L124.551213,91.4689384 C124.551213,91.3867257 124.551213,90.8573255 124.549931,87.3744956 L124.548648,86.1986045 C124.547365,82.9512019 124.546083,82.4218018 124.546083,82.3395891 L124.546083,82.3159218 L125.11943,82.3159218 L125.672256,82.3159218 L125.672256,82.3395891 C125.672256,82.4205562 125.673538,82.9499563 125.674821,86.0316878 L125.674821,86.3331344 L130.434761,86.3293975 L130.434761,86.0291965 C130.433479,82.947465 130.432196,82.4180649 130.432196,82.3358522 L130.432196,82.3121849 L131.010675,82.3121849 L131.558369,82.3121849 L131.558369,82.3358522 C131.558369,82.4180649 131.559652,82.947465 131.560934,86.1948676 Z M150.632635,85.9728932 L149.135774,91.699134 L148.988268,91.699134 C146.69616,86.1921272 146.32932,85.2267505 146.127943,84.5914703 L146.116399,84.5914703 C145.907326,85.2304874 145.528942,86.2045836 143.211181,91.7016253 L143.063675,91.7016253 L141.49242,85.9803671 C140.661258,82.9509528 140.548384,82.4340092 140.521449,82.3306204 L140.521449,82.3069531 L141.123015,82.3069531 L141.682253,82.3069531 L141.682253,82.3306204 C141.701493,82.4265353 141.852847,82.9384963 142.594222,85.7200268 C142.957214,87.1163975 143.135504,87.7952753 143.403579,88.9200948 L143.422819,88.9200948 C143.708852,88.0655807 144.000015,87.3530705 144.620821,85.751168 C145.037684,84.7795631 145.591792,83.5687939 146.090746,82.3879202 L146.224142,82.3879202 C146.721813,83.5563374 147.231028,84.765861 147.694067,85.7860461 C148.293068,87.3318945 148.59834,88.1079328 148.868981,88.8740059 L148.888221,88.8740059 C149.12936,87.7853101 149.385892,86.7601423 149.638575,85.7524137 C150.359429,82.9322681 150.506934,82.4178158 150.526174,82.3331117 L150.526174,82.3019706 L151.046933,82.3019706 L151.601041,82.3019706 L151.601041,82.3331117 C151.581801,82.4277809 151.429165,82.9372507 150.632635,85.9728932 Z M160.573997,87.3551881 L160.572714,86.179297 C160.571431,82.9431052 160.571431,82.4024943 160.571431,82.3202816 L160.571431,82.2966143 C160.902357,82.2966143 161.807913,82.2953686 162.727578,82.2953686 C163.547196,82.2953686 164.400163,82.294123 164.854223,82.294123 L164.854223,83.2532714 L164.829853,83.2532714 C164.74135,83.2532714 164.251374,83.2532714 163.580545,83.2545171 L161.697604,83.2557627 L161.70017,86.3138269 L163.631851,86.3125813 C164.280876,86.3113356 164.506623,86.3113356 164.591279,86.3113356 L164.615649,86.3113356 L164.615649,86.7834359 L164.615649,87.2630102 L164.591279,87.2630102 C164.506623,87.2630102 164.282158,87.2630102 163.656222,87.2642558 L161.70017,87.2655015 L161.701452,90.4257087 C161.701452,90.453113 161.701452,90.4780259 161.710431,90.5016932 C162.925107,90.5004476 163.572849,90.5004476 164.098738,90.4992019 L164.958119,90.4992019 L164.982489,90.4992019 C164.983772,90.7919291 164.983772,91.138219 164.983772,91.4708068 C164.378358,91.4708068 163.619025,91.4720525 162.90715,91.4720525 C161.9272,91.4720525 160.913901,91.4732981 160.576562,91.4732981 L160.576562,91.4496308 C160.576562,91.3674181 160.576562,90.838018 160.573997,87.3551881 Z M178.133316,89.1707191 L178.133316,89.1831755 C178.134598,90.3690318 177.148235,91.5885205 175.22938,91.5897662 C174.757362,91.5897662 174.163492,91.5013252 173.815892,91.3829887 C173.836414,90.8934493 173.840262,90.7751128 173.85822,90.3640492 L173.88259,90.3640492 C173.996747,90.4126294 174.137839,90.4549815 174.298171,90.4960878 C174.536745,90.5571245 174.879215,90.6069504 175.243489,90.6069504 C176.118261,90.6069504 176.937879,90.0713221 176.937879,89.1458061 C176.937879,88.6014582 176.707001,88.1742012 176.128523,87.6921357 C175.710376,87.3396175 175.36919,87.0830141 175.00235,86.7342329 C174.309715,86.062829 173.978789,85.5035333 173.978789,84.6353171 C173.977507,83.3921611 174.957457,82.237446 176.766003,82.237446 C177.202107,82.2362004 177.589469,82.2872719 177.833174,82.3595195 C177.817782,82.6995812 177.806238,82.9001304 177.789564,83.357283 L177.765193,83.357283 C177.662581,83.3186679 177.485574,83.2775615 177.362439,83.2588768 C177.211085,83.2314726 177.010991,83.2165248 176.850659,83.2177705 C175.88097,83.2177705 175.153703,83.7546445 175.153703,84.5967021 C175.153703,85.094961 175.339689,85.4424966 175.683441,85.7925235 C176.037454,86.1587438 176.440208,86.4340319 176.931466,86.8762367 C177.656167,87.5326928 178.133316,88.1443057 178.133316,89.1707191 Z M189.478674,87.3396175 L189.476109,83.2352095 L187.473881,83.2364552 L186.731223,83.2364552 L186.670938,83.2364552 L186.670938,82.2822893 C187.467468,82.2822893 188.759104,82.2810437 189.542807,82.2810437 L190.498387,82.2810437 C191.3257,82.279798 192.601944,82.279798 193.416432,82.2785524 L193.416432,83.2327182 L193.359995,83.2327182 C193.20351,83.2327182 192.930305,83.2339639 192.581422,83.2339639 L190.603565,83.2352095 L190.60613,87.3396175 C190.608695,90.8224474 190.608695,91.3755148 190.608695,91.4328146 L190.608695,91.4577276 L190.054587,91.4577276 L189.48124,91.4577276 L189.48124,91.4265864 C189.48124,91.3306715 189.48124,90.8224474 189.478674,87.3396175 Z M27.740232,79.1871048 C15.8679579,79.1933331 6.21468062,88.5830226 6.22237656,100.118963 C6.22878985,111.654902 15.8923284,121.034627 27.7646025,121.028399 C39.6368766,121.02217 49.2901539,111.632481 49.2824579,100.095295 C49.2760447,88.560601 39.6125061,79.1808766 27.740232,79.1871048 Z M27.7646025,122.215501 C15.2189334,122.221729 5.00641764,112.310113 5.00000435,100.118963 C4.99230841,87.9290578 15.1932803,78.0062312 27.7389494,78.0000029 C40.2859011,77.9937747 50.4984169,87.9053905 50.5048302,100.095295 C50.5125261,112.2852 40.3115542,122.209272 27.7646025,122.215501 Z M26.3689433,82.8934039 C26.3650953,82.8610171 26.3599647,82.8273846 26.3561167,82.7949978 C26.2701787,82.7949978 26.1842407,82.7887695 26.0995853,82.7962434 C24.5732234,82.9170712 23.1109943,83.2795546 21.7372685,83.942239 C20.0967501,84.7357163 18.8089624,85.8842031 18.0368028,87.5247207 C17.3146669,89.0568669 17.1787052,90.6737171 17.336472,92.3266911 C17.3531466,92.5085556 17.3069709,92.6318747 17.1953798,92.7676503 C16.2141471,93.9510152 15.7203241,95.3087708 15.7113455,96.8247236 C15.7049322,98.1488467 16.0627935,99.3969854 16.62588,100.591561 C16.8477797,101.063661 17.1017458,101.520814 17.3544292,102.007862 C17.3056883,101.987932 17.2761872,101.979212 17.2518167,101.964265 C15.9512024,101.142137 14.7608966,100.197937 13.8245569,98.9809392 C12.8959132,97.7726613 12.3289787,96.4323447 12.245606,94.9114093 C12.1673639,93.4627215 12.5175293,92.1037203 13.1421833,90.8032644 C13.3461258,90.3784987 13.5847,89.971172 13.8348182,89.5052999 C13.2884062,90.0969824 12.5034201,91.4260881 12.1237536,92.3889735 C11.3926391,94.2400054 11.2348722,96.1084764 11.9711174,97.9943865 C12.5380518,99.4455656 13.5167192,100.610246 14.7160036,101.610501 C14.890445,101.756241 14.9661217,101.913193 14.9930575,102.126199 C15.1598029,103.473989 15.7190414,104.653617 16.6553811,105.6601 C17.7276825,106.81357 19.0847337,107.534799 20.5738985,108.045515 C20.9715222,108.18129 21.3781245,108.29589 21.8180759,108.431665 C21.7436818,108.45907 21.7077674,108.479 21.6692877,108.486474 C20.2339944,108.770482 18.7910052,108.918714 17.3262108,108.745569 C15.058473,108.477754 13.2191428,107.494939 11.8851794,105.672557 C10.9565356,104.401996 10.4319289,102.970748 10.1369178,101.451058 C10.1189606,101.357634 10.0856115,101.266702 10.0586757,101.173278 C10.0317399,101.178261 10.0048041,101.183244 9.97786828,101.188226 C9.97786828,101.261719 9.97273765,101.335213 9.97786828,101.40746 C10.0843288,102.842446 10.4396248,104.216395 11.0745401,105.515605 C12.0442289,107.49743 13.5372417,108.932416 15.7267374,109.610048 C17.0645487,110.023603 18.4369918,110.080903 19.8273921,109.966303 C19.9505272,109.956338 20.108294,110.008655 20.2070586,110.084639 C21.7988361,111.302883 23.5971213,111.738859 25.5929358,111.448623 C26.9961626,111.245583 28.2775371,110.723657 29.5037573,110.053498 C29.579434,110.012392 29.6551108,109.975022 29.7795285,109.911494 C28.8354929,111.441149 27.6349259,112.673095 26.1996326,113.653419 C24.4526536,114.845504 22.4863403,115.174354 20.3930439,114.748343 C18.8679646,114.436931 17.5045001,113.779229 16.2385176,112.913505 C16.1654061,112.863679 16.0884467,112.818835 16.0140526,112.771501 C15.9819861,112.80887 15.9499197,112.844994 15.9191359,112.881118 C15.9845515,112.913505 16.0615109,112.934681 16.1153825,112.979524 C17.2325768,113.89632 18.4639276,114.627515 19.8415013,115.108335 C21.9925173,115.85946 24.1153148,115.856969 26.1816754,114.819345 C27.3335014,114.241365 28.2788197,113.403044 29.1933542,112.527354 C29.2959668,112.428948 29.4601469,112.352963 29.6025218,112.339261 C31.6047496,112.161134 33.2029403,111.276724 34.4355738,109.750806 C35.3719135,108.592354 35.9298693,107.25702 36.3351889,105.853175 C36.3518635,105.798367 36.3749513,105.74605 36.417279,105.632696 C36.7199861,107.027821 36.8828835,108.361909 36.7571831,109.72091 C36.5327181,112.146186 35.4540035,114.091887 33.3478806,115.459608 C32.0729194,116.286718 30.6543007,116.755081 29.1600051,117.030369 C29.085611,117.044071 29.0150649,117.082686 28.8829512,117.132512 C28.9842811,117.166145 29.007369,117.179847 29.0291741,117.179847 C29.1138295,117.179847 29.1984849,117.181092 29.2818576,117.172373 C30.6838018,117.040334 32.037005,116.72394 33.3170968,116.143468 C35.1525791,115.311376 36.5724805,114.066974 37.3715759,112.220925 C37.9923819,110.789676 38.1103864,109.292408 37.980838,107.76649 C37.9603155,107.52608 37.9949472,107.340478 38.156562,107.139929 C39.3930435,105.612766 39.7970804,103.873842 39.5007867,101.968001 C39.2917136,100.623948 38.7594109,99.3920028 38.0783199,98.2148661 C38.0359923,98.1426185 37.9987952,98.0653884 37.9410756,97.9582627 C38.0077738,97.9844213 38.0308616,97.9906495 38.0513841,98.003106 C39.2763217,98.7704248 40.397364,99.6548344 41.3106158,100.768443 C42.8113246,102.602036 43.389803,104.666074 42.9177852,106.980486 C42.6073821,108.497685 41.912182,109.851703 40.9989301,111.107316 C40.9501892,111.174581 40.9065788,111.244337 40.8514246,111.327795 C40.9129921,111.335269 40.9347973,111.343989 40.9424932,111.337761 C40.9912342,111.292917 41.0399752,111.246828 41.0835855,111.197003 C41.9929894,110.16187 42.7176907,109.015874 43.214079,107.741577 C43.9336496,105.895527 44.0670459,104.032039 43.3166915,102.161077 C42.7471918,100.739793 41.7839163,99.5937976 40.6064371,98.607245 C40.4409743,98.4689781 40.3627322,98.3232374 40.3434924,98.112723 C40.1857255,96.3102713 39.3750863,94.8329336 37.9654461,93.6607794 C36.7982282,92.6904201 35.4270677,92.0999833 33.9674039,91.6826915 C33.8224637,91.6403395 33.6762408,91.5954961 33.5313005,91.5518985 C35.029444,91.196889 36.5275875,91.0424287 38.0501015,91.2317671 C40.48715,91.5357051 42.3841998,92.6704898 43.6989233,94.697158 C44.4736482,95.8892425 44.9212955,97.2021548 45.1880882,98.5798407 C45.2021974,98.6545796 45.2393945,98.7243358 45.2663303,98.7965834 C45.2894181,98.7903551 45.312506,98.7853725 45.3368764,98.7803899 C45.3368764,98.6869664 45.3445724,98.5922972 45.3355938,98.5001193 C45.2047628,97.1286616 44.8789679,95.8070298 44.2825323,94.5539086 C43.3962163,92.6916658 42.0481437,91.2778561 40.0471986,90.5180112 C38.6619289,89.992348 37.217657,89.8789941 35.747732,89.9948393 C35.4411769,90.0185066 35.2038854,89.9798916 34.9422233,89.7830793 C33.4004695,88.6246273 31.6445119,88.2434592 29.7282222,88.5175016 C28.3160168,88.7205421 27.0256637,89.2462053 25.7917476,89.9225918 C25.7263321,89.9587156 25.6583513,89.9911024 25.5916531,90.0259805 C26.4677079,88.6283642 27.5092255,87.3939277 28.8803859,86.4522183 C30.5657973,85.2962576 32.4269328,84.8328768 34.4779015,85.1442886 C36.144073,85.397155 37.621694,86.0797698 38.9941371,87.0052857 C39.0929017,87.071305 39.1942316,87.1335874 39.2929962,87.1983611 C39.3096708,87.1796764 39.3250626,87.1609917 39.3404545,87.1423069 C39.2878656,87.0912354 39.2391246,87.0351813 39.1826877,86.9878467 C38.1244956,86.107174 36.9508644,85.4096115 35.6476847,84.9263003 C33.7493522,84.221264 31.8304972,84.0892253 29.901381,84.8104551 C28.4353039,85.35854 27.2578247,86.2977581 26.235547,87.4337884 C26.1290864,87.5533706 26.0226259,87.611916 25.8558805,87.6218812 C24.271799,87.7277612 22.880116,88.2833199 21.7077674,89.3321549 C20.7932329,90.1505452 20.1300992,91.1408349 19.6529508,92.2457241 C19.3656356,92.913391 19.1386053,93.6047253 18.8897698,94.2711466 C18.8884871,94.266164 18.8730952,94.2362685 18.866682,94.2051273 C18.5216472,92.6580333 18.3767069,91.0984829 18.6434996,89.5264759 C18.9513373,87.7165504 19.794043,86.1893867 21.2639681,85.01225 C22.6094754,83.9347651 24.178165,83.3356087 25.8674244,82.9943013 C26.0341698,82.9606689 26.2021979,82.9270364 26.3689433,82.8934039 Z M27.7272772,119.590174 C16.5925309,119.596402 7.48823085,110.769745 7.60880062,99.8155229 C7.72680507,89.1266231 16.7143833,80.3971267 27.9106971,80.4868133 C39.0210729,80.5764999 48.027891,89.438035 47.8508844,100.361116 C47.680291,110.952856 38.7914773,119.590174 27.7272772,119.590174 Z" id="Combined-Shape" fill="#435E74"></path>
    </g>
</svg>