<?xml version="1.0" encoding="UTF-8"?>
<svg width="200px" height="200px" viewBox="0 0 200 200" version="1.1" xmlns="http://www.w3.org/2000/svg" xmlns:xlink="http://www.w3.org/1999/xlink">
    <!-- Generator: Sketch 53 (72520) - https://sketchapp.com -->
    <title>logo/occ-alt</title>
    <desc>Created with Sketch.</desc>
    <g stroke="none" stroke-width="1" fill="none" fill-rule="evenodd">
        <path d="M39.0872233,117.87831 C39.0872233,120.523081 39.8664905,122.801167 42.849322,122.801167 C45.8326471,122.801167 46.6114207,120.523081 46.6114207,117.87831 C46.6114207,115.233046 45.8326471,112.95496 42.849322,112.95496 C39.8664905,112.95496 39.0872233,115.233046 39.0872233,117.87831 Z M38,117.87831 C38,114.292398 39.4697009,112 42.849322,112 C46.2294367,112 47.6986441,114.292398 47.6986441,117.87831 C47.6986441,121.463729 46.2294367,123.756127 42.849322,123.756127 C39.4697009,123.756127 38,121.463729 38,117.87831 Z M54.7362313,116.790593 C54.6187737,116.74667 54.3394417,116.65833 53.9722632,116.65833 C52.3851047,116.65833 51.429651,117.892622 51.3857278,118.877193 L51.3857278,123.609058 L50.4159621,123.609058 L50.4159621,117.628589 L50.3276221,115.820828 L51.2095414,115.820828 L51.3857278,117.202188 C51.8412463,116.364686 52.8258175,115.673759 53.9722632,115.673759 C54.2511017,115.673759 54.6478913,115.718175 54.8393769,115.791216 L54.7362313,116.790593 Z M57.3953141,119.23006 L62.141984,119.23006 C62.1123729,117.510638 61.4219392,116.526067 59.9083151,116.555678 C58.4830309,116.555678 57.4984596,117.349257 57.3953141,119.23006 Z M63.2000897,119.700384 L63.2000897,120.097173 L57.3953141,120.097173 C57.483654,122.065823 58.4830309,122.859402 59.9231206,122.859402 C61.3044816,122.889013 61.8922632,122.286426 62.1123729,121.360583 L63.155673,121.49334 C62.9207577,122.698021 61.9806032,123.756127 59.9083151,123.756127 C57.7333749,123.756127 56.3668195,122.418689 56.3668195,119.714696 C56.3668195,117.011196 57.7333749,115.673759 59.9083151,115.673759 C62.1859073,115.673759 63.2000897,117.14346 63.2000897,119.700384 Z M68.9594616,122.550952 C70.5466201,122.550952 71.5163858,121.301854 71.5603091,120.317283 L71.5603091,118.818465 C71.5163858,117.819088 70.5466201,116.584796 68.9594616,116.584796 C67.4310319,116.584796 66.4760718,117.555055 66.4760718,119.568121 C66.4760718,121.566381 67.4310319,122.550952 68.9594616,122.550952 Z M71.5603091,123.947119 L71.5603091,121.992782 C71.0460618,122.84509 70.0762961,123.461989 68.930344,123.461989 C66.7554038,123.461989 65.4766949,122.125045 65.4766949,119.568121 C65.4766949,117.011196 66.7554038,115.673759 68.930344,115.673759 C70.0762961,115.673759 71.0312562,116.291152 71.545997,117.158265 L71.7221834,115.820828 L72.6036092,115.820828 L72.5157627,117.642901 L72.5157627,123.843973 C72.5157627,125.695658 71.1492074,126.695035 68.930344,126.695035 C66.6522582,126.695035 65.8147557,125.636929 65.6237637,124.432248 L66.6522582,124.299985 C66.8141326,125.225828 67.4167198,125.88665 68.930344,125.857532 C70.3704337,125.827921 71.5603091,125.298868 71.5603091,123.947119 Z M76.02666,119.714696 C76.02666,121.919247 76.9969192,122.84509 78.5248554,122.84509 C80.0532851,122.84509 81.0230508,121.919247 81.0230508,119.714696 C81.0230508,117.510638 80.0532851,116.584796 78.5248554,116.584796 C76.9969192,116.584796 76.02666,117.510638 76.02666,119.714696 Z M75.0129711,119.714696 C75.0129711,117.011196 76.3647208,115.673759 78.5248554,115.673759 C80.68499,115.673759 82.0367398,117.011196 82.0367398,119.714696 C82.0367398,122.418689 80.68499,123.756127 78.5248554,123.756127 C76.3647208,123.756127 75.0129711,122.418689 75.0129711,119.714696 Z M85.5037139,117.14346 C86.0179611,116.291152 86.9877268,115.673759 88.1637836,115.673759 C89.7800598,115.673759 91.0439631,116.584796 91.0439631,118.171954 L91.0439631,123.609058 L90.0741974,123.609058 L90.0741974,118.392557 C90.0741974,117.2318 89.2362014,116.599601 88.0167149,116.599601 C86.5618195,116.599601 85.5476371,117.833893 85.5037139,118.818465 L85.5037139,123.609058 L84.5339482,123.609058 L84.5339482,117.628589 L84.4456082,115.820828 L85.3275274,115.820828 L85.5037139,117.14346 Z M42.849322,138.673739 C44.8332702,138.673739 45.7882303,138.011929 46.0823679,136.542722 L47.1404736,136.630568 C46.8024128,138.364796 45.6268495,139.628699 42.849322,139.628699 C39.4697009,139.628699 38,137.336301 38,133.750882 C38,130.16497 39.4697009,127.872572 42.849322,127.872572 C45.6268495,127.872572 46.8024128,129.136476 47.1404736,130.870209 L46.0823679,130.958549 C45.7882303,129.489342 44.8332702,128.827532 42.849322,128.827532 C39.8664905,128.827532 39.0872233,131.105618 39.0872233,133.750882 C39.0872233,136.395653 39.8664905,138.673739 42.849322,138.673739 Z M50.5482253,135.587268 C50.5482253,137.79182 51.517991,138.717662 53.0464207,138.717662 C54.5748504,138.717662 55.5446162,137.79182 55.5446162,135.587268 C55.5446162,133.38321 54.5748504,132.457368 53.0464207,132.457368 C51.517991,132.457368 50.5482253,133.38321 50.5482253,135.587268 Z M49.5345364,135.587268 C49.5345364,132.883769 50.8862861,131.546331 53.0464207,131.546331 C55.2065553,131.546331 56.5583051,132.883769 56.5583051,135.587268 C56.5583051,138.291261 55.2065553,139.628699 53.0464207,139.628699 C50.8862861,139.628699 49.5345364,138.291261 49.5345364,135.587268 Z M60.0252792,133.016032 C60.5395264,132.163724 61.5092921,131.546331 62.685349,131.546331 C64.3016251,131.546331 65.5650349,132.457368 65.5650349,134.044526 L65.5650349,139.48163 L64.5957627,139.48163 L64.5957627,134.26513 C64.5957627,133.103878 63.7577667,132.472173 62.5382802,132.472173 C61.0833848,132.472173 60.0692024,133.706466 60.0252792,134.691037 L60.0252792,139.48163 L59.0555135,139.48163 L59.0555135,133.500668 L58.9671735,131.6934 L59.8490927,131.6934 L60.0252792,133.016032 Z M71.4719691,139.628699 L70.2816002,139.628699 L67.2252343,131.6934 L68.3124576,131.6934 L70.0170738,136.35173 L70.8693819,138.776391 L71.7216899,136.35173 L73.4411117,131.6934 L74.5135294,131.6934 L71.4719691,139.628699 Z M77.040349,135.102632 L81.7870189,135.102632 C81.7574078,133.38321 81.0669741,132.398639 79.55335,132.42825 C78.1280658,132.42825 77.1434945,133.22183 77.040349,135.102632 Z M82.8446311,135.572956 L82.8446311,135.969746 L77.040349,135.969746 C77.1286889,137.938395 78.1280658,138.731974 79.5681555,138.731974 C80.9495165,138.761585 81.5368046,138.158998 81.7574078,137.233156 L82.8007079,137.365419 C82.5657926,138.570593 81.6251446,139.628699 79.55335,139.628699 C77.3784098,139.628699 76.0118544,138.291261 76.0118544,135.587268 C76.0118544,132.883769 77.3784098,131.546331 79.55335,131.546331 C81.8309422,131.546331 82.8446311,133.016032 82.8446311,135.572956 Z M86.3856331,133.016032 C86.8998804,132.163724 87.8696461,131.546331 89.0452094,131.546331 C90.6614855,131.546331 91.9253888,132.457368 91.9253888,134.044526 L91.9253888,139.48163 L90.9556231,139.48163 L90.9556231,134.26513 C90.9556231,133.103878 90.1176271,132.472173 88.8981406,132.472173 C87.4432453,132.472173 86.4295563,133.706466 86.3856331,134.691037 L86.3856331,139.48163 L85.4153739,139.48163 L85.4153739,133.500668 L85.3275274,131.6934 L86.2089531,131.6934 L86.3856331,133.016032 Z M93.9517797,131.6934 L95.3627517,131.6934 L95.3627517,129.709452 L96.3320239,129.386196 L96.3320239,131.6934 L98.7280608,131.6934 L98.7280608,132.604437 L96.3320239,132.604437 L96.3320239,136.572333 C96.3320239,138.34999 96.8467647,138.702856 98.022328,138.702856 C98.3751944,138.702856 98.6249153,138.614516 98.7423729,138.570593 L98.8598305,139.511241 C98.6540329,139.584776 98.30166,139.628699 98.022328,139.628699 C95.7156181,139.628699 95.3627517,138.173804 95.3627517,136.572333 L95.3627517,132.604437 L93.9517797,132.604437 L93.9517797,131.6934 Z M101.44994,139.48163 L101.44994,131.6934 L102.442771,131.6934 L102.442771,139.48163 L101.44994,139.48163 Z M101.299297,129.886132 L101.299297,128.622228 L102.593415,128.622228 L102.593415,129.886132 L101.299297,129.886132 Z M106.250778,135.587268 C106.250778,137.79182 107.221037,138.717662 108.748973,138.717662 C110.277403,138.717662 111.247168,137.79182 111.247168,135.587268 C111.247168,133.38321 110.277403,132.457368 108.748973,132.457368 C107.221037,132.457368 106.250778,133.38321 106.250778,135.587268 Z M105.236595,135.587268 C105.236595,132.883769 106.588838,131.546331 108.748973,131.546331 C110.909108,131.546331 112.260857,132.883769 112.260857,135.587268 C112.260857,138.291261 110.909108,139.628699 108.748973,139.628699 C106.588838,139.628699 105.236595,138.291261 105.236595,135.587268 Z M115.727832,133.016032 C116.242079,132.163724 117.211844,131.546331 118.387408,131.546331 C120.004177,131.546331 121.267587,132.457368 121.267587,134.044526 L121.267587,139.48163 L120.297822,139.48163 L120.297822,134.26513 C120.297822,133.103878 119.460319,132.472173 118.240339,132.472173 C116.785937,132.472173 115.771755,133.706466 115.727832,134.691037 L115.727832,139.48163 L114.757572,139.48163 L114.757572,133.500668 L114.669726,131.6934 L115.551152,131.6934 L115.727832,133.016032 Z M42.849322,154.546311 C44.8332702,154.546311 45.7882303,153.884501 46.0823679,152.415294 L47.1404736,152.503141 C46.8024128,154.237368 45.6268495,155.501271 42.849322,155.501271 C39.4697009,155.501271 38,153.208873 38,149.623455 C38,146.037542 39.4697009,143.745145 42.849322,143.745145 C45.6268495,143.745145 46.8024128,145.009048 47.1404736,146.742782 L46.0823679,146.831122 C45.7882303,145.361914 44.8332702,144.700105 42.849322,144.700105 C39.8664905,144.700105 39.0872233,146.97819 39.0872233,149.623455 C39.0872233,152.268225 39.8664905,154.546311 42.849322,154.546311 Z M50.5630309,150.975204 L55.3097009,150.975204 C55.2800897,149.255783 54.589656,148.271211 53.0760319,148.300823 C51.6507478,148.300823 50.6661765,149.094402 50.5630309,150.975204 Z M56.3673131,151.445528 L56.3673131,151.842318 L50.5630309,151.842318 C50.6513709,153.810967 51.6507478,154.604546 53.0908375,154.604546 C54.4717049,154.634158 55.0594865,154.03157 55.2800897,153.105728 L56.3233898,153.238485 C56.0884746,154.443166 55.1478265,155.501271 53.0760319,155.501271 C50.9010917,155.501271 49.5345364,154.163833 49.5345364,151.45984 C49.5345364,148.756341 50.9010917,147.418903 53.0760319,147.418903 C55.3536241,147.418903 56.3673131,148.888604 56.3673131,151.445528 Z M59.9078215,148.888604 C60.4220688,148.036296 61.392328,147.418903 62.5678913,147.418903 C64.1841675,147.418903 65.4480708,148.32994 65.4480708,149.917099 L65.4480708,155.354202 L64.4783051,155.354202 L64.4783051,150.137702 C64.4783051,148.976451 63.6403091,148.344746 62.4208225,148.344746 C60.9659272,148.344746 59.9522383,149.579038 59.9078215,150.563609 L59.9078215,155.354202 L58.9380558,155.354202 L58.9380558,149.37324 L58.8502094,147.565972 L59.7316351,147.565972 L59.9078215,148.888604 Z M67.4749551,147.565972 L68.8854337,147.565972 L68.8854337,145.582024 L69.8556929,145.258769 L69.8556929,147.565972 L72.2507428,147.565972 L72.2507428,148.477009 L69.8556929,148.477009 L69.8556929,152.444905 C69.8556929,154.222562 70.3699402,154.575429 71.5455035,154.575429 C71.8978764,154.575429 72.1480907,154.487089 72.2655484,154.443166 L72.383006,155.383814 C72.1772084,155.457348 71.824342,155.501271 71.5455035,155.501271 C69.2383001,155.501271 68.8854337,154.046376 68.8854337,152.444905 L68.8854337,148.477009 L67.4749551,148.477009 L67.4749551,147.565972 Z M75.3801496,150.975204 L80.126326,150.975204 C80.0967149,149.255783 79.4062812,148.271211 77.892657,148.300823 C76.4673729,148.300823 75.4828016,149.094402 75.3801496,150.975204 Z M81.1844317,151.445528 L81.1844317,151.842318 L75.3801496,151.842318 C75.467996,153.810967 76.4673729,154.604546 77.9074626,154.604546 C79.2888235,154.634158 79.8766052,154.03157 80.0967149,153.105728 L81.1405085,153.238485 C80.9050997,154.443166 79.9649452,155.501271 77.892657,155.501271 C75.7177168,155.501271 74.3511615,154.163833 74.3511615,151.45984 C74.3511615,148.756341 75.7177168,147.418903 77.892657,147.418903 C80.1702493,147.418903 81.1844317,148.888604 81.1844317,151.445528 Z M88.0754437,148.535738 C87.957986,148.491815 87.678654,148.403475 87.3114756,148.403475 C85.724317,148.403475 84.7688634,149.637767 84.7249402,150.622338 L84.7249402,155.354202 L83.754681,155.354202 L83.754681,149.37324 L83.6668345,147.565972 L84.5482602,147.565972 L84.7249402,148.947333 C85.1804586,148.109831 86.1650299,147.418903 87.3114756,147.418903 C87.5903141,147.418903 87.9871037,147.462827 88.1780957,147.536361 L88.0754437,148.535738 Z" fill="#435E74"></path>
        <path d="M44.5784845,49.0723928 C43.5963809,49.0723928 42.7021236,49.96665 42.7021236,50.9487537 L42.7021236,80.5747258 C42.7021236,81.5568295 43.5963809,82.4515803 44.5784845,82.4515803 L49.2086839,82.4515803 C50.226321,82.4515803 51.0860319,81.5918694 51.0860319,80.5747258 L51.0860319,50.9487537 C51.0860319,49.96665 50.1912812,49.0723928 49.2086839,49.0723928 L44.5784845,49.0723928 Z M43.0031705,87.5234796 C41.3933101,87.5234796 39.9191675,86.9001645 38.7406431,85.7201595 C37.6016002,84.5825972 37,83.1301695 37,81.5203091 L37,50.003664 C37,48.3933101 37.6016002,46.9413759 38.7401496,45.8028265 C39.9191675,44.6238086 41.3933101,44 43.0031705,44 L50.784985,44 C52.4170538,44 53.83,44.5853141 54.9848355,45.739656 C56.165334,46.8584646 56.787662,48.3321137 56.787662,50.003664 L56.787662,81.5203091 C56.787662,83.1523779 56.202348,84.5658175 55.0475125,85.7201595 C53.9287039,86.9011515 52.4555484,87.5234796 50.784985,87.5234796 L43.0031705,87.5234796 Z M68.4495264,63.0192522 L74.0450499,63.0192522 C75.0222183,63.0192522 75.9100598,62.1407876 75.9840877,61.1014357 L75.9845813,50.9487537 C75.9845813,49.96665 75.090324,49.0723928 74.1087139,49.0723928 L68.4495264,49.0723928 L68.4495264,63.0192522 Z M77.3649551,87.5234796 L72.1331555,68.0911515 L68.4495264,68.0911515 L68.4495264,87.5234796 L62.7478963,87.5234796 L62.7478963,44 L75.7471984,44 C77.2711864,44 78.7645763,44.6198604 79.9529711,45.7455783 C81.0702991,46.8624128 81.6871984,48.3755434 81.6871984,50.003664 L81.6871984,61.0797208 C81.6871984,62.6851396 81.1206381,64.1000598 80.0042971,65.2864806 C79.3311366,65.8964706 78.5459472,66.3628465 77.8017198,66.592333 L77.5218943,66.6777119 L83.3567747,87.5234796 L77.3649551,87.5234796 Z M87.5951196,87.5234796 L87.5951196,44 L102.752089,44 L102.752089,49.0723928 L93.2977368,49.0723928 L93.2977368,63.0192522 L102.453509,63.0192522 L102.453509,68.0911515 L93.2977368,68.0911515 L93.2977368,82.4515803 L102.752089,82.4515803 L102.752089,87.5234796 L87.5951196,87.5234796 Z M156.564955,87.5234796 L146.642747,57.1804237 L146.661007,87.5234796 L141.455364,87.5234796 L141.455364,44 L147.243853,44 L157.071306,72.2480658 L157.071306,44 L162.348509,44 L162.348509,87.5234796 L156.564955,87.5234796 Z M129.736745,44 C131.37819,44 132.872074,44.6534197 133.94153,45.841321 C134.946336,46.907323 135.498091,48.2975673 135.498091,49.7618395 L135.498091,51.3351795 L129.889736,51.3351795 L129.889736,50.6486939 C129.889736,49.7949053 129.111949,49.0176122 128.258654,49.0176122 L114.294521,49.0176122 C113.44172,49.0176122 112.663933,49.7949053 112.663933,50.6486939 L112.663933,61.6443071 C112.663933,62.4985892 113.44172,63.2758824 114.294521,63.2758824 L128.258654,63.2758824 C129.111949,63.2758824 129.889736,62.4985892 129.889736,61.6443071 L129.889736,58.7394516 L117.441201,58.7394516 L117.441201,54.3288684 L135.498091,54.3288684 L135.498091,62.531655 C135.498091,64.1874128 134.827398,65.7415055 133.65677,66.794676 C132.570533,67.760987 131.177328,68.293988 129.736745,68.293988 L112.816431,68.293988 C111.354626,68.293988 109.942667,67.7205184 108.840145,66.6796859 C107.706037,65.6043071 107.054591,64.0921635 107.054591,62.531655 L107.054591,49.7618395 C107.054591,48.2610469 107.663101,46.791346 108.725155,45.7292921 C109.840508,44.6144317 111.29343,44 112.816431,44 L129.736745,44 Z M129.90849,80.8742921 L129.90849,78.3035494 C129.90849,77.4497607 129.130703,76.6729611 128.276421,76.6729611 L114.314262,76.6729611 C113.460474,76.6729611 112.682687,77.4497607 112.682687,78.3035494 L112.682687,80.8742921 C112.682687,81.7275872 113.460474,82.5053739 114.314262,82.5053739 L128.276421,82.5053739 C129.161301,82.5053739 129.90849,81.758679 129.90849,80.8742921 Z M129.755499,71.6543619 C131.322916,71.6543619 132.679601,72.2169741 133.788046,73.3254187 C134.920673,74.39833 135.516844,75.8122632 135.516844,77.4171884 L135.516844,81.7611466 C135.516844,83.3285643 134.955219,84.6852493 133.846281,85.7927069 C132.77337,86.9258275 131.359437,87.5234796 129.755499,87.5234796 L112.835184,87.5234796 C111.290469,87.5234796 109.875548,86.925334 108.743908,85.7927069 C107.650763,84.7005484 107.072851,83.3063559 107.072851,81.7611466 L107.072851,77.4171884 C107.072851,75.8719791 107.650763,74.4782802 108.743908,73.3846411 C109.875548,72.253001 111.289975,71.6543619 112.835184,71.6543619 L129.755499,71.6543619 Z" fill="#435E74"></path>
    </g>
</svg>
