<?xml version="1.0" encoding="UTF-8"?>
<svg width="200px" height="200px" viewBox="0 0 200 200" version="1.1" xmlns="http://www.w3.org/2000/svg" xmlns:xlink="http://www.w3.org/1999/xlink">
    <!-- Generator: Sketch 53 (72520) - https://sketchapp.com -->
    <title>logo/occ</title>
    <desc>Created with Sketch.</desc>
    <g id="logo/occ" stroke="none" stroke-width="1" fill="none" fill-rule="evenodd">
        <path d="M47.2551173,83.8559583 C46.3149192,83.8559583 45.4588191,84.7120584 45.4588191,85.6522566 L45.4588191,114.014115 C45.4588191,114.954313 46.3149192,115.810886 47.2551173,115.810886 L51.6877503,115.810886 C52.6619657,115.810886 53.4849934,114.987858 53.4849934,114.014115 L53.4849934,85.6522566 C53.4849934,84.7120584 52.6284209,83.8559583 51.6877503,83.8559583 L47.2551173,83.8559583 Z M45.7470205,120.666371 C44.2058514,120.666371 42.7946092,120.069653 41.6663714,118.939997 C40.5759305,117.850974 40,116.46052 40,114.919351 L40,84.747493 C40,83.2058514 40.5759305,81.81587 41.6658989,80.7259015 C42.7946092,79.5971912 44.2058514,79 45.7470205,79 L53.196792,79 C54.7592219,79 56.1118789,79.5603392 57.2174386,80.6654265 C58.3475662,81.7364965 58.9433401,83.1472662 58.9433401,84.747493 L58.9433401,114.919351 C58.9433401,116.481781 58.3830008,117.83491 57.2774411,118.939997 C56.2063711,120.070598 54.7960738,120.666371 53.196792,120.666371 L45.7470205,120.666371 Z M70.1076031,97.2077177 L75.4643705,97.2077177 C76.3998441,97.2077177 77.2498022,96.3667364 77.3206714,95.3717326 L77.3211438,85.6522566 C77.3211438,84.7120584 76.4650438,83.8559583 75.525318,83.8559583 L70.1076031,83.8559583 L70.1076031,97.2077177 Z M78.6426184,120.666371 L73.634055,102.063204 L70.1076031,102.063204 L70.1076031,120.666371 L64.6492565,120.666371 L64.6492565,79 L77.0938899,79 C78.5528507,79 79.9825189,79.5934115 81.120206,80.671096 C82.1898586,81.7402762 82.7804354,83.1888428 82.7804354,84.747493 L82.7804354,95.3509443 C82.7804354,96.8878613 82.2380497,98.2424081 81.169342,99.3782054 C80.5249046,99.9621677 79.7732185,100.408644 79.0607467,100.628338 L78.7928611,100.710074 L84.3787723,120.666371 L78.6426184,120.666371 Z M88.4362709,120.666371 L88.4362709,79 L102.946506,79 L102.946506,83.8559583 L93.8955624,83.8559583 L93.8955624,97.2077177 L102.660666,97.2077177 L102.660666,102.063204 L93.8955624,102.063204 L93.8955624,115.810886 L102.946506,115.810886 L102.946506,120.666371 L88.4362709,120.666371 Z M154.463225,120.666371 L144.964388,91.6180268 L144.981869,120.666371 L139.998346,120.666371 L139.998346,79 L145.539846,79 L154.94797,106.042746 L154.94797,79 L160,79 L160,120.666371 L154.463225,120.666371 Z M128.77975,79 C130.351157,79 131.781298,79.6255389 132.805121,80.7627535 C133.767053,81.7832701 134.295265,83.1141939 134.295265,84.5159869 L134.295265,86.0221939 L128.926213,86.0221939 L128.926213,85.3650001 C128.926213,84.5476418 128.181614,83.8035151 127.364728,83.8035151 L113.996433,83.8035151 C113.18002,83.8035151 112.43542,84.5476418 112.43542,85.3650001 L112.43542,95.8914402 C112.43542,96.7092709 113.18002,97.4533976 113.996433,97.4533976 L127.364728,97.4533976 C128.181614,97.4533976 128.926213,96.7092709 128.926213,95.8914402 L128.926213,93.1105323 L117.008847,93.1105323 L117.008847,88.8881448 L134.295265,88.8881448 L134.295265,96.7409258 C134.295265,98.3260338 133.65319,99.8138148 132.532511,100.822047 C131.492624,101.747127 130.158865,102.257385 128.77975,102.257385 L112.581411,102.257385 C111.18198,102.257385 109.830268,101.708385 108.774789,100.711964 C107.689073,99.6824705 107.065424,98.2348488 107.065424,96.7409258 L107.065424,84.5159869 C107.065424,83.0792318 107.647969,81.6722417 108.664706,80.6555048 C109.732469,79.5882145 111.123395,79 112.581411,79 L128.77975,79 Z M128.944167,114.300899 L128.944167,111.839847 C128.944167,111.022489 128.199568,110.278835 127.381737,110.278835 L114.015331,110.278835 C113.197973,110.278835 112.453374,111.022489 112.453374,111.839847 L112.453374,114.300899 C112.453374,115.117785 113.197973,115.862384 114.015331,115.862384 L127.381737,115.862384 C128.22886,115.862384 128.944167,115.14755 128.944167,114.300899 Z M128.797704,105.474375 C130.298241,105.474375 131.597038,106.012981 132.658186,107.074129 C133.742485,108.10126 134.313218,109.454862 134.313218,110.991307 L134.313218,115.149912 C134.313218,116.650449 133.775557,117.949246 132.713936,119.009449 C131.686805,120.094221 130.333203,120.666371 128.797704,120.666371 L112.599365,120.666371 C111.12056,120.666371 109.766013,120.093748 108.682659,119.009449 C107.636157,117.963892 107.082905,116.629189 107.082905,115.149912 L107.082905,110.991307 C107.082905,109.51203 107.636157,108.177799 108.682659,107.130825 C109.766013,106.047471 111.120088,105.474375 112.599365,105.474375 L128.797704,105.474375 Z" id="Combined-Shape" fill="#435E74"></path>
    </g>
</svg>