<?xml version="1.0" encoding="UTF-8"?>
<svg width="200px" height="200px" viewBox="0 0 200 200" version="1.1" xmlns="http://www.w3.org/2000/svg" xmlns:xlink="http://www.w3.org/1999/xlink">
    <!-- Generator: Sketch 53 (72520) - https://sketchapp.com -->
    <title>logo/paramount</title>
    <desc>Created with Sketch.</desc>
    <g id="logo/paramount" stroke="none" stroke-width="1" fill="none" fill-rule="evenodd">
        <g id="Paramount_Pictures_print_logo_(1968)" transform="translate(35.000000, 47.000000)" fill="#435E74" fill-rule="nonzero">
            <polygon id="Shape" points="117.382208 68.9149703 118.140873 66.0581734 115.819604 67.8885414 113.363807 66.2813101 114.167099 69.0947732 112.02434 70.7912592 114.881136 70.7466318 115.908212 73.3363114 116.890661 70.6573771 119.838653 70.5234951"></polygon>
            <polygon id="Shape" points="114.212373 78.2912403 115.462586 75.6575802 112.91818 76.9970473 110.596265 75.122052 111.042538 77.9794957 108.630721 79.2303549 111.578713 79.6759816 112.113594 82.6233267 113.408434 79.9437457 116.310505 80.3460386"></polygon>
            <polygon id="Shape" points="121.40061 59.8510917 118.632421 58.7347613 118.810283 55.7874161 116.935935 58.0647043 114.211726 56.9483739 115.685075 59.4041715 113.810727 61.6814596 116.667524 60.9667753 118.230128 63.5118276 118.498539 60.5651292"></polygon>
            <polygon id="Shape" points="121.177473 49.4031186 118.275402 48.7783357 118.006991 45.8316374 116.489014 48.3766896 113.586943 47.6620053 115.551193 49.8946662 113.98859 52.4397184 116.712798 51.323388 118.721675 53.5560488 118.453264 50.5647231"></polygon>
            <polygon id="Shape" points="114.926411 36.1429759 113.898688 38.9111649 110.996617 38.8219102 113.318533 40.6522782 112.291457 43.4657413 114.791882 41.724628 117.159071 43.5103686 116.309858 40.6975523 118.721675 39.0456937 115.729703 39.0010664"></polygon>
            <polygon id="Shape" points="109.523915 29.6241496 106.577216 30.1150504 109.256151 31.4545175 108.809877 34.4012159 110.864029 32.3030839 113.542963 33.5532963 112.204143 30.9636167 114.21302 28.8208573 111.310949 29.3117581 109.882227 26.7667059"></polygon>
            <polygon id="Shape" points="105.639395 24.4894177 108.453505 25.2480826 106.621844 22.9707944 108.363604 20.4703695 105.550141 21.4967984 103.719126 19.1755297 103.853008 22.0776007 101.039545 23.1493038 103.897635 23.9079687 103.941616 26.854667"></polygon>
            <polygon id="Shape" points="95.8168518 12.6573501 96.5761634 15.4255391 94.1203659 17.0327703 97.0683578 17.1672991 97.8263759 20.0693702 99.1218625 17.3904359 101.844777 17.3904359 99.8359 15.6046953 100.550584 12.7912321 98.0947867 14.4430907"></polygon>
            <polygon id="Shape" points="89.2087707 11.6302744 90.5482379 14.3092087 91.0404322 11.4071377 94.0311112 11.0054915 91.4414316 9.5767697 91.887705 6.71932602 89.7889262 8.72820336 87.1099919 7.56789237 88.3149303 10.2021993 86.3060529 12.033214"></polygon>
            <polygon id="Shape" points="81.2165952 5.55836826 81.0820664 2.61166989 79.4308546 5.06746746 76.6167447 4.3974105 78.2692501 6.63007133 76.8405282 8.99661421 79.5194625 8.05879317 81.4403787 10.3360814 81.1719679 7.56789237 84.0740389 6.27305257"></polygon>
            <polygon id="Shape" points="68.0004331 4.84368395 67.0179847 7.65650029 69.563037 6.1831511 71.8409719 8.19202844 71.1262876 5.28995741 73.7153205 3.77198088 70.6800142 3.50357003 69.9653299 0.646773128 68.9382541 3.32570742 65.9902622 3.10257069"></polygon>
            <polygon id="Shape" points="57.0615592 8.0581464 59.2495927 6.1831511 61.7946449 7.65650029 60.6336872 4.8883113 62.7764466 2.92341454 59.8743755 3.19117861 58.6241631 0.556871663 58.0886349 3.41496211 55.1419366 3.77262765 57.6423615 5.20070272"></polygon>
            <polygon id="Shape" points="51.1228883 6.85320806 52.9086289 4.44203784 50.0511853 5.33523153 48.3540526 2.87943396 48.3540526 5.96001437 45.4966089 6.71867925 48.2647979 7.65650029 48.2201705 10.5585713 50.0059111 8.28128313 52.8633548 9.21910416"></polygon>
            <polygon id="Shape" points="43.5330057 12.4788407 41.3902463 10.4246893 42.6404588 7.74575498 39.9168971 9.12984947 37.9080198 7.07634479 38.3995674 9.97841581 35.8545151 11.3625103 38.7119588 11.8087838 39.2028596 14.6662274 40.5423267 12.0319205"></polygon>
            <polygon id="Shape" points="32.8172685 17.4790438 35.8532216 17.2112797 33.3081693 15.6480291 33.9329521 12.7905854 31.6110366 14.7108548 29.1552391 13.1482509 30.3161968 15.8711658 28.1281633 17.8360625 31.0302343 17.6129258 32.1465648 20.2918601"></polygon>
            <polygon id="Shape" points="26.2091875 22.3460116 26.4323242 19.3993132 24.5120548 21.7205819 21.7884931 20.6042515 23.351097 23.1046764 21.4761017 25.3373373 24.3335454 24.6232997 25.8961493 27.1237247 26.0746586 24.1770263 29.0220038 23.5522434"></polygon>
            <path d="M104.210673,82.9350714 C103.719126,83.4259722 103.495989,84.0067745 103.495989,84.7214588 C103.495989,85.390869 103.719773,86.0162986 104.210673,86.462572 C104.656947,86.9534728 105.28173,87.1766096 105.95114,87.1766096 C106.621197,87.1766096 107.246626,86.9528261 107.737527,86.462572 C108.183801,86.0162986 108.406937,85.390869 108.406937,84.7214588 C108.406937,84.0074212 108.183801,83.4259722 107.737527,82.9350714 C107.246626,82.4887979 106.621197,82.2656612 105.95114,82.2210339 C105.282377,82.2650144 104.656947,82.4881512 104.210673,82.9350714 Z M103.853008,84.720812 C103.898282,84.0953824 104.076791,83.6038348 104.478438,83.2021887 C104.836103,82.8011894 105.327651,82.6220332 105.951787,82.5774059 C106.577216,82.6220332 107.068117,82.8011894 107.47041,83.2021887 C107.827429,83.6038348 108.005938,84.0953824 108.050565,84.720812 C108.005938,85.3003207 107.826782,85.7918683 107.47041,86.1935144 C107.068117,86.55118 106.577216,86.7736699 105.951787,86.7736699 C105.327004,86.7736699 104.835456,86.5505332 104.478438,86.1935144 C104.076791,85.7918683 103.898929,85.3009675 103.853008,84.720812 Z" id="Shape"></path>
            <path d="M106.174923,84.9439487 C106.398707,84.9439487 106.532589,85.0338502 106.532589,85.2563402 L106.532589,85.7918683 L106.621844,86.0596324 L107.201999,86.0596324 L107.201999,85.9257503 C107.113391,85.9257503 107.113391,85.8364956 107.113391,85.7026136 L107.068117,85.1224581 L106.978862,84.8540473 L106.801,84.7201652 L107.024137,84.5416558 L107.158019,84.2738918 C107.202646,84.050755 107.202646,83.8722457 107.114038,83.7383636 L106.890901,83.4259722 L106.488608,83.3373643 L104.969985,83.3373643 L104.969985,86.0602792 L105.50616,86.0602792 L105.50616,84.9439487 L106.174923,84.9439487 L106.174923,84.9439487 Z M106.308805,83.782991 C106.532589,83.782991 106.621197,83.8722457 106.621197,84.0947356 L106.531942,84.3631465 L106.308159,84.4970285 L105.504866,84.4970285 L105.504866,83.782991 L106.308805,83.782991 L106.308805,83.782991 Z" id="Shape"></path>
            <polygon id="Shape" points="112.202849 105.749993 110.416462 102.223786 108.586094 105.749993 109.702424 105.749993 110.416462 104.365899 111.175773 105.749993"></polygon>
            <polygon id="Shape" points="19.9134978 27.1237247 18.4401486 29.6687769 15.582705 29.1778761 17.5915823 31.2320276 16.2074878 33.8663345 18.8417948 32.6161221 20.8066915 34.8041555 20.4943001 31.9020845 23.2178617 30.6072447 20.3157907 29.9824619"></polygon>
            <polygon id="Shape" points="16.654408 41.143179 19.0209509 39.3574384 16.0736058 39.4466931 15.0911574 36.5892494 14.1979637 39.4466931 11.2512653 39.4913204 13.6624356 41.143179 12.8584966 43.9559953 15.1804121 42.214882 17.546955 43.9120147"></polygon>
            <polygon id="Shape" points="14.6448839 50.519449 16.6537613 48.2421608 13.7963176 48.7330616 12.2330669 46.4117929 11.9206755 49.2692366 9.06323184 49.9392935 11.7867935 51.1002513 11.5183826 54.0023223 13.438652 51.8589162 16.1175863 53.0198739"></polygon>
            <polygon id="Shape" points="8.84009511 60.3866198 11.6975388 61.0120495 12.0099302 63.9593946 13.5279067 61.503597 16.3413698 62.0837525 14.4211004 59.8510917 15.939077 57.2614121 13.2155153 58.4669972 11.206638 56.2789637 11.5190294 59.1810347"></polygon>
            <polygon id="Shape" points="10.7603645 70.7899656 13.6624356 70.968475 14.4657278 73.7819381 15.4928035 71.0137491 18.4395019 71.1922585 16.1182331 69.3166164 17.2791909 66.5490742 14.7341386 68.2009328 12.4568504 66.3259375 13.2161621 69.1840279"></polygon>
            <polygon id="Shape" points="2.94734514 105.749993 3.9737741 105.749993 2.14275937 102.223786 0.357018767 105.749993 1.47334918 105.749993 2.14275937 104.365899"></polygon>
            <polygon id="Shape" points="19.1994603 78.246613 19.7796158 75.2992679 17.680837 77.3534193 15.0019027 75.9240507 16.2521152 78.6489059 14.1979637 80.6577832 17.1000347 80.2554903 18.3948745 82.8451699 18.8857753 80.0323536 21.8324737 79.6300607"></polygon>
            <path d="M49.9173032,102.759315 C49.6049118,102.446923 49.2032657,102.26712 48.6670908,102.22314 C48.1309158,102.267767 47.7292697,102.446923 47.4168783,102.759315 C47.0592128,103.116333 46.9253307,103.517333 46.8807034,104.009527 C46.9253307,104.545055 47.0592128,104.991975 47.4168783,105.30372 C47.7292697,105.616111 48.1309158,105.795914 48.6670908,105.795914 C49.2032657,105.795914 49.6049118,105.617405 49.9173032,105.30372 C50.2749688,104.991975 50.4534781,104.545055 50.4534781,104.009527 C50.4534781,103.517979 50.2749688,103.116333 49.9173032,102.759315 Z M48.0869353,103.473352 C48.2654447,103.294843 48.443954,103.249569 48.6670908,103.205588 C48.9348548,103.249569 49.1133642,103.294196 49.2472463,103.473352 C49.4257556,103.606587 49.470383,103.785743 49.470383,104.00888 C49.470383,104.276644 49.4257556,104.455154 49.2472463,104.589036 C49.1133642,104.767545 48.9348548,104.8568 48.6670908,104.8568 C48.443954,104.812172 48.2654447,104.768192 48.0869353,104.589036 C47.9084259,104.455154 47.8637985,104.276644 47.8637985,104.00888 C47.8637985,103.78639 47.9084259,103.606587 48.0869353,103.473352 Z" id="Shape"></path>
            <polygon id="Shape" points="23.9318993 105.749993 23.9318993 102.357022 22.9494509 102.357022 22.9494509 105.749993"></polygon>
            <polygon id="Shape" points="29.3790226 105.749993 30.495353 105.749993 31.2546646 104.365899 32.0133295 105.749993 33.0404052 105.749993 31.2546646 102.223786"></polygon>
            <polygon id="Shape" points="16.8775448 102.357022 15.8058417 102.357022 15.0019027 103.741116 14.2878652 102.357022 13.2161621 102.357022 15.0019027 105.884522"></polygon>
            <polygon id="Shape" points="59.7404935 104.411173 60.320649 105.749993 61.4369794 105.749993 59.7851208 102.223786 58.9365545 103.964253 58.0879881 102.223786 56.4361296 105.749993 57.55246 105.749993 58.1772428 104.411173 58.9365545 105.92915"></polygon>
            <path d="M88.2263224,61.369715 L88.315577,61.5928517 L89.7449457,63.7356111 C90.012063,64.1818846 90.1465918,64.6288048 90.2358465,64.9411962 L90.1912191,65.6552337 L90.4150026,66.0568799 L97.8710032,74.9868764 L97.8263759,74.808367 L97.7823953,74.6305044 L94.16564,68.9595977 C94.0311112,68.7364609 93.9425033,68.5133242 93.8972291,68.2901875 L93.8532486,67.5308758 L93.6294651,66.9054462 L91.8883518,64.7180595 L88.5393605,61.5029503 C88.315577,61.369715 88.2263224,61.2798135 88.2263224,61.369715 Z" id="Shape"></path>
            <polygon id="Shape" points="119.25785 103.830371 117.248326 102.313041 117.248326 105.749347 118.231421 105.749347 118.231421 104.410526 120.240299 105.839248 120.240299 102.356375 119.25785 102.356375"></polygon>
            <path d="M103.541263,104.365899 C103.719126,104.18739 103.853008,103.919626 103.853008,103.562607 C103.853008,103.160961 103.719126,102.893197 103.452009,102.669413 C103.228225,102.446276 102.871853,102.357022 102.513541,102.357022 L101.129446,102.357022 L101.129446,105.795268 L102.156522,105.795268 L102.156522,104.67829 L102.736031,104.67829 C103.049716,104.678937 103.318127,104.589682 103.541263,104.365899 Z M102.692697,103.830371 L102.290404,103.919626 L102.156522,103.919626 L102.156522,103.116333 L102.290404,103.116333 L102.648716,103.160961 C102.782598,103.250215 102.826579,103.33947 102.871853,103.473352 C102.871853,103.696489 102.826579,103.78639 102.692697,103.830371 Z" id="Shape"></path>
            <polygon id="Shape" points="93.851955 102.22314 93.0033887 103.963606 92.110195 102.22314 90.5029638 105.749993 91.619941 105.749993 92.2000965 104.410526 93.0033887 105.92915 93.7627003 104.410526 94.3428558 105.749993 95.4591862 105.749993"></polygon>
            <polygon id="Shape" points="126.490067 102.357022 125.373737 102.357022 126.623949 104.678937 126.623949 105.749993 127.652319 105.749993 127.652319 104.678937 128.85661 102.357022 127.74028 102.357022 127.160124 103.517979"></polygon>
            <path d="M53.7125679,56.3682184 L52.7747469,57.797587 C52.372454,58.3331152 52.016082,58.7347613 51.6584165,59.0477995 C51.212143,59.3601909 50.8544775,59.5833276 50.6759681,59.8071111 L50.1397932,60.4765213 L46.568312,65.6558805 C46.2559205,66.1914087 46.1220385,66.5490742 46.1220385,66.7722109 C46.1220385,66.9507203 46.1666659,67.0846024 46.2565673,67.1745038 C46.345822,67.2637585 46.345822,67.3976405 46.345822,67.6201305 C46.3011947,67.7540125 46.0780579,68.066404 45.6757651,68.5133242 L45.0509822,70.4335936 L44.2024159,72.0854522 C44.1131612,72.4431177 44.0239065,72.7994897 43.9792791,73.1125279 C43.8900244,73.4701934 43.7561424,73.8718396 43.5330057,74.318113 L41.8811471,77.3540661 C41.7026377,77.6218302 41.6580104,77.9342216 41.7472651,78.2026324 L42.8189681,76.6840091 L43.6229071,76.0585795 L44.113808,75.5676787 L44.5600814,75.2106599 L45.0063549,74.4959756 C45.1402369,74.0943295 45.3633736,73.7819381 45.6311377,73.4249193 L46.3451752,72.576353 C46.3451752,72.4424709 46.4344299,72.3525695 46.5236846,72.3085889 L46.7914487,71.8623155 L47.3276236,70.7906124 C47.640015,70.3443389 47.8631518,70.0765748 48.1309158,69.8974187 L49.2026189,69.2280085 L52.5509634,63.3792391 C52.4617087,62.8430642 52.4170814,62.3521634 52.4617087,61.8166352 L52.6848454,60.2980119 C52.8187275,59.5839744 53.0418642,58.8692901 53.3995297,58.2438605 L54.1581946,56.6812566 C54.3813314,56.2349831 54.4259587,55.9219449 54.2474493,55.7880629 L53.7125679,56.3682184 Z" id="Shape"></path>
            <path d="M42.5505573,62.1730072 C42.8629487,61.7267338 42.9528502,61.4589697 42.8629487,61.4136956 C42.8183214,61.3244409 42.639812,61.4136956 42.2827932,61.6821064 L39.8269957,63.8694931 C39.201566,64.4496486 38.6214105,65.0750782 38.0858824,65.7011546 L28.9773764,78.2912403 L34.067481,72.4864515 C35.4069481,70.9691218 36.3001418,69.8967719 36.8356699,69.4065179 L37.2819434,69.1374603 L37.6389622,69.004225 L38.0852356,68.7364609 L42.5505573,62.1730072 Z" id="Shape"></path>
            <path d="M39.6038589,103.473352 C39.737741,103.294843 39.9608777,103.249569 40.1840144,103.205588 L40.5410332,103.249569 L40.5410332,102.26712 L40.1840144,102.222493 C39.6478395,102.26712 39.201566,102.446276 38.8891746,102.758668 C38.5315091,103.115687 38.3982738,103.516686 38.3982738,104.00888 C38.3982738,104.544408 38.5321559,104.991329 38.8891746,105.303073 C39.201566,105.615465 39.6478395,105.795268 40.1840144,105.795268 L40.5410332,105.795268 L40.5410332,104.812172 L40.1840144,104.8568 C39.9156036,104.8568 39.737741,104.768192 39.6038589,104.589036 C39.4253495,104.455154 39.3807222,104.276644 39.3360949,104.00888 C39.3807222,103.78639 39.4253495,103.606587 39.6038589,103.473352 Z" id="Shape"></path>
            <path d="M85.5473881,104.009527 C85.5473881,103.517333 85.3701722,103.116333 85.0125067,102.759315 C84.7001153,102.446923 84.2978224,102.26712 83.7616475,102.22314 C83.2267661,102.267767 82.8244732,102.446923 82.511435,102.759315 C82.1537695,103.116333 82.0198874,103.517333 81.9752601,104.009527 C82.0205342,104.545055 82.1537695,104.991975 82.511435,105.30372 C82.8238264,105.616111 83.2261193,105.795914 83.7616475,105.795914 C84.2971756,105.795914 84.6994685,105.617405 85.0125067,105.30372 C85.3688787,104.991329 85.5473881,104.545055 85.5473881,104.009527 Z M84.5655865,104.009527 C84.5655865,104.277291 84.5203123,104.4558 84.3418029,104.589682 C84.2072741,104.768192 84.0294115,104.857447 83.7610007,104.857447 C83.537864,104.812819 83.3600013,104.768839 83.1808452,104.589682 C83.0036293,104.4558 82.9577085,104.277291 82.9577085,104.009527 C82.9577085,103.78639 83.0029826,103.607234 83.1808452,103.473999 C83.3593546,103.295489 83.5385107,103.250215 83.7610007,103.206235 C84.0294115,103.250215 84.2072741,103.294843 84.3418029,103.473999 C84.5209591,103.606587 84.5655865,103.78639 84.5655865,104.009527 Z" id="Shape"></path>
            <path d="M75.010807,102.267767 L74.6531415,102.22314 C74.1176133,102.267767 73.7153205,102.446923 73.3583017,102.759315 C73.0459103,103.116333 72.8674009,103.517333 72.8674009,104.009527 C72.8674009,104.545055 73.0446167,104.991975 73.3583017,105.30372 C73.7153205,105.616111 74.1176133,105.795914 74.6531415,105.795914 L75.010807,105.795914 L75.010807,104.812819 L74.6531415,104.857447 C74.3847306,104.857447 74.206868,104.768839 74.0277119,104.589682 C73.8944766,104.4558 73.8045752,104.277291 73.8045752,104.009527 C73.8045752,103.78639 73.8944766,103.607234 74.0277119,103.473999 C74.2062213,103.295489 74.4300048,103.250215 74.6531415,103.206235 L75.010807,103.250215 L75.010807,102.267767 Z" id="Shape"></path>
            <path d="M88.0924403,71.6831593 C88.5846347,72.0848054 89.1641434,72.6656077 89.7449457,73.4695467 L93.0486628,77.5772028 L94.9230113,80.2115098 C95.146148,80.4792738 95.2806769,80.6577832 95.4585395,80.7030573 C95.5924215,80.65843 95.5038136,80.2567839 95.2354027,79.6759816 L92.4672138,74.4519951 C91.8870583,73.4695467 91.3961575,72.5317256 90.9938646,71.6391787 C90.816002,71.3267873 90.6814731,71.1469844 90.5475911,71.1030038 L90.2351997,70.7906124 C89.8342004,70.3443389 89.5657895,69.8974187 89.342006,69.4964193 C89.1647902,69.0947732 88.9849872,68.7371077 88.7624973,68.4247163 L85.9943083,66.0588202 L84.7434491,64.719353 L84.0740389,64.1838249 L83.5831381,63.5137679 L83.537864,62.0410655 L83.3600013,61.594792 L82.6006897,60.5677163 L76.3502742,53.6472439 L75.7248446,53.1117157 C75.7701187,53.2455977 75.8140993,53.3794798 75.903354,53.512715 L76.0818633,53.9143612 L77.4659578,56.1023946 L77.7783492,56.7724516 L77.7783492,57.2633524 L77.8223298,57.8435079 L78.4477594,59.0051124 L79.161797,59.8983061 L80.0549907,61.5048906 C80.2781274,61.9964382 80.5012641,62.4879857 80.5905188,62.9782398 L81.0367923,63.5137679 L81.6169478,64.8092545 C81.8407313,65.38941 82.1531227,66.0594669 82.5554156,66.7288771 L84.965939,70.0319475 L85.4581334,70.6573771 L86.7516796,71.0150427 L86.7969537,71.1042973 C87.1106387,71.1030038 87.5122848,71.3261405 88.0924403,71.6831593 Z" id="Shape"></path>
            <path d="M67.1072394,48.1535529 L68.2242166,51.7703082 C68.3134713,52.2165817 68.3134713,52.4843458 68.2242166,52.5736005 C68.2694907,52.8420113 68.2242166,53.0645013 68.046354,53.2436574 L67.5541596,53.8238129 C67.3310229,54.0469496 67.1971409,54.2700864 67.1078862,54.5831246 C67.1078862,54.895516 67.1977877,55.2525348 67.5101791,55.699455 L67.5994338,56.0118464 L68.1349619,57.5744503 L69.1626844,61.9938511 L70.0552313,64.271786 C70.2330939,64.5389033 70.366976,64.7180595 70.4568774,64.6727854 C70.4568774,64.7180595 70.5901127,64.8073142 70.9025041,64.8512947 L71.8409719,65.1190588 C72.1979907,65.2083135 72.4211274,65.3874697 72.5103821,65.6106064 C72.6442642,65.6106064 72.7781462,65.8783705 72.9566556,66.4145454 L73.5814384,68.200286 C73.8045752,68.870343 74.0277119,69.4504985 74.2961227,69.9866734 L77.1981938,77.1302826 L77.7783492,78.91667 L78.7607976,81.3278402 C78.9386602,81.6395848 79.161797,81.952623 79.4302078,82.2656612 C79.3855805,82.3549159 79.5194625,82.4441706 79.6979719,82.4441706 L80.769675,82.3542691 L80.0549907,80.7024106 L79.4302078,78.3358677 L79.1178164,77.576556 L78.9839344,76.9964005 C78.939307,76.8625185 78.939307,76.7732638 78.9839344,76.6840091 L79.5194625,76.3269904 L79.4748352,75.2999146 L79.1624437,74.0490554 L78.8946797,73.4242726 L78.4037789,72.8887444 L77.7343687,71.5932578 L76.1271375,67.3070923 C75.9932554,66.6823095 75.9486281,66.2806634 76.037236,66.102154 C75.9479813,65.9682719 75.9932554,65.8343899 76.0825101,65.7444884 L76.4835094,65.432097 C76.6620188,65.3881164 76.7072929,65.2089603 76.7072929,64.9858236 C76.841175,64.941843 76.7525671,64.6288048 76.4835094,64.0486493 L75.4124531,61.7267338 L71.1256409,54.0029691 L71.0357394,53.6905777 L67.1958473,46.9932419 C66.9280833,46.6808505 66.8388286,46.6362231 66.8388286,46.9039872 C66.8841027,47.1264772 66.92873,47.5727506 67.1072394,48.1535529 Z" id="Shape"></path>
            <path d="M109.970188,43.5543492 C108.630721,38.9111649 106.667118,34.580372 103.988183,30.6059512 C101.353877,26.6768044 98.1381205,23.2385585 94.4334041,20.2925069 C90.7280408,17.3451617 86.5298364,14.9792656 81.9759068,13.2375056 C77.3773499,11.451765 72.5110289,10.4693166 67.3310229,10.2015525 C62.1070364,9.97841581 57.1508139,10.4699634 52.4177281,11.7648032 C47.6852892,13.059643 43.3092222,14.9792656 39.2908207,17.6135726 C35.2277919,20.2026054 31.7002913,23.3730873 28.6643382,27.0338232 C25.6283852,30.7398332 23.217215,34.802862 21.3862002,39.3574384 C19.6004596,43.9120147 18.5287566,48.7783357 18.2609925,54.0023223 C18.2609925,56.7705113 18.4841292,59.4048182 18.8857753,61.9052431 C19.2427941,64.4056681 19.778969,66.6376821 20.3591245,68.7371077 C20.9839074,70.7906124 21.5647096,72.5769998 22.1448651,74.0943295 L24.2876245,78.8720426 L43.4418107,56.3248846 L48.888934,50.4308411 C49.2905801,50.2523317 49.6922262,50.2077044 50.0945191,50.2077044 L51.2108495,50.2523317 C51.5678682,50.2077044 51.8809064,50.029195 52.1480237,49.5829215 L61.971214,41.5461186 C63.1321718,40.6089444 64.1139734,39.9835148 64.7840303,39.626496 L66.1694184,39.4479866 C66.5704177,39.4479866 67.017338,39.492614 67.5088855,39.7157507 C68.1330216,40.1620241 68.8477059,40.6981991 69.5177629,41.4122366 L71.795051,43.5110154 L73.759301,44.8504825 C74.1169666,44.9843646 74.429358,45.0736193 74.6964753,45.0736193 L75.4118064,45.6091474 L76.3043533,46.7254778 C76.7059994,47.2616528 77.3754096,47.9756903 78.2686033,48.8242566 C79.161797,49.7174503 80.4566368,50.8784081 82.1091421,52.2178752 C82.5101415,52.708776 82.8231796,53.0218142 83.0023358,53.1550495 C83.1801984,53.244951 83.4033351,53.3342057 83.5372172,53.3342057 L84.2519015,53.6459503 L84.7880764,54.0922238 C84.9652922,54.2261058 85.1450952,54.2700864 85.3675851,54.3599878 L86.4386414,54.5837713 C86.7070523,54.673026 87.1533257,54.9407901 87.6895007,55.476965 L89.6990248,57.7988806 C90.502317,58.6914275 91.3502366,59.8077579 92.2434303,61.013343 L95.9041662,66.3259375 L105.458946,79.0065714 L109.298838,68.9149703 C109.878993,67.0846024 110.415815,65.2542344 110.817461,63.4232197 C111.263734,61.5928517 111.531498,59.9403464 111.576773,58.4223699 C111.84583,53.1990301 111.310302,48.2874349 109.970188,43.5543492 Z M88.4054785,30.1150504 L89.9241018,30.1150504 L89.6117104,31.0082441 L90.8166487,30.2942065 L91.887705,29.8919136 L92.2893511,29.8919136 C92.5131346,29.8919136 92.7356246,29.9811683 92.914134,30.1150504 C93.0486628,30.2935598 93.0926434,30.4720691 93.0486628,30.7398332 L91.4420783,34.0435504 L91.1296869,34.5797253 L90.9958049,34.8474893 C90.9511775,35.0259987 90.9511775,35.1598808 90.9958049,35.2937628 L91.041079,35.4276448 L91.4420783,35.4276448 C91.6652151,35.3830175 92.0215871,35.2491355 92.3346253,34.936744 C92.7369181,34.66898 93.0499563,34.1774324 93.4063283,33.4633949 L94.7904228,30.6499318 L93.8532486,30.6499318 L94.0770321,29.9805216 L95.1933625,29.9805216 L96.3543203,27.4354693 L97.9169241,27.4354693 L96.7999469,29.9805216 L97.9169241,29.9805216 L97.6491601,30.6499318 L96.3543203,30.6499318 L94.2555415,35.4276448 C94.0776788,35.7846636 94.0324047,36.1423292 94.1216594,36.3208385 C94.1669335,36.5439753 94.3001688,36.63323 94.3900703,36.63323 L94.8363437,36.63323 C95.0601272,36.5886026 95.3712251,36.4100932 95.7295374,36.1423292 C96.1305367,35.8739183 96.4875555,35.4276448 96.933829,34.7582347 L97.5592586,34.802862 L97.2468672,35.2491355 L96.5328296,36.1863097 C95.6836165,37.0348761 94.8803243,37.4365222 94.1210126,37.3026401 L93.6747392,37.1241308 L92.9607017,36.5886026 C92.6922908,36.2762112 92.6036829,35.9191924 92.6483102,35.4276448 L92.2466641,35.6960557 L91.2195884,36.2315838 L89.9253954,36.5886026 L89.7022586,36.5886026 C89.5677298,36.5439753 89.4338478,36.4547206 89.3439463,36.3654659 C89.2553384,36.2762112 89.2100643,36.1423292 89.1660837,35.9638198 C89.1660837,35.8299377 89.2107111,35.606801 89.2999657,35.3383902 L90.9524711,31.9900457 C91.1303337,31.5437722 91.2202352,31.2313808 91.1303337,31.0522246 L90.9065502,31.0522246 L90.5482379,31.1867534 C90.2804738,31.2313808 90.012063,31.4551643 89.6110636,31.7669089 C89.2087707,32.1239277 88.851752,32.6594559 88.4494591,33.4640416 L86.9314826,36.544622 L85.3688787,36.544622 L86.0829162,35.2497822 L85.7705248,35.606801 L84.8773311,36.2762112 C84.4763318,36.4993479 84.0294115,36.5886026 83.537864,36.63323 L83.3147272,36.5886026 L82.9137279,36.2315838 C82.7798458,36.0530745 82.7352185,35.7853104 82.7352185,35.4276448 L82.377553,35.6960557 L81.5289866,36.2315838 L80.5019109,36.63323 L79.9217554,36.5886026 C79.743246,36.4547206 79.5647366,36.3208385 79.4754819,36.1423292 C79.3862272,35.9191924 79.3862272,35.6507816 79.5201093,35.2937628 L80.8149491,32.1239277 L80.413303,32.2131824 L79.5653834,32.3024371 L79.4315014,32.7933379 L79.0731891,33.7305122 L78.805425,34.1767856 L78.0461133,35.2038613 L77.1981938,35.963173 L76.1264907,36.6325832 C75.7694719,36.8110926 75.3678258,36.900994 74.9215523,36.9449746 C74.4752789,36.9449746 74.0736328,36.8110926 73.850496,36.5433285 C73.5820852,36.3201918 73.4488499,36.0071536 73.3583017,35.7840168 L73.269047,35.3377434 L72.1527166,36.4094465 C71.795051,36.6325832 71.4826596,36.8117393 71.1256409,36.8117393 L70.500858,36.767112 C70.2777213,36.6778573 70.1431925,36.5886026 70.0093104,36.4094465 C69.8314478,36.1863097 69.7855269,35.9185456 69.8754284,35.5168995 L71.795051,31.230734 L71.661169,31.0075973 L71.3934049,31.0075973 C71.2588761,31.0075973 71.0816603,31.096852 70.8126027,31.3199887 C70.5015048,31.5431254 70.2324472,31.9900457 69.8754284,32.5702012 L68.0450605,36.5439753 L66.3039472,36.5439753 L68.5359613,31.4538707 L68.5805886,31.3193419 L68.3568051,31.0962052 L68.0457072,31.230734 L67.3310229,31.7216348 C67.0186315,31.9900457 66.7508674,32.3916918 66.4378292,32.9718473 L64.8752254,36.5439753 L63.3126215,36.5439753 L63.8035223,35.4276448 L62.5086825,36.4100932 C62.1516637,36.63323 61.7946449,36.7677588 61.4369794,36.7224846 L61.25847,36.6778573 C61.1239412,36.6778573 60.9907059,36.5886026 60.8568239,36.4993479 C60.6336872,36.3208385 60.5444325,35.9638198 60.5884131,35.472919 L60.2313943,35.7853104 L59.382828,36.3654659 C59.0258092,36.5886026 58.6241631,36.6778573 58.1772428,36.7224846 L57.77495,36.63323 C57.5071859,36.5886026 57.3286765,36.3654659 57.1947945,36.0977018 C56.8377757,35.4276448 57.2840492,34.2666871 58.4450069,32.7040832 L57.7309694,33.0164746 L57.1947945,32.8819458 C56.9716577,32.7480638 56.882403,32.391045 56.9270304,31.8994974 L56.8384225,31.8994974 L55.8559741,33.2835919 L55.8559741,33.2835919 L54.1594882,36.5433285 L52.7753937,36.5433285 L53.4894312,35.025352 L52.3284734,36.0078003 L51.4799071,36.5879558 C51.2114963,36.7664652 50.9883595,36.8110926 50.7658696,36.8110926 C50.5427328,36.7664652 50.3635767,36.6772105 50.2296946,36.5433285 C50.0958126,36.2749176 50.0065579,36.0524277 50.0511853,35.7840168 L50.0958126,35.4269981 L49.6495392,35.829291 L48.5778361,36.5433285 C48.1315626,36.7664652 47.7738971,36.8557199 47.4168783,36.8110926 L47.1044869,36.6325832 C46.9259775,36.5433285 46.7920955,36.3201918 46.6582134,36.0078003 C46.5243314,35.6507816 46.4797041,35.2491355 46.5689587,34.8914699 C46.6582134,34.4898238 46.7920955,34.132805 46.9259775,33.9096683 L47.1491142,33.4633949 C48.0416612,32.3470644 48.8456002,31.5431254 49.6049118,31.0522246 C50.3635767,30.6059512 50.9890063,30.3381871 51.4799071,30.2036583 L52.6402181,30.0697763 L53.3542556,30.2036583 L53.6226665,30.3375403 L51.7030438,34.8468426 L51.7030438,35.1146067 C51.7030438,35.293116 51.7922985,35.3830175 51.9261806,35.4269981 C52.1493173,35.4716254 52.4170814,35.2484887 52.7747469,34.8908231 L53.8011759,33.7298654 L54.4259587,32.7926911 L55.6315438,30.2922662 L57.0602656,30.2922662 L56.5247375,31.453224 L56.8371289,31.2300872 L58.1319687,30.1583842 L58.3104781,30.0691295 L58.6674969,29.8906201 C58.8460063,29.8906201 58.9352609,29.9352474 59.0245156,30.1137568 C59.1137703,30.2922662 58.9798883,30.7838138 58.5782422,31.4978513 L58.3997328,31.7662622 L58.3997328,31.9893989 L58.5336148,31.9893989 L58.8460063,31.9001442 L59.5600438,31.4092434 C59.9623367,31.096852 60.4978648,30.8290879 61.0786671,30.5606771 C61.7034499,30.2482856 62.2836054,30.1144036 62.8644077,30.0245021 L63.8914834,30.1583842 L64.3823842,30.292913 L62.775153,33.8643942 L62.4181342,34.9807246 L62.3735069,35.0699793 L62.4181342,35.293116 L62.641271,35.3377434 L62.866348,35.3377434 L63.4911309,35.025352 C63.7588949,34.8022152 64.0273058,34.4451965 64.3390504,33.9536489 L66.1254378,30.2036583 L67.5994338,30.2036583 L67.1072394,31.230734 L67.5994338,30.8284411 C67.9105316,30.6499318 68.2235698,30.4714224 68.5812354,30.3375403 C68.9395477,30.1144036 69.2959197,30.0697763 69.5636838,30.0697763 C69.8320946,30.1144036 70.0558781,30.2036583 70.2330939,30.3375403 L70.4568774,30.8284411 L70.4568774,31.0515779 L70.7692689,30.8284411 C70.9477782,30.7391864 71.2601697,30.5606771 71.5725611,30.4261482 C71.9302266,30.2922662 72.3758533,30.1583842 72.8227735,30.1137568 L73.046557,30.1137568 L73.4048694,30.2476389 C73.5820852,30.3815209 73.6280061,30.5600303 73.6280061,30.8277944 L71.6191288,35.4716254 L71.6191288,35.6501348 C71.6191288,35.7393895 71.7077367,35.7840168 71.7969914,35.8286442 C71.9755007,35.8286442 72.1986375,35.6947621 72.5116757,35.3370966 C72.8686944,35.0247052 73.1358117,34.6230591 73.3595952,34.1761388 L73.8951234,32.8366717 C74.0736328,32.4796529 74.2974163,32.1226342 74.520553,31.7649686 C74.8782185,31.3186952 75.3238452,30.8717749 75.8600202,30.5147562 C76.4401756,30.1131101 77.1102326,29.8899733 77.9135248,29.8007186 L78.4050724,29.8899733 C78.7174638,29.9346007 78.9858747,30.1131101 79.2976193,30.3808741 C79.6100107,30.783167 79.7438928,31.2294405 79.6559316,31.8542233 L80.056931,31.8542233 C80.2807145,31.7649686 80.5931059,31.6757139 80.9061441,31.4079499 C81.2185355,31.1848131 81.5302802,30.7378929 81.7540637,30.1131101 L83.2280596,30.1577374 L81.2191823,35.0693325 L81.2191823,35.1139599 L81.1739082,35.1139599 L81.1739082,35.2484887 L81.1739082,35.4716254 C81.1739082,35.5608801 81.2631629,35.6501348 81.442319,35.5608801 L82.2456112,35.1146067 C82.5580027,34.8468426 82.8703941,34.5344512 83.1834323,34.0429036 L85.014447,30.1583842 L86.5770509,30.1583842 L84.4789189,34.8468426 L84.3890174,35.2038613 C84.3450368,35.3377434 84.3890174,35.4722722 84.4789189,35.5162528 L84.7913103,35.4716254 C84.9685261,35.4269981 85.236937,35.159234 85.6392298,34.7575879 C86.040876,34.355295 86.4877962,33.6858848 86.9780502,32.7480638 L88.4054785,30.1150504 Z M34.7368911,26.1412763 C34.0668342,26.8106865 33.5765802,27.5253708 33.1742873,28.194781 C32.8172685,28.8648379 32.5941318,29.4449934 32.4156224,29.9358942 L32.237113,30.6499318 C32.0139763,31.8108895 32.1478583,32.6588091 32.6833865,33.2842387 C32.9065232,33.5520028 33.1742873,33.7751395 33.4873255,33.9096683 L34.2906177,34.132805 L34.6929106,34.1774324 C35.4069481,34.0881777 35.8538683,33.865041 36.1662598,33.6419042 C36.4786512,33.3741402 36.6125332,33.1510034 36.7024347,32.9718473 L36.747062,32.5702012 L36.61318,31.9447716 C36.6578073,31.6323801 36.747062,31.4092434 36.9255714,31.230734 C37.0594534,31.0962052 37.1933355,31.0075973 37.4164722,31.0075973 C37.8627457,31.0075973 38.1757839,31.0522246 38.3989206,31.3199887 L38.6220573,31.6776543 L38.6220573,32.0799471 C38.6666847,32.3030839 38.5328026,32.5708479 38.3096659,32.9724941 C38.0865292,33.3295128 37.6402557,33.6871784 37.0594534,34.0441971 C36.3893965,34.3565885 35.4968496,34.580372 34.3805192,34.6243526 L34.3358918,34.6243526 L33.0856793,34.3565885 L32.237113,33.9542957 C31.0761552,33.2402581 30.4513724,32.1239277 30.2722162,30.5613238 C30.2275889,30.426795 30.2275889,30.1590309 30.2722162,29.7127575 C30.3614709,29.266484 30.5846077,28.7303091 30.8523717,28.1055263 C31.0308811,27.6592528 31.3878999,27.1677052 31.9240748,26.5875497 C32.4156224,26.0073942 33.1296599,25.426592 34.0228536,24.9356912 C35.8978489,23.8193607 38.3989206,23.1945779 41.4342269,23.0154218 C42.8183214,23.0154218 43.9792791,23.1939311 44.9171002,23.4177146 C45.8549212,23.6854787 46.6135861,24.0424975 47.1943884,24.400163 C47.7745439,24.7578286 48.2208173,25.204102 48.5338555,25.6057481 C48.980129,26.1412763 49.247893,26.7220785 49.4270492,27.2129793 C49.5609312,27.7491543 49.6055586,28.106173 49.5163039,28.3739371 C49.4270492,29.3563855 48.9807757,30.2049518 48.2214641,30.9189894 C47.5966812,31.4551643 46.7927422,31.9454183 45.8102939,32.3477112 L42.9968308,33.0617487 L42.50593,33.1510034 L41.7466183,35.2497822 L40.1840144,37.9287165 C39.9156036,38.241108 39.5139575,38.6873814 38.9784293,39.1343016 C38.3083724,39.6698298 37.6389622,40.0268486 36.8356699,40.3845141 C36.0763583,40.6969055 35.2730661,40.9646696 34.6030091,41.0985516 L32.8618958,41.3216884 C32.237113,41.3663157 31.5677028,41.277061 30.763117,41.0092969 C30.1383342,40.7861602 29.5575319,40.4291414 29.1112585,39.9822212 C28.6197109,39.5359478 28.3519468,38.9997728 28.2180648,38.241108 C28.1288101,37.7055798 28.3073195,37.214679 28.5750836,36.8123861 C28.887475,36.3661127 29.1998664,36.1429759 29.5575319,36.0537212 L30.0937069,36.0090939 L30.5846077,36.2322306 C30.8523717,36.4553673 30.9416264,36.8123861 30.9416264,37.2593063 L30.8077444,37.6609525 L30.1376874,38.5987735 C30.0484327,38.8219102 30.0484327,39.0450469 30.0484327,39.3574384 L30.1829616,39.6252024 L30.495353,40.1161032 C30.5846077,40.2499853 30.8077444,40.4284947 31.1654099,40.5623767 L32.6833865,40.7855134 C33.4873255,40.6962587 34.1567356,40.5623767 34.8261458,40.2493385 C35.4063013,39.9815744 35.9424763,39.669183 36.3887497,39.2668901 L37.3265707,38.3290691 L37.6389622,37.8381683 L37.6835895,37.8381683 C37.8620989,37.6596589 38.0858824,37.2580128 38.3536465,36.7664652 L41.2110902,30.1583842 C41.7472651,29.1759358 42.3274206,28.3726436 42.7743408,27.881096 C43.2652416,27.3449211 43.6668877,26.9885491 44.0245533,26.8093929 C44.4261994,26.5862562 44.6939634,26.4970015 44.9171002,26.4077468 L45.2294916,26.4523742 L45.2294916,26.5416288 L45.2294916,26.5416288 C44.8278455,26.8093929 44.4708267,27.211039 44.2030626,27.7918413 C43.8906712,28.3719968 43.6668877,28.9974264 43.443751,29.7114639 L42.6404588,32.5689076 L43.309869,32.5242803 L44.0691806,32.2558694 C45.0962563,31.7196945 45.8549212,31.005657 46.3904494,30.0232086 C46.6588602,29.4870337 46.8367228,29.0407602 46.9266243,28.6391141 L47.1051337,27.6566657 L46.9712516,26.8527267 C46.8819969,26.4064533 46.6588602,25.959533 46.345822,25.4686322 C45.9888032,24.9777314 45.4526283,24.4861838 44.6493361,24.0845377 C43.8900244,23.7268722 42.8183214,23.5037355 41.4342269,23.4591081 C39.871623,23.5483628 38.5321559,23.861401 37.4158254,24.3076745 C36.299495,24.8464365 35.4515755,25.426592 34.7368911,26.1412763 Z" id="Shape"></path>
            <path d="M48.1315626,35.0712729 L48.1315626,35.4735657 C48.1315626,35.5628204 48.310072,35.6967025 48.5778361,35.6967025 C48.8009728,35.6967025 49.0241095,35.6520751 49.247893,35.4282916 L49.8733227,34.7142541 L50.1410867,34.3572353 C50.8111437,33.3301596 51.3466718,32.5268674 51.6144359,31.9014378 L52.0607094,30.9636167 L51.748318,30.9189894 C51.5698086,30.874362 51.2574171,31.0082441 50.8997516,31.2313808 C50.5427328,31.4098902 50.0065579,31.900791 49.4264024,32.5708479 C48.9348548,33.2409049 48.5778361,33.776433 48.3993267,34.1780792 C48.2208173,34.6243526 48.1315626,34.8921167 48.1315626,35.0712729 Z" id="Shape"></path>
            <path d="M62.5086825,30.8737153 L62.3301731,30.8290879 C62.1956443,30.8290879 61.9725076,30.9183426 61.5708614,31.096852 C61.25847,31.3199887 60.7669224,31.7669089 60.1867669,32.4809465 L59.51671,33.4633949 L59.1596912,34.0881777 L58.8472998,35.0706261 L58.8919271,35.472919 C58.9365545,35.5175463 59.0704365,35.5621737 59.3382006,35.6514283 L60.0522381,35.2051549 L60.6323936,34.4911174 L62.1057428,31.9014378 L62.4627616,31.0528714 L62.5086825,30.8737153 Z" id="Shape"></path>
            <path d="M77.9128781,32.7939847 C78.1806421,32.1685551 78.2698968,31.7222816 78.2698968,31.4545175 L78.1806421,30.7844606 L78.0467601,30.5613238 C77.7343687,30.5166965 77.4219773,30.6059512 77.1535664,30.8290879 C76.8858023,31.096852 76.6173915,31.4092434 76.3942548,31.7669089 L75.7694719,32.7939847 L75.5463352,33.2402581 C75.1440423,34.3119612 74.876925,35.0259987 74.7870235,35.472919 C74.6971221,35.8745651 74.743043,36.1429759 74.8310041,36.1869565 L74.9648861,36.2762112 C75.2326502,36.3208385 75.4997675,36.2315838 75.7688251,36.0084471 L76.3929612,35.3383902 L76.6613721,34.9813714 C77.2428211,34.0888245 77.645114,33.3295128 77.9128781,32.7939847 Z" id="Shape"></path>
            <polygon id="Shape" points="129.48204 96.9991531 129.48204 95.2134125 0 95.2134125 0 96.9991531"></polygon>
        </g>
    </g>
</svg>