<?xml version="1.0" encoding="UTF-8"?>
<svg width="200px" height="200px" viewBox="0 0 200 200" version="1.1" xmlns="http://www.w3.org/2000/svg" xmlns:xlink="http://www.w3.org/1999/xlink">
    <!-- Generator: Sketch 53 (72520) - https://sketchapp.com -->
    <title>logo/smithsonian</title>
    <desc>Created with Sketch.</desc>
    <g id="logo/smithsonian" stroke="none" stroke-width="1" fill="none" fill-rule="evenodd">
        <g id="Group-8" transform="translate(40.000000, 39.000000)" fill="#435E74">
            <path d="M77.6842991,75.6084112 C57.6678505,83.8990654 34.7198131,74.3938318 26.4285981,54.3773832 C18.1373832,34.3614953 27.6426168,11.4123364 47.6590654,3.1211215 C67.675514,-5.16953271 90.6241121,4.33570093 98.9147664,24.3521495 C107.206542,44.3680374 97.7013084,67.3171963 77.6842991,75.6084112 Z M90.0039252,48.5405607 C87.0672897,43.497757 82.4338318,43.44 81.8601869,43.4534579 C81.8607477,43.4484112 81.8613084,43.4428037 81.8629907,43.4383178 L101.416822,39.364486 L81.8629907,35.2906542 L81.8613084,35.284486 C82.0654206,35.1011215 85.8678505,31.7461682 91.5672897,31.6614953 C95.8693458,31.5970093 99.5938318,26.3315888 97.2179439,22.2863551 C97.2179439,22.2863551 96.5114019,28.6435514 88.4848598,26.524486 C82.8392523,25.0340187 79.5213084,28.2751402 79.1282243,28.6872897 C79.1265421,28.684486 79.1242991,28.6811215 79.1226168,28.6783178 L90.071215,11.9674766 L73.3609346,22.915514 C73.3586916,22.9143925 73.3564486,22.9127103 73.3536449,22.911028 C73.3671028,22.6659813 73.673271,17.586729 77.6551402,13.4837383 C80.6523364,10.3962617 79.562243,4.03962617 75.0218692,2.85925234 C75.0218692,2.85925234 79.0171963,7.85383178 71.8435514,12.0308411 C66.7990654,14.9685981 66.7429907,19.6037383 66.7564486,20.1757009 C66.7530841,20.1745794 66.7485981,20.1740187 66.7452336,20.1734579 L62.6719626,0.619065421 L58.5975701,20.1734579 C58.5953271,20.1740187 58.5919626,20.1745794 58.5891589,20.1751402 C58.4282243,19.9962617 55.0497196,16.1871028 54.964486,10.4669159 C54.9,6.16485981 49.6351402,2.44037383 45.5893458,4.81682243 C45.5893458,4.81682243 51.9465421,5.52224299 49.8274766,13.5493458 C48.3336449,19.2084112 51.593271,22.5285981 51.9925234,22.908785 C51.9902804,22.9104673 51.9880374,22.9121495 51.9857944,22.9138318 L35.2743925,11.9652336 L46.2224299,28.6749533 C46.2218692,28.6771963 46.2201869,28.6788785 46.2190654,28.6805607 C46.0542056,28.6727103 40.9239252,28.3951402 36.786729,24.3790654 C33.6986916,21.3829907 27.3420561,22.4725234 26.162243,27.0128972 C26.162243,27.0128972 31.1568224,23.0175701 35.3338318,30.191215 C38.2794393,35.2502804 42.9330841,35.2917757 43.4831776,35.2783178 C43.4826168,35.2828037 43.4814953,35.286729 43.4803738,35.2906542 L23.9265421,39.364486 L43.4803738,43.4383178 C43.4803738,43.44 43.4814953,43.4411215 43.4814953,43.4428037 C43.3530841,43.5588785 39.5304673,46.984486 33.7704673,47.0702804 C29.4678505,47.1347664 25.7439252,52.3996262 28.1203738,56.4454206 C28.1203738,56.4454206 28.8257944,50.0882243 36.8528972,52.206729 C42.5214953,53.7033645 45.8428037,50.4302804 46.2140187,50.04 C46.2173832,50.044486 46.2201869,50.0495327 46.2235514,50.0545794 L35.2771963,66.7620561 L51.9841121,55.8162617 C51.9751402,55.9878505 51.6953271,61.1136449 47.6826168,65.2480374 C44.6854206,68.335514 45.7749533,74.6921495 50.3158879,75.8730841 C50.3158879,75.8730841 46.3205607,70.8785047 53.4942056,66.7009346 C58.551028,63.7564486 58.5947664,59.1050467 58.5818692,58.5521495 C58.5869159,58.5538318 58.5919626,58.5549533 58.5975701,58.5560748 L62.6719626,78.1099065 L66.7452336,58.5560748 C66.7463551,58.555514 66.7463551,58.555514 66.7469159,58.555514 C66.8938318,58.7170093 70.2874766,62.5306542 70.3738318,68.2642991 C70.4371963,72.5669159 75.7031776,76.2908411 79.7484112,73.9149533 C79.7484112,73.9149533 73.391215,73.208972 75.5102804,65.1824299 C77.0029907,59.526729 73.7484112,56.2071028 73.3463551,55.8229907 C73.3514019,55.8196262 73.3558879,55.8168224 73.3614953,55.8134579 L90.068972,66.7598131 L79.1226168,50.0517757 L79.1226168,50.051215 C79.3514019,50.0629907 84.4407477,50.3635514 88.551028,54.3527103 C91.6385047,57.348785 97.9951402,56.2592523 99.175514,51.7188785 C99.175514,51.7188785 94.1809346,55.7142056 90.0039252,48.5405607 Z" id="Combined-Shape"></path>
            <path d="M9.07090671,86.5446045 C8.8825103,85.0609828 8.76476254,84.1425503 8.67056434,83.2947664 C7.77568138,83.0121718 6.78660022,82.7531268 5.70332086,82.7531268 C2.66542873,82.7531268 0.852113271,84.68419 0.852113271,86.9449469 C0.852113271,89.6060462 3.23061796,90.7835238 4.73778925,91.5842085 C6.50400561,92.5261906 7.79923093,93.3504249 7.79923093,95.0930917 C7.79923093,96.8122089 6.73950112,97.9190379 4.97328477,97.9190379 C2.54768097,97.9190379 1.48795116,95.5405332 1.11115834,94.1040105 L0.428221346,94.2688574 C0.569518654,95.3992359 0.875662822,97.4244973 1.06405923,97.9190379 C1.2760052,98.0367856 1.62924847,98.2016325 2.21798725,98.4135784 C2.80672604,98.5784253 3.56031168,98.7668217 4.52584329,98.7668217 C7.65793363,98.7668217 9.7538437,96.7886594 9.7538437,94.3159565 C9.7538437,91.6784067 7.51663632,90.5715778 5.67977131,89.6295958 C3.81935675,88.6640642 2.68897828,87.8633794 2.68897828,86.1442622 C2.68897828,84.8725864 3.48966303,83.5538115 5.30297849,83.5538115 C7.35178946,83.5538115 7.96407779,85.1787306 8.38796972,86.6859018 L9.07090671,86.5446045 Z M29.3104561,98.4135784 L29.3104561,97.8012901 C27.9681316,97.6599928 27.7797352,97.5657946 27.7797352,95.9879746 L27.7797352,91.4429112 C27.7797352,89.1350552 26.6258072,87.8398299 24.7889422,87.8398299 C24.1295547,87.8398299 23.5172664,88.1224245 23.0227258,88.4521182 C22.433987,88.8053615 21.7510501,89.2528029 21.0681131,89.7708931 C20.597122,88.5463164 19.5844913,87.8398299 18.4541129,87.8398299 C17.7005272,87.8398299 17.135338,88.0988749 16.5230496,88.4756678 C15.8165631,88.9231092 15.298473,89.3470012 14.8039324,89.6766949 L14.8039324,87.7691812 C13.7677521,88.2401722 12.566725,88.5463164 11.5305447,88.7347128 L11.5305447,89.2763525 C12.8964187,89.4882985 12.9670674,89.6060462 12.9670674,91.1132175 L12.9670674,95.9879746 C12.9670674,97.5186955 12.7551214,97.6599928 11.200851,97.8012901 L11.200851,98.4135784 L16.1698064,98.4135784 L16.1698064,97.8012901 C15.0158783,97.6599928 14.8274819,97.5186955 14.8274819,95.9879746 L14.8274819,90.4538301 C15.5339685,89.8650913 16.452401,89.2292534 17.394383,89.2292534 C18.8309057,89.2292534 19.443194,90.194785 19.443194,91.9374518 L19.443194,95.9879746 C19.443194,97.542245 19.2312481,97.6599928 17.7711759,97.8012901 L17.7711759,98.4135784 L22.8107799,98.4135784 L22.8107799,97.8012901 C21.5155545,97.6599928 21.3036086,97.5186955 21.3036086,96.0350738 L21.3036086,91.4429112 C21.3036086,90.9954698 21.280059,90.7364247 21.2329599,90.4538301 C22.1278429,89.7002444 23.0227258,89.2292534 23.8705097,89.2292534 C25.3541314,89.2292534 25.9428702,90.2889832 25.9428702,91.9610014 L25.9428702,95.8937764 C25.9428702,97.5657946 25.6838251,97.6599928 24.2944016,97.8012901 L24.2944016,98.4135784 L29.3104561,98.4135784 Z M33.2772654,85.7910189 C33.9602024,85.7910189 34.4782925,85.2258297 34.4782925,84.5899918 C34.4782925,83.8835052 33.9602024,83.3654151 33.3008149,83.3654151 C32.664977,83.3654151 32.0997878,83.8835052 32.0997878,84.5899918 C32.0997878,85.2258297 32.664977,85.7910189 33.2772654,85.7910189 Z M36.0325629,98.4135784 L36.0325629,97.8012901 C34.5253916,97.6599928 34.3605447,97.5186955 34.3605447,95.917326 L34.3605447,87.7927308 C33.3243645,88.2166227 32.2175356,88.5227669 31.0165084,88.7111633 L31.0165084,89.2763525 C32.4294815,89.511848 32.5001302,89.6060462 32.5001302,91.0661184 L32.5001302,95.917326 C32.5001302,97.5186955 32.3352833,97.6599928 30.8516616,97.8012901 L30.8516616,98.4135784 L36.0325629,98.4135784 Z M43.1385274,97.5657946 L42.9265814,96.9535063 C42.5968877,97.1183531 42.055248,97.3538486 41.4665093,97.3538486 C40.8777705,97.3538486 40.1006353,97.0006054 40.1006353,95.0930917 L40.1006353,89.040857 L42.6204373,89.040857 C42.9030319,88.8760101 42.9736805,88.35792 42.7617346,88.1224245 L40.1006353,88.1224245 L40.1006353,84.8961359 L39.7709416,84.8490368 L38.2402207,86.4033072 L38.2402207,88.1224245 L37.1569414,88.1224245 L36.5211035,88.8053615 L36.6153017,89.040857 L38.2402207,89.040857 L38.2402207,95.8937764 C38.2402207,97.754191 39.064455,98.6961731 40.5480768,98.6961731 C40.7600227,98.6961731 41.1368155,98.6019749 41.5371579,98.3900289 L43.1385274,97.5657946 Z M55.912869,98.4135784 L55.912869,97.8012901 C54.5234454,97.6835424 54.3585986,97.542245 54.3585986,95.9879746 L54.3585986,91.8668032 C54.3585986,89.040857 53.0162741,87.8398299 51.1087605,87.8398299 C49.8370847,87.8398299 48.5654089,88.7111633 47.7411746,89.5589471 L47.7411746,81.6462978 C46.8227421,81.9288925 45.409769,82.3056853 44.2793906,82.4705321 L44.2793906,83.0121718 C45.833661,83.1534691 45.8807601,83.2712169 45.8807601,84.7548386 L45.8807601,95.9879746 C45.8807601,97.542245 45.6688141,97.6835424 44.255841,97.8012901 L44.255841,98.4135784 L49.2483459,98.4135784 L49.2483459,97.8012901 C47.8589224,97.6599928 47.7411746,97.4951459 47.7411746,95.9879746 L47.7411746,90.3831814 C48.4005621,89.6295958 49.295445,89.1821543 50.190328,89.1821543 C51.7681479,89.1821543 52.498184,90.1476859 52.498184,92.0787491 L52.498184,95.9879746 C52.498184,97.5186955 52.3097876,97.6599928 50.9439136,97.8012901 L50.9439136,98.4135784 L55.912869,98.4135784 Z M63.7488696,90.7599742 C63.6782209,90.1712355 63.4191759,88.7818119 63.2307794,88.2401722 C62.7362389,88.0517758 62.100401,87.8398299 61.1348694,87.8398299 C58.9683106,87.8398299 57.5553376,89.2292534 57.5553376,90.877722 C57.5553376,92.6910375 59.0860584,93.4681726 60.4990315,94.1275601 C61.676509,94.6691998 62.359446,95.234389 62.359446,96.2705693 C62.359446,97.2596504 61.5587613,97.9190379 60.6874279,97.9190379 C59.2744548,97.9190379 58.214725,96.5531639 57.7908331,94.9988935 L57.1785447,95.1166412 C57.1785447,95.9644251 57.3904907,97.5657946 57.5553376,97.8954883 C57.9792295,98.2487316 59.0625088,98.6961731 60.263536,98.6961731 C62.1475001,98.6961731 64.1492119,97.5893441 64.1492119,95.446335 C64.1492119,93.8214159 62.9481848,92.9736321 61.1819685,92.243596 C60.1222387,91.7961545 59.1802566,91.2545148 59.1802566,90.194785 C59.1802566,89.2763525 59.8160945,88.569866 60.7109774,88.569866 C61.8649055,88.569866 62.6891398,89.511848 63.1365812,90.9012715 L63.7488696,90.7599742 Z M71.5071567,87.8398299 C74.427301,87.8398299 76.6174093,90.1712355 76.6174093,93.0913798 C76.6174093,96.8828576 73.8385623,98.6961731 71.5071567,98.6961731 C68.2808681,98.6961731 66.3498049,96.1057224 66.3498049,93.4917222 C66.3498049,89.6060462 69.3641475,87.8398299 71.5071567,87.8398299 Z M71.2716612,88.6169651 C69.811589,88.6169651 68.5399132,90.0770372 68.5399132,92.7381366 C68.5399132,95.70538 69.8351385,97.9190379 71.7662017,97.9190379 C73.2262739,97.9190379 74.427301,96.8357585 74.427301,93.60947 C74.427301,90.8541724 73.3204721,88.6169651 71.2716612,88.6169651 Z M89.5165635,98.4135784 L89.5165635,97.8012901 C88.1506895,97.6599928 88.0329418,97.5657946 88.0329418,95.9644251 L88.0329418,91.4193617 C88.0329418,89.1350552 86.8554642,87.8398299 84.9950496,87.8398299 C84.3121126,87.8398299 83.6998243,88.1224245 83.0404369,88.5463164 C82.4516981,88.9466588 81.9336079,89.2999021 81.4626169,89.6531453 L81.4626169,87.7691812 C80.4264367,88.2401722 79.3196077,88.5227669 78.1892293,88.7347128 L78.1892293,89.2763525 C79.460905,89.511848 79.6022024,89.5824967 79.6022024,91.089668 L79.6022024,95.9644251 C79.6022024,97.5186955 79.4844546,97.6364432 77.8830851,97.8012901 L77.8830851,98.4135784 L82.9933378,98.4135784 L82.9933378,97.8012901 C81.6039142,97.6599928 81.4626169,97.5657946 81.4626169,95.9644251 L81.4626169,90.4302805 C82.1691035,89.8179922 83.087536,89.2292534 84.029518,89.2292534 C85.607338,89.2292534 86.1725272,90.2889832 86.1725272,91.9139023 L86.1725272,95.8466773 C86.1725272,97.4715964 86.0076803,97.6599928 84.6182568,97.8012901 L84.6182568,98.4135784 L89.5165635,98.4135784 Z M93.5069224,85.7910189 C94.1898594,85.7910189 94.7079495,85.2258297 94.7079495,84.5899918 C94.7079495,83.8835052 94.1898594,83.3654151 93.5304719,83.3654151 C92.894634,83.3654151 92.3294448,83.8835052 92.3294448,84.5899918 C92.3294448,85.2258297 92.894634,85.7910189 93.5069224,85.7910189 Z M96.2622199,98.4135784 L96.2622199,97.8012901 C94.7550486,97.6599928 94.5902017,97.5186955 94.5902017,95.917326 L94.5902017,87.7927308 C93.5540215,88.2166227 92.4471926,88.5227669 91.2461654,88.7111633 L91.2461654,89.2763525 C92.6591385,89.511848 92.7297872,89.6060462 92.7297872,91.0661184 L92.7297872,95.917326 C92.7297872,97.5186955 92.5649403,97.6599928 91.0813186,97.8012901 L91.0813186,98.4135784 L96.2622199,98.4135784 Z M107.223246,97.4951459 L105.221534,98.6961731 C104.868291,98.6961731 104.37375,98.4842271 104.114705,98.2487316 C103.808561,97.9190379 103.667264,97.5893441 103.549516,97.1890018 C102.607534,97.8248397 101.477155,98.6961731 100.770669,98.6961731 C99.0986507,98.6961731 97.9447227,97.3067495 97.9447227,95.8231278 C97.9447227,94.6691998 98.5570111,93.9391637 99.8522364,93.4917222 C101.265209,93.0207312 102.984327,92.3848933 103.502417,91.9610014 L103.502417,91.5371094 C103.502417,89.8415417 102.701732,88.8760101 101.524255,88.8760101 C101.053263,88.8760101 100.70002,89.0644065 100.464525,89.3470012 C100.158381,89.6531453 99.9464346,90.1712355 99.7580382,90.9012715 C99.66384,91.2780644 99.4047949,91.4429112 99.0751012,91.4429112 C98.6512093,91.4429112 98.0389209,90.9719202 98.0389209,90.4302805 C98.0389209,90.0770372 98.3450651,89.8179922 98.7925066,89.4882985 C99.451894,89.0173074 100.982615,88.0988749 102.324939,87.8398299 C103.031426,87.8398299 103.737912,88.0517758 104.256002,88.4756678 C105.080237,89.1586047 105.315732,90.1241364 105.315732,91.348713 L105.315732,95.7289296 C105.315732,96.7886594 105.739624,97.1419027 106.139967,97.1419027 C106.422561,97.1419027 106.752255,97.0241549 106.98775,96.8828576 L107.223246,97.4951459 Z M103.502417,96.4354161 L103.502417,92.7616861 C103.007876,93.0207312 101.877498,93.5152718 101.382957,93.7507673 C100.464525,94.1746592 99.9464346,94.6221007 99.9464346,95.4698845 C99.9464346,96.6944612 100.888417,97.2832 101.618453,97.2832 C102.230741,97.2596504 103.054975,96.8593081 103.502417,96.4354161 Z M119.503047,98.4135784 L119.503047,97.8012901 C118.137173,97.6599928 118.019425,97.5657946 118.019425,95.9644251 L118.019425,91.4193617 C118.019425,89.1350552 116.841948,87.8398299 114.981533,87.8398299 C114.298596,87.8398299 113.686308,88.1224245 113.02692,88.5463164 C112.438182,88.9466588 111.920091,89.2999021 111.4491,89.6531453 L111.4491,87.7691812 C110.41292,88.2401722 109.306091,88.5227669 108.175713,88.7347128 L108.175713,89.2763525 C109.447388,89.511848 109.588686,89.5824967 109.588686,91.089668 L109.588686,95.9644251 C109.588686,97.5186955 109.470938,97.6364432 107.869569,97.8012901 L107.869569,98.4135784 L112.979821,98.4135784 L112.979821,97.8012901 C111.590398,97.6599928 111.4491,97.5657946 111.4491,95.9644251 L111.4491,90.4302805 C112.155587,89.8179922 113.074019,89.2292534 114.016001,89.2292534 C115.593821,89.2292534 116.159011,90.2889832 116.159011,91.9139023 L116.159011,95.8466773 C116.159011,97.4715964 115.994164,97.6599928 114.60474,97.8012901 L114.60474,98.4135784 L119.503047,98.4135784 Z" id="Smithsonian-"></path>
            <path d="M18.8910696,121.965485 L18.8910696,121.306097 C16.9600064,121.1648 16.77161,121.047052 16.77161,119.021791 L16.77161,109.60197 C16.77161,107.600258 16.9600064,107.458961 18.8910696,107.317664 L18.8910696,106.658276 L12.6504385,106.658276 L12.6504385,107.317664 C14.5815017,107.458961 14.7698981,107.600258 14.7698981,109.60197 L14.7698981,119.021791 C14.7698981,121.023503 14.5815017,121.1648 12.6504385,121.306097 L12.6504385,121.965485 L18.8910696,121.965485 Z M31.7190144,121.965485 L31.7190144,121.353196 C30.3531404,121.211899 30.2353927,121.117701 30.2353927,119.516331 L30.2353927,114.971268 C30.2353927,112.686962 29.0579151,111.391736 27.1975005,111.391736 C26.5145636,111.391736 25.9022752,111.674331 25.2428878,112.098223 C24.654149,112.498565 24.1360589,112.851808 23.6650678,113.205052 L23.6650678,111.321088 C22.6288876,111.792079 21.5220587,112.074673 20.3916802,112.286619 L20.3916802,112.828259 C21.663356,113.063754 21.8046533,113.134403 21.8046533,114.641574 L21.8046533,119.516331 C21.8046533,121.070602 21.6869055,121.18835 20.085536,121.353196 L20.085536,121.965485 L25.1957887,121.965485 L25.1957887,121.353196 C23.8063651,121.211899 23.6650678,121.117701 23.6650678,119.516331 L23.6650678,113.982187 C24.3715544,113.369899 25.2899869,112.78116 26.2319689,112.78116 C27.8097889,112.78116 28.3749781,113.84089 28.3749781,115.465809 L28.3749781,119.398584 C28.3749781,121.023503 28.2101313,121.211899 26.8207077,121.353196 L26.8207077,121.965485 L31.7190144,121.965485 Z M39.6251029,114.311881 C39.5544543,113.723142 39.2954092,112.333718 39.1070128,111.792079 C38.6124722,111.603682 37.9766343,111.391736 37.0111027,111.391736 C34.844544,111.391736 33.4315709,112.78116 33.4315709,114.429628 C33.4315709,116.242944 34.9622918,117.020079 36.3752648,117.679466 C37.5527424,118.221106 38.2356794,118.786295 38.2356794,119.822476 C38.2356794,120.811557 37.4349947,121.470944 36.5636613,121.470944 C35.1506882,121.470944 34.0909584,120.10507 33.6670664,118.5508 L33.0547781,118.668548 C33.0547781,119.516331 33.2667241,121.117701 33.4315709,121.447395 C33.8554628,121.800638 34.9387422,122.248079 36.1397693,122.248079 C38.0237334,122.248079 40.0254453,121.141251 40.0254453,118.998241 C40.0254453,117.373322 38.8244182,116.525538 37.0582018,115.795502 C35.998472,115.348061 35.05649,114.806421 35.05649,113.746691 C35.05649,112.828259 35.6923279,112.121772 36.5872108,112.121772 C37.7411388,112.121772 38.5653731,113.063754 39.0128146,114.453178 L39.6251029,114.311881 Z M47.7831717,121.117701 L47.5712257,120.505413 C47.241532,120.670259 46.6998923,120.905755 46.1111535,120.905755 C45.5224147,120.905755 44.7452795,120.552512 44.7452795,118.644998 L44.7452795,112.592763 L47.2650815,112.592763 C47.5476761,112.427916 47.6183248,111.909826 47.4063788,111.674331 L44.7452795,111.674331 L44.7452795,108.448042 L44.4155858,108.400943 L42.884865,109.955214 L42.884865,111.674331 L41.8015856,111.674331 L41.1657477,112.357268 L41.2599459,112.592763 L42.884865,112.592763 L42.884865,119.445683 C42.884865,121.306097 43.7090993,122.248079 45.192721,122.248079 C45.404667,122.248079 45.7814598,122.153881 46.1818022,121.941935 L47.7831717,121.117701 Z M51.6316725,109.342925 C52.3146095,109.342925 52.8326996,108.777736 52.8326996,108.141898 C52.8326996,107.435412 52.3146095,106.917321 51.655222,106.917321 C51.0193841,106.917321 50.4541949,107.435412 50.4541949,108.141898 C50.4541949,108.777736 51.0193841,109.342925 51.6316725,109.342925 Z M54.38697,121.965485 L54.38697,121.353196 C52.8797987,121.211899 52.7149518,121.070602 52.7149518,119.469232 L52.7149518,111.344637 C51.6787716,111.768529 50.5719427,112.074673 49.3709155,112.26307 L49.3709155,112.828259 C50.7838886,113.063754 50.8545373,113.157953 50.8545373,114.618025 L50.8545373,119.469232 C50.8545373,121.070602 50.6896904,121.211899 49.2060687,121.353196 L49.2060687,121.965485 L54.38697,121.965485 Z M61.4923738,121.117701 L61.2804278,120.505413 C60.9507341,120.670259 60.4090944,120.905755 59.8203556,120.905755 C59.2316168,120.905755 58.4544816,120.552512 58.4544816,118.644998 L58.4544816,112.592763 L60.9742836,112.592763 C61.2568783,112.427916 61.3275269,111.909826 61.1155809,111.674331 L58.4544816,111.674331 L58.4544816,108.448042 L58.1247879,108.400943 L56.5940671,109.955214 L56.5940671,111.674331 L55.5107877,111.674331 L54.8749498,112.357268 L54.969148,112.592763 L56.5940671,112.592763 L56.5940671,119.445683 C56.5940671,121.306097 57.4183014,122.248079 58.9019231,122.248079 C59.1138691,122.248079 59.4906619,122.153881 59.8910043,121.941935 L61.4923738,121.117701 Z M73.613832,120.811557 L72.9544445,120.764458 C72.0595616,120.717359 71.8711652,120.552512 71.8711652,119.375034 L71.8711652,111.509484 C70.623039,111.768529 69.3984623,111.862727 68.1738856,111.933376 L68.1738856,112.475016 C69.8694533,112.710511 70.0107506,112.804709 70.0107506,114.147034 L70.0107506,119.634079 C69.2100659,120.411214 68.3151829,120.764458 67.4673991,120.764458 C66.4076693,120.764458 65.3950385,120.199268 65.3950385,118.103358 L65.3950385,114.947718 C65.3950385,113.346349 65.3950385,112.23952 65.4656872,111.509484 C64.3353087,111.72143 63.2049303,111.862727 62.0981014,111.933376 L62.0981014,112.475016 C63.4404258,112.734061 63.534624,112.828259 63.534624,114.123484 L63.534624,118.739196 C63.534624,121.282548 64.8769484,122.248079 66.4547684,122.248079 C67.0906063,122.248079 67.5851468,122.059683 68.2680838,121.659341 C68.9274713,121.258998 69.4691109,120.835106 70.0107506,120.434764 L70.0107506,122.106782 L70.1520479,122.248079 C71.3295255,121.894836 72.5305526,121.565142 73.613832,121.400296 L73.613832,120.811557 Z M80.6485871,121.117701 L80.4366411,120.505413 C80.1069474,120.670259 79.5653077,120.905755 78.976569,120.905755 C78.3878302,120.905755 77.610695,120.552512 77.610695,118.644998 L77.610695,112.592763 L80.130497,112.592763 C80.4130916,112.427916 80.4837403,111.909826 80.2717943,111.674331 L77.610695,111.674331 L77.610695,108.448042 L77.2810013,108.400943 L75.7502804,109.955214 L75.7502804,111.674331 L74.6670011,111.674331 L74.0311632,112.357268 L74.1253614,112.592763 L75.7502804,112.592763 L75.7502804,119.445683 C75.7502804,121.306097 76.5745147,122.248079 78.0581365,122.248079 C78.2700824,122.248079 78.6468752,122.153881 79.0472176,121.941935 L80.6485871,121.117701 Z M84.4970879,109.342925 C85.1800249,109.342925 85.698115,108.777736 85.698115,108.141898 C85.698115,107.435412 85.1800249,106.917321 84.5206375,106.917321 C83.8847996,106.917321 83.3196104,107.435412 83.3196104,108.141898 C83.3196104,108.777736 83.8847996,109.342925 84.4970879,109.342925 Z M87.2523854,121.965485 L87.2523854,121.353196 C85.7452142,121.211899 85.5803673,121.070602 85.5803673,119.469232 L85.5803673,111.344637 C84.544187,111.768529 83.4373581,112.074673 82.236331,112.26307 L82.236331,112.828259 C83.6493041,113.063754 83.7199527,113.157953 83.7199527,114.618025 L83.7199527,119.469232 C83.7199527,121.070602 83.5551059,121.211899 82.0714841,121.353196 L82.0714841,121.965485 L87.2523854,121.965485 Z M93.9268324,111.391736 C96.8469768,111.391736 99.0370851,113.723142 99.0370851,116.643286 C99.0370851,120.434764 96.258238,122.248079 93.9268324,122.248079 C90.7005439,122.248079 88.7694807,119.657629 88.7694807,117.043629 C88.7694807,113.157953 91.7838232,111.391736 93.9268324,111.391736 Z M93.6913369,112.168871 C92.2312647,112.168871 90.9595889,113.628944 90.9595889,116.290043 C90.9595889,119.257286 92.2548143,121.470944 94.1858775,121.470944 C95.6459497,121.470944 96.8469768,120.387665 96.8469768,117.161376 C96.8469768,114.406079 95.7401479,112.168871 93.6913369,112.168871 Z M111.928614,121.965485 L111.928614,121.353196 C110.56274,121.211899 110.444992,121.117701 110.444992,119.516331 L110.444992,114.971268 C110.444992,112.686962 109.267514,111.391736 107.4071,111.391736 C106.724163,111.391736 106.111874,111.674331 105.452487,112.098223 C104.863748,112.498565 104.345658,112.851808 103.874667,113.205052 L103.874667,111.321088 C102.838487,111.792079 101.731658,112.074673 100.601279,112.286619 L100.601279,112.828259 C101.872955,113.063754 102.014252,113.134403 102.014252,114.641574 L102.014252,119.516331 C102.014252,121.070602 101.896505,121.18835 100.295135,121.353196 L100.295135,121.965485 L105.405388,121.965485 L105.405388,121.353196 C104.015964,121.211899 103.874667,121.117701 103.874667,119.516331 L103.874667,113.982187 C104.581154,113.369899 105.499586,112.78116 106.441568,112.78116 C108.019388,112.78116 108.584577,113.84089 108.584577,115.465809 L108.584577,119.398584 C108.584577,121.023503 108.41973,121.211899 107.030307,121.353196 L107.030307,121.965485 L111.928614,121.965485 Z" id="Institution"></path>
        </g>
    </g>
</svg>