<?xml version="1.0" encoding="UTF-8"?>
<svg width="200px" height="200px" viewBox="0 0 200 200" version="1.1" xmlns="http://www.w3.org/2000/svg" xmlns:xlink="http://www.w3.org/1999/xlink">
    <!-- Generator: Sketch 53 (72520) - https://sketchapp.com -->
    <title>logo/uo</title>
    <desc>Created with Sketch.</desc>
    <defs>
        <polygon id="path-1" points="2.36752892e-20 0.458527616 2.36752892e-20 39.06551 188.479556 39.06551 188.479556 0.458527616 0 0.458527616"></polygon>
    </defs>
    <g id="logo/uo" stroke="none" stroke-width="1" fill="none" fill-rule="evenodd">
        <g id="Group-12" transform="translate(5.000000, 80.000000)">
            <polygon id="Fill-1" fill="#435E74" points="59.5178371 39.1542475 60.101311 39.1542475 60.101311 0.428086439 59.5178371 0.428086439"></polygon>
            <path d="M184.758599,22.3153108 L184.758599,30.6673468 L174.013245,17.4671448 L169.166394,17.4671448 L169.166394,18.3189672 L170.545593,18.6365517 C171.370143,18.8131809 171.459237,18.8131809 171.459237,19.2812916 L171.459237,30.7821993 C171.459237,31.6026983 171.370143,33.0914298 171.314242,33.7622725 C171.254846,34.2869395 171.135181,34.4044022 170.781428,34.4583481 L168.997815,34.7559203 L168.997815,35.5720689 L175.920891,35.5720689 L175.920891,34.7559203 L173.514497,34.4044022 C173.192189,34.3408853 173.046321,34.1712169 172.982558,33.7622725 C172.897832,32.9156707 172.841057,31.6026983 172.841057,30.7569665 L172.841057,20.4480882 L185.462611,35.9261973 L186.112469,35.9261973 L186.112469,22.290078 C186.112469,21.2311732 186.16837,20.0104307 186.198942,19.247358 C186.229513,18.6931078 186.52125,18.6365517 186.812987,18.5782554 L188.577384,18.2885139 L188.577384,17.4671448 L181.649068,17.4671448 L181.649068,18.2885139 L184.116603,18.6365517 C184.466862,18.6931078 184.5874,18.8131809 184.640682,19.3387179 C184.69833,19.9791073 184.758599,21.2076806 184.758599,22.3153108 M168.312146,26.2881617 C168.312146,21.1163207 164.320415,16.9999042 158.766931,16.9999042 C153.252753,16.9999042 149.257529,21.146774 149.257529,26.2881617 C149.257529,31.5165589 153.252753,35.9488197 158.766931,35.9488197 C164.350987,35.9488197 168.312146,31.4861056 168.312146,26.2881617 M164.875065,26.2881617 C164.875065,30.7239029 163.115035,34.872513 158.766931,34.872513 C154.426689,34.872513 152.720813,30.9623088 152.720813,26.2881617 C152.720813,21.9063664 154.455513,18.0544586 158.766931,18.0544586 C163.173557,18.0544586 164.875065,21.9646627 164.875065,26.2881617 M145.754938,23.5099504 L146.548043,23.5099504 L146.200405,17.2078567 L145.580245,17.2078567 L145.022102,17.966579 C144.231617,17.5846076 142.852417,16.9999042 140.032875,16.9999042 C133.686286,16.9999042 129.45872,20.9170691 129.45872,26.170699 C129.45872,31.4547822 133.130763,35.8635505 138.885144,35.8635505 C142.083769,35.8635505 145.140893,35.0465319 146.493888,34.3147825 L146.3454,33.7622725 L146.3454,28.3581163 C146.3454,27.7768932 146.548043,27.6298473 147.107934,27.3940517 L147.604935,27.1904496 L147.604935,26.5222171 L140.556954,26.5222171 L140.556954,27.3070423 L142.645406,27.8047363 C143.259451,27.950042 143.379989,28.0927375 143.379989,28.5034221 L143.379989,33.7004958 C142.645406,34.4044022 140.941278,34.8986158 139.446781,34.8986158 C135.893529,34.8986158 132.923752,31.7175507 132.923752,25.9949399 C132.923752,21.4373855 135.27599,17.9952921 139.942908,17.9952921 C142.233131,17.9952921 143.611457,18.7261714 144.318963,19.3387179 C144.843915,20.1539963 145.521723,22.224821 145.754938,23.5099504 M124.343715,17.4671448 L112.625322,17.4671448 L112.625322,18.3189672 L114.360021,18.6661349 C115.034336,18.7827276 115.118188,18.8688669 115.118188,19.2812916 L115.118188,33.7927258 C115.118188,34.2008001 115.034336,34.2564862 114.32945,34.3730788 L112.625322,34.7263371 L112.625322,35.5720689 L127.130938,35.5720689 L127.979945,29.8773011 L127.189461,29.8773011 C126.807757,31.1928838 126.073174,32.9156707 125.451267,33.6439397 C124.632831,34.2564862 122.754884,34.549708 121.610646,34.549708 L120.932838,34.549708 C119.703874,34.549708 118.852247,34.4322452 118.200643,34.3408853 L118.200643,26.7266893 L121.725943,26.7266893 C122.579318,27.3070423 123.077192,28.3328836 123.342725,29.5283932 L123.93144,29.5283932 L123.93144,22.8669506 L123.342725,22.8669506 C123.198604,23.7753292 122.548746,25.0595885 121.725943,25.5564124 L118.200643,25.5564124 L118.200643,18.6931078 C118.821675,18.5782554 119.783359,18.5243095 120.493486,18.5243095 L120.760766,18.5243095 C122.548746,18.5243095 124.399617,18.9854595 125.047727,19.3944039 C125.602376,20.1539963 126.073174,21.6131446 126.429547,22.9591806 L127.218285,22.9591806 L126.688966,17.14608 C126.250487,17.2913858 125.164771,17.4671448 124.343715,17.4671448 M107.149576,35.5720689 L111.615597,35.5720689 L111.615597,34.7559203 L109.852074,34.2869395 C109.233661,33.9075783 108.654554,33.2941618 108.007318,32.3013841 L106.185272,29.5283932 C105.243678,28.0370515 104.805199,27.4558284 104.242688,27.1034402 C106.740795,26.5779032 108.91572,24.5906076 108.91572,22.224821 C108.91572,19.0472362 105.916245,17.4671448 101.954212,17.4671448 L93.439685,17.4671448 L93.439685,18.2563205 L95.1743845,18.6365517 C95.7281607,18.749664 95.9334247,18.8131809 95.9334247,19.2812916 L95.9334247,33.7927258 C95.9334247,34.2008001 95.8452049,34.2312534 95.1438133,34.3730788 L93.439685,34.7263371 L93.439685,35.5720689 L101.486909,35.5720689 L101.486909,34.7559203 L99.7286258,34.4044022 C99.1067195,34.2869395 99.0184996,34.2312534 99.0184996,33.7927258 L99.0184996,27.7177268 L101.867739,27.7177268 L104.629632,32.3292271 C105.537161,33.8170885 106.50758,35.1631245 107.149576,35.5720689 M101.279898,26.6083565 L99.0184996,26.6083565 L99.0184996,18.749664 C99.4604724,18.6365517 100.3121,18.4616627 100.812595,18.4616627 L101.486909,18.4616627 C104.39205,18.4616627 105.743299,19.7172089 105.743299,22.3153108 C105.743299,25.0004221 104.304704,26.6083565 101.279898,26.6083565 M73.6111787,26.2881617 C73.6111787,31.5165589 77.6064031,35.9488197 83.1232017,35.9488197 C88.7037632,35.9488197 92.6657959,31.4861056 92.6657959,26.2881617 C92.6657959,21.1163207 88.6696981,16.9999042 83.1232017,16.9999042 C77.6064031,16.9999042 73.6111787,21.146774 73.6111787,26.2881617 M77.07359,26.2881617 C77.07359,21.9063664 78.8056691,18.0544586 83.1232017,18.0544586 C87.530701,18.0544586 89.2339558,21.9646627 89.2339558,26.2881617 C89.2339558,30.7239029 87.4686851,34.872513 83.1232017,34.872513 C78.7820856,34.872513 77.07359,30.9623088 77.07359,26.2881617" id="Fill-2" fill="#435E74"></path>
            <g id="Group-6">
                <mask id="mask-2" fill="white">
                    <use xlink:href="#path-1"></use>
                </mask>
                <g id="Clip-4"></g>
                <path d="M188.479556,6.31166469 L188.23848,3.64743567 L188.234113,3.62133284 L188.165982,3.64134501 C187.916172,3.71704323 187.332698,3.77794983 186.812987,3.77794983 L181.967008,3.77794983 L181.967008,4.25650175 L182.839599,4.43052062 C183.131336,4.49316742 183.131336,4.4957777 183.131336,4.63151243 L183.131336,11.034537 C183.131336,11.1702718 183.131336,11.1746222 182.826497,11.237269 L182.087547,11.3956262 L182.071824,11.4008468 L182.071824,11.8741781 L186.104607,11.8741781 L186.104607,11.4008468 L185.009284,11.1841933 L184.931545,11.1702718 C184.730649,11.135468 184.730649,11.135468 184.730649,11.006694 L184.730649,8.09883856 L186.196321,8.09883856 C186.445258,8.34420518 186.716032,9.02635918 186.808619,9.4109409 L186.820848,9.45270543 L187.220021,9.45270543 L187.220021,6.30470394 L186.812987,6.30470394 L186.808619,6.34994884 C186.759705,6.71712868 186.457487,7.27659937 186.198942,7.48629212 L184.730649,7.48629212 L184.730649,4.45923374 C184.991814,4.39658694 185.334212,4.35569251 185.568301,4.35569251 L185.697573,4.35569251 C186.378002,4.35569251 187.086381,4.54363289 187.381612,4.72722281 C187.61308,5.03001566 187.86289,5.63647145 188.013126,6.26815997 L188.023608,6.31166469 L188.479556,6.31166469 Z M179.671545,7.72469798 C179.671545,5.37370294 177.855613,3.59610011 175.443979,3.57608794 L175.443979,3.57521784 L175.384584,3.57608794 C172.974697,3.59610011 171.160512,5.37370294 171.160512,7.72469798 C171.160512,9.83815725 172.747596,12.0290549 175.408167,12.0438465 L175.422143,12.0438465 C178.084461,12.0290549 179.671545,9.83815725 179.671545,7.72469798 L179.671545,7.72469798 Z M175.416028,11.4539225 C173.573019,11.4460917 172.917921,9.4422643 172.917921,7.72469798 C172.917921,6.75367264 173.116198,5.88009787 173.481306,5.26755143 C173.918911,4.5279712 174.568768,4.15122033 175.416028,4.14861004 C176.262415,4.15122033 176.913146,4.5279712 177.348131,5.26755143 C177.711492,5.88357825 177.913262,6.75628292 177.913262,7.72469798 C177.913262,9.4422643 177.258164,11.4460917 175.416028,11.4539225 L175.416028,11.4539225 Z M164.588569,4.36526355 L165.006085,4.25476156 L165.006085,3.77794983 L162.391807,3.77794983 L162.391807,4.25650175 L163.007599,4.38092524 C163.159582,4.40963836 163.301083,4.44357204 163.327287,4.49142723 C163.335148,4.50969921 163.335148,4.54885346 163.283613,4.62803205 L161.527951,7.60375486 L159.55829,4.58713761 C159.511122,4.52101044 159.511996,4.4957777 159.511996,4.48881695 C159.524224,4.46445431 159.622052,4.44357204 159.695423,4.42704025 L160.355762,4.26781297 L160.370611,4.26520269 L160.370611,3.77794983 L157.034852,3.77794983 L157.034852,4.25998212 L157.434025,4.40180751 C157.605224,4.46445431 157.646277,4.50969921 157.769435,4.68893866 L160.284138,8.526925 L160.284138,11.006694 C160.284138,11.1119754 160.253567,11.1580904 159.978426,11.2111662 L159.082252,11.3956262 L159.067403,11.4008468 L159.067403,11.8741781 L163.101933,11.8741781 L163.101933,11.4008468 L162.177808,11.2111662 C161.886071,11.1485194 161.886071,11.1485194 161.886071,11.006694 L161.886071,8.28242848 L164.168433,4.66196573 C164.290717,4.45923374 164.389419,4.4183393 164.588569,4.36526355 L164.588569,4.36526355 Z M154.445031,6.29687309 L154.911461,6.29687309 L154.813633,3.62394313 L154.813633,3.59610011 L154.737642,3.62916369 C154.565569,3.71095257 153.984716,3.77794983 153.699966,3.77794983 L148.561378,3.77794983 C148.090581,3.77794983 147.640747,3.71617313 147.387442,3.61698237 L147.314945,3.58826926 L147.218864,6.26206931 L147.21799,6.28556186 L147.673938,6.28556186 L147.681799,6.24292723 C147.806705,5.7208706 148.050401,4.99695207 148.288857,4.63325262 C148.523819,4.49316742 149.10904,4.3409009 149.853231,4.3409009 L150.253278,4.3409009 L150.253278,11.034537 C150.253278,11.1607007 150.253278,11.1607007 149.986871,11.2155167 L149.08895,11.3956262 L149.073228,11.4008468 L149.073228,11.8741781 L153.057097,11.8741781 L153.057097,11.4008468 L152.157429,11.2207372 L152.121617,11.2120363 C151.865692,11.1607007 151.865692,11.1607007 151.865692,11.034537 L151.865692,4.3409009 L152.392391,4.3409009 C153.009056,4.3409009 153.382899,4.38875609 153.828366,4.64978441 C154.053719,5.01174368 154.324493,5.72957155 154.43455,6.25249827 L154.445031,6.29687309 Z M141.112477,11.8741781 L144.850903,11.8741781 L144.850903,11.4008468 L144.07876,11.237269 C143.787024,11.1746222 143.787024,11.1702718 143.787024,11.034537 L143.787024,4.63151243 C143.787024,4.50273846 143.787024,4.4957777 144.095356,4.43052062 L144.833433,4.25650175 L144.850903,4.25476156 L144.850903,3.77794983 L141.112477,3.77794983 L141.112477,4.25476156 L141.882872,4.43052062 C142.176356,4.49316742 142.176356,4.4957777 142.176356,4.63151243 L142.176356,11.034537 C142.176356,11.1702718 142.176356,11.1746222 141.86977,11.237269 L141.130819,11.3956262 L141.112477,11.4008468 L141.112477,11.8741781 Z M134.589448,5.36761228 C134.589448,4.62716196 135.114399,4.10684551 135.867325,4.10684551 C136.516309,4.10684551 136.920723,4.42181968 137.258754,4.75506583 C137.471005,5.08222132 137.7016,5.70172853 137.809036,6.22552535 L137.816024,6.27512073 L138.297302,6.27512073 L138.21345,3.6587469 L138.21345,3.63786464 L137.85795,3.63786464 L137.599405,3.99373324 C137.079693,3.71095257 136.516309,3.57521784 135.882174,3.57521784 C134.257531,3.57521784 133.080102,4.4957777 133.080102,5.76611551 C133.080102,6.83546151 133.663576,7.55328938 134.965911,8.08491705 L135.779979,8.41729311 C136.414114,8.6826719 137.003702,9.0550723 137.003702,9.96432093 C137.003702,10.8996724 136.388783,11.4782852 135.400896,11.4782852 C134.635741,11.4782852 134.233948,11.1032745 133.978023,10.776119 C133.722971,10.2888661 133.568368,9.57886912 133.461806,9.01417786 L133.456565,8.96632267 L132.947335,8.96632267 L132.956943,9.2099491 C132.962184,9.457926 132.970045,9.71982441 132.979653,9.97911254 C133.003237,10.7465358 133.031188,11.6183704 133.003237,11.9690184 L132.997996,12.0290549 L133.374459,12.0290549 L133.584964,11.6601349 C134.126512,11.9072417 134.766761,12.0290549 135.544144,12.0290549 C137.375798,12.0290549 138.603888,11.0510688 138.603888,9.59279063 C138.603888,8.31723226 137.735665,7.73078864 136.798438,7.28617041 L135.618388,6.73540066 C134.878564,6.38388253 134.589448,6.00278118 134.589448,5.36761228 L134.589448,5.36761228 Z M128.429779,11.8715678 L130.580248,11.8741781 L130.580248,11.4034571 L129.83693,11.2015952 C129.555675,11.0214856 129.311105,10.7587171 129.056927,10.3471625 L128.307494,9.1481724 C127.951995,8.59653255 127.706551,8.29286961 127.473336,8.11014979 C128.478693,7.85086166 129.477063,7.03123275 129.477063,5.93404373 C129.477063,4.60366941 128.282164,3.77794983 126.353556,3.77794983 L122.557481,3.77794983 L122.557481,4.23822976 L123.327003,4.4183393 C123.619613,4.480116 123.619613,4.49751789 123.619613,4.63151243 L123.619613,11.034537 C123.619613,11.1702718 123.619613,11.1746222 123.312154,11.237269 L122.571456,11.3956262 L122.557481,11.4008468 L122.557481,11.8741781 L126.281058,11.8741781 L126.281058,11.4008468 L125.497561,11.237269 C125.233775,11.1868035 125.233775,11.1676615 125.233775,11.0214856 L125.233775,8.41294264 L126.127328,8.41294264 L127.315239,10.4202504 C127.787783,11.2120363 128.161626,11.7010293 128.420171,11.8663473 L128.429779,11.8715678 Z M125.93866,7.81083732 L125.233775,7.81083732 L125.233775,4.44531223 C125.356933,4.41224864 125.67138,4.32958968 125.891493,4.32958968 L126.108986,4.32958968 C127.279427,4.32958968 127.854167,4.86643791 127.854167,5.97058769 C127.854167,7.17392823 127.192081,7.81083732 125.93866,7.81083732 L125.93866,7.81083732 Z M115.850151,11.2294382 L115.850151,7.97267488 L117.211881,7.97267488 C117.550785,8.21195083 117.794482,8.62524567 117.913273,9.16470419 L117.922881,9.2099491 L118.283622,9.2099491 L118.283622,6.15069723 L117.918514,6.15069723 L117.913273,6.19681223 C117.851257,6.57791357 117.555153,7.13042351 117.214502,7.34707701 L115.850151,7.34707701 L115.850151,4.42268977 C116.100835,4.38005515 116.389952,4.35569251 116.68955,4.35569251 L116.804847,4.35569251 C117.563887,4.35569251 118.322054,4.54363289 118.618158,4.72722281 C118.836524,5.01609415 119.067119,5.57469474 119.248799,6.27164035 L119.264522,6.31166469 L119.714356,6.31166469 L119.47328,3.64569549 L119.47328,3.61698237 L119.403402,3.64134501 C119.205126,3.70399181 118.726468,3.77794983 118.384943,3.77794983 L113.173857,3.77794983 L113.173857,4.25476156 L113.942506,4.4183393 C114.237736,4.480116 114.237736,4.49751789 114.237736,4.63151243 L114.237736,11.034537 C114.237736,11.1702718 114.237736,11.1746222 113.930277,11.237269 L113.191326,11.3956262 L113.173857,11.4008468 L113.173857,11.8741781 L119.663695,11.8741781 L120.052386,9.27607627 L120.057627,9.25258372 L119.596438,9.25258372 L119.58683,9.29521835 C119.408643,9.89819376 119.061878,10.6299431 118.816435,10.9231649 C118.455694,11.191154 117.641626,11.3138373 117.18131,11.3138373 L116.881712,11.3138373 C116.421396,11.3138373 116.170712,11.2746831 115.927016,11.2424896 L115.850151,11.2294382 Z M110.888875,4.25650175 L110.901104,4.25215127 L110.901104,3.77794983 L108.354956,3.77794983 L108.354956,4.25476156 L109.007434,4.40441779 C109.110503,4.42704025 109.231914,4.45923374 109.253751,4.49751789 C109.263359,4.51840016 109.255498,4.55929459 109.226673,4.62368158 L107.118131,10.0173967 L105.032299,4.66196573 C104.999981,4.58626752 104.992993,4.53841233 105.009589,4.51317959 C105.032299,4.46880478 105.10567,4.44531223 105.222714,4.4183393 L105.925853,4.26955316 L105.942449,4.26520269 L105.942449,3.77794983 L102.607563,3.77794983 L102.607563,4.26172231 L102.991887,4.39049628 L103.013724,4.40006732 C103.173568,4.45488327 103.281004,4.48968704 103.347387,4.66979658 L106.244667,12.0038222 L106.249908,12.0177437 L106.945185,12.0177437 L110.09315,4.66979658 C110.174382,4.47750572 110.269589,4.44705242 110.398862,4.40963836 L110.888875,4.25650175 Z M96.5937635,11.8741781 L100.330443,11.8741781 L100.330443,11.4008468 L99.5626677,11.237269 C99.2709307,11.1746222 99.2709307,11.1702718 99.2709307,11.034537 L99.2709307,4.63151243 C99.2709307,4.50795902 99.2709307,4.4957777 99.5775165,4.43052062 L100.317341,4.25650175 L100.330443,4.25476156 L100.330443,3.77794983 L96.5937635,3.77794983 L96.5937635,4.25476156 L97.3650322,4.43052062 C97.6558957,4.49316742 97.6558957,4.4957777 97.6558957,4.63151243 L97.6558957,11.034537 C97.6558957,11.1702718 97.6558957,11.1746222 97.3519303,11.237269 L96.6121063,11.3956262 L96.5937635,11.4008468 L96.5937635,11.8741781 Z M93.2553841,4.39397666 L94.0659587,4.25650175 L94.0659587,3.77794983 L90.8725743,3.77794983 L90.8725743,4.25650175 L91.9678982,4.4183393 C92.0954239,4.43835147 92.1530725,4.51317959 92.165301,4.68110781 C92.1993661,4.93256509 92.2421659,5.43025908 92.2421659,5.99669052 L92.2421659,9.39179883 L87.7473201,3.7988321 L87.7281039,3.77794983 L85.3933346,3.77794983 L85.3933346,4.26520269 L86.0720162,4.4183393 L86.1261709,4.43052062 C86.3986917,4.4957777 86.4056794,4.4957777 86.4056794,4.64804422 L86.4056794,9.69285148 C86.4056794,10.0339285 86.3716143,10.4359121 86.3497777,10.7273937 L86.3279411,11.052809 C86.3026107,11.2015952 86.2790271,11.2424896 86.1418933,11.2625018 L85.3173433,11.4008468 L85.3173433,11.8741781 L88.5098542,11.8741781 L88.5098542,11.3973664 L87.4127834,11.237269 C87.2756496,11.2120363 87.2494456,11.1746222 87.2249886,11.0240959 C87.1996582,10.7752489 87.1507442,10.1653127 87.1507442,9.68067016 L87.1507442,5.42503851 L92.4517972,12.0090427 L92.4692665,12.0290549 L92.9776226,12.0290549 L92.9776226,5.97058769 C92.9776226,5.56773399 93.0046999,5.20229435 93.0230427,4.93256509 L93.0239161,4.90211178 C93.0282835,4.82902385 93.0335243,4.76550696 93.0361446,4.70634055 L93.0440058,4.63151243 C93.0440058,4.45488327 93.1068952,4.4183393 93.2553841,4.39397666 L93.2553841,4.39397666 Z M82.8349586,4.25650175 L82.8498075,4.25476156 L82.8498075,3.77794983 L80.0599634,3.77794983 L80.0599634,4.25650175 L80.9168316,4.43052062 C81.17363,4.48185619 81.17363,4.52275063 81.17363,4.63151243 L81.17363,8.71573549 C81.17363,10.3576036 80.3630554,11.3007859 78.9506642,11.3007859 C77.7278146,11.3007859 77.0010925,10.3750055 77.0010925,8.83145804 L77.0010925,4.64804422 C77.0010925,4.50447865 77.0098271,4.46445431 77.2395482,4.4183393 L78.0326535,4.25998212 L78.0483758,4.25650175 L78.0483758,3.77794983 L74.4802754,3.77794983 L74.4802754,4.25476156 L75.1449815,4.40441779 C75.3738291,4.45314308 75.3851841,4.49751789 75.3851841,4.63151243 L75.3851841,8.83145804 C75.3851841,10.8431163 76.648213,12.0438465 78.7689836,12.0438465 C80.7823182,12.0438465 81.9824577,10.7970013 81.9824577,8.71573549 L81.9824577,4.63151243 C81.9824577,4.51317959 81.9824577,4.46445431 82.2401296,4.40441779 L82.8349586,4.25650175 L82.8349586,4.25650175 Z" id="Fill-3" fill="#435E74" mask="url(#mask-2)"></path>
                <path d="M35.5604664,14.2817293 C35.4425488,12.1230251 35.2110808,9.82510583 33.9995863,8.08752734 C31.6150295,4.67588724 27.5752585,3.27503528 23.6603929,3.30722877 C19.7402864,3.34203254 15.6987685,4.67588724 13.3246933,8.08752734 C12.1140722,9.82510583 11.878237,12.1230251 11.7603193,14.2817293 C11.6729729,15.8679114 11.6127039,17.8021312 11.6074631,19.7615837 C11.5987285,21.7201662 11.6546302,23.6561262 11.7358623,25.2388279 C11.8607677,27.4053629 12.1140722,29.6911009 13.3246933,31.4347701 C15.6987685,34.8481503 19.7306783,36.1837452 23.6603929,36.2141985 C27.5857401,36.2498724 31.6150295,34.8481503 33.9995863,31.4347701 C35.2110808,29.6911009 35.4582711,27.4053629 35.5744418,25.2388279 C35.6635352,23.6561262 35.6364578,21.75497 35.6382047,19.7937772 C35.6408251,17.8308443 35.6469394,15.8679114 35.5604664,14.2817293 M46.8002012,26.1480766 C46.0044755,31.1954941 41.7795301,34.918628 36.9064745,36.7797599 C32.8754381,38.3250475 28.2740297,39.0689782 23.6603929,39.0654978 C19.0650988,39.0567969 14.4462211,38.3250475 10.4108174,36.7797599 C5.53252098,34.918628 1.310196,31.1954941 0.517964153,26.1480766 C0.206137504,24.179923 -0.00786117601,22.0281796 1.08420217e-19,19.7615837 C0.010481568,17.4967281 0.206137504,15.3432444 0.517964153,13.3681302 C1.310196,8.32419301 5.53252098,4.60714979 10.4108174,2.73905713 C14.4462211,1.20073026 19.0650988,0.468980875 23.6603929,0.458539743 C28.2740297,0.455059365 32.8754381,1.20073026 36.9064745,2.73905713 C41.7795301,4.60714979 46.0044755,8.32419301 46.8002012,13.3681302 C47.1059136,15.3432444 47.3146715,17.4967281 47.3146715,19.7615837 C47.3146715,22.03166 47.1059136,24.179923 46.8002012,26.1480766" id="Fill-5" fill="#435E74" mask="url(#mask-2)"></path>
            </g>
        </g>
    </g>
</svg>